<svg width="509" height="450" viewBox="0 0 509 450" fill="none" xmlns="http://www.w3.org/2000/svg">
<g clip-path="url(#clip0_6_859)">
<path d="M67.4692 155.192C67.8123 154.591 68.1126 153.99 68.5844 153.218C67.7266 153.261 67.0403 153.304 66.0967 153.389C66.5256 152.531 66.8258 151.931 67.0832 151.459C68.1984 150.686 69.8283 151.416 70.5145 149.957C70.343 148.97 69.2707 149.485 68.8846 148.97C68.5415 148.498 68.327 147.94 67.9839 147.254C68.6273 146.954 69.3136 146.396 69.9998 146.396C71.0721 146.396 71.8871 145.795 72.702 145.323C74.3748 144.336 75.9189 143.092 77.6346 141.891C77.3773 141.29 77.1199 140.689 76.8626 140.089C77.5917 139.745 78.3638 139.359 79.1358 138.973C79.3932 138.844 79.6934 138.544 79.9079 138.587C82.0525 138.93 82.7817 137.428 83.6395 135.97C83.8969 135.541 84.1971 135.154 84.2829 135.026C86.9422 133.61 89.5586 134.425 92.0463 134.039C92.4753 133.953 92.9471 134.253 93.4189 134.425C95.3919 135.154 97.2792 134.854 98.9949 133.696C100.796 132.494 102.684 131.55 104.957 131.379C106.201 131.293 107.445 130.821 108.302 129.705C108.86 129.834 109.332 129.92 109.804 130.006C110.962 128.075 112.549 126.745 114.779 126.23C115.937 125.972 117.052 125.543 118.21 125.329C120.655 124.814 122.8 123.57 124.987 122.497C128.119 120.91 131.25 119.236 134.467 117.777C136.483 116.876 138.327 115.46 140.257 114.345C142.53 113.015 144.932 111.856 147.549 111.384L147.463 111.299C147.463 112.543 146.391 112.972 145.619 113.444C143.259 114.86 140.815 116.104 138.413 117.434C137.297 118.035 136.268 118.764 135.196 119.494C133.566 120.695 131.636 121.51 129.748 122.368C126.66 123.741 123.915 125.629 121.127 127.474C120.87 127.646 120.741 127.903 120.527 128.118C120.527 128.804 120.956 129.062 121.47 128.976C122.628 128.847 123.829 129.147 124.859 128.375C124.945 128.332 125.03 128.246 125.116 128.246C127.561 128.332 129.234 126.659 131.25 125.672C134.252 124.213 137.212 122.712 139.914 120.695C140.3 120.395 140.772 120.223 141.244 120.051C144.289 118.979 146.605 116.833 149.007 114.817C149.994 114.002 150.851 113.058 151.838 112.285C153.21 111.299 153.897 109.968 154.154 108.338L154.111 108.424C154.583 108.467 155.055 108.553 155.484 108.467C156.127 108.381 156.47 107.995 156.47 107.351C156.47 106.536 155.87 106.579 155.269 106.579L155.226 106.622C155.569 106.279 155.87 105.849 156.256 105.592C158.572 104.133 160.674 102.288 163.29 101.387C165.263 100.744 166.721 99.1132 168.823 98.6841C169.08 98.6412 169.252 98.298 169.466 98.0834C170.667 96.6246 172.169 95.8523 174.185 95.8952C175.042 93.4925 177.487 93.8357 179.16 92.8489C179.761 93.3208 179.375 93.5783 179.117 93.8786C179.031 93.9644 178.946 94.0073 178.903 94.0502C177.487 96.6675 175.042 98.0405 172.512 99.3277C171.997 99.5851 171.654 100.1 171.182 100.486C170.496 101.001 169.895 101.602 168.995 101.945C168.137 102.245 167.451 103.103 166.764 103.747C166.121 104.348 165.478 104.948 165.563 106.15C165.821 106.278 166.164 106.493 166.507 106.493C168.266 106.493 169.81 105.764 171.054 104.605C173.241 102.589 175.9 101.258 178.216 99.4135C179.761 98.2121 181.519 97.3111 183.278 96.4959C183.321 96.6675 183.321 96.9679 183.449 97.0108C183.664 97.0966 183.921 97.0966 184.178 97.0966L184.221 96.882C184.093 96.7533 183.964 96.6675 183.792 96.6246C183.621 96.5817 183.406 96.6246 183.235 96.6246C183.578 96.2814 183.878 95.7665 184.264 95.6807C186.023 95.2516 187.181 94.0502 188.082 92.6343C188.811 91.4759 189.754 90.6607 190.87 89.8883C191.727 89.2877 192.5 88.5582 193.272 87.8288C193.443 87.6572 193.443 87.314 193.572 86.7991C193.1 86.7991 192.714 86.7133 192.414 86.7991C190.784 87.4856 189.154 88.1721 187.61 88.9015C187.009 89.2018 186.538 89.7167 186.023 90.1458C184.65 91.2613 183.149 92.1624 181.433 92.6772C181.305 92.7201 181.09 92.5485 180.919 92.4627C181.262 91.0897 182.935 91.0468 183.535 89.8883L183.449 89.9312C183.792 89.6738 184.522 89.2877 184.479 89.116C184.136 87.9576 184.865 87.2711 185.68 87.0565C187.696 86.5846 189.111 85.2545 190.655 84.1389C191.213 83.7528 191.856 83.4953 192.457 83.1092C192.757 82.8946 193.143 82.6801 193.357 82.3798C194.644 80.5348 196.36 79.3763 198.462 78.6469C199.448 78.3037 200.263 77.5314 201.121 76.8878C201.678 76.4587 202.022 76.7591 202.408 77.0165L202.236 77.1023L202.365 76.9736C202.965 76.802 203.523 76.5874 204.123 76.4158L204.08 76.33C203.351 77.1023 202.665 77.8746 201.979 78.604C202.622 79.977 203.051 80.2774 203.866 79.8483C204.981 79.2476 206.053 78.5611 207.126 77.8317C207.898 77.2739 208.541 76.4158 209.613 76.33C209.785 76.33 209.999 76.2013 210.128 76.0725C211.372 74.6137 212.787 73.4553 214.503 72.6401C215.232 70.9667 216.776 71.0096 218.192 70.9238C218.535 69.8512 217.72 69.9799 217.248 69.8083L217.334 69.8512C218.449 69.0788 219.564 68.3065 220.722 67.5771C221.452 67.1052 222.267 66.6761 223.21 67.0193C223.725 67.191 224.154 67.1052 224.497 66.6332C225.055 65.8609 226.041 65.4747 226.47 64.5308C226.727 63.973 227.414 63.8443 228.014 64.0588L227.971 63.973C227.757 64.2734 227.457 64.5737 227.285 64.9169C226.642 66.0754 227.028 66.9764 228.1 67.7917C229.558 66.6332 231.059 65.6034 232.432 64.4021C234.148 62.8574 235.992 62.0851 238.308 62.7287C239.209 62.9862 239.852 62.6 240.281 61.8706C240.453 61.5703 240.324 61.1412 240.367 60.798C239.938 60.755 239.638 60.7121 239.338 60.7121C239.338 60.5405 239.252 60.326 239.338 60.2402C239.809 59.854 240.281 59.5537 240.753 59.2104C241.482 58.6956 242.254 58.2665 242.898 57.7516C243.97 56.8935 244.999 56.1212 246.329 55.6921C247.487 55.3489 248.645 54.834 249.76 54.3191C250.833 53.8042 251.519 52.56 252.506 51.7448C253.235 51.1441 254.135 50.6292 254.993 50.243C256.58 49.5994 257.953 48.7413 259.025 47.4112C260.569 48.9988 261.298 48.9558 262.456 47.2396C262.585 47.0251 262.8 46.8534 262.971 46.6389L262.928 46.596C263.014 46.7247 263.1 46.8964 263.186 47.0251C263.314 46.8964 263.486 46.7247 263.615 46.596L263.572 46.6389C264.387 45.9524 265.244 45.2659 266.102 44.6652C267.26 43.8071 268.676 44.0216 270.005 43.85C270.263 43.8071 270.692 44.2362 270.906 44.4936C271.378 45.1372 271.764 45.8237 272.193 46.4673C271.893 47.3683 271.55 48.2694 271.335 49.2133C271.206 49.814 271.807 50.3718 272.45 50.243C272.751 50.2001 273.051 50.1572 273.265 49.9856C274.466 49.1275 275.753 48.3552 276.74 47.3254C277.812 46.2099 278.841 45.6092 280.3 46.167C281.929 44.9227 283.302 43.421 285.318 42.9919C287.205 41.2756 289.736 40.3746 291.323 38.3151L291.237 38.2722C291.409 38.7013 291.494 39.2591 291.838 39.4736C292.266 39.8168 292.867 39.9456 293.382 40.1601C294.668 39.6023 295.869 39.0445 297.285 38.4438C297.499 38.83 297.714 39.2161 298.014 39.5594C298.529 40.203 299.129 40.3317 299.815 39.9885C300.587 39.6023 301.188 38.83 302.174 39.0016L302.132 38.9158C300.802 40.8037 298.915 41.8334 296.813 42.3912C294.754 42.949 293.039 44.0216 291.28 45.1372C290.722 45.4804 289.993 46.0382 289.907 46.596C289.65 48.0977 288.578 48.6126 287.42 49.2133C285.532 50.2001 284.031 51.5302 283.559 53.7613C283.388 54.5766 283.817 55.0485 284.675 54.9198C285.833 54.7482 286.948 54.5766 288.277 54.362C288.664 53.8472 289.135 53.2036 289.607 52.56C291.065 50.4147 293.253 49.6853 295.655 49.4707C296.255 49.4278 296.856 49.5994 297.242 49.0417C297.585 48.5697 297.842 48.0548 298.057 47.5399C298.186 47.2825 298.186 47.0251 298.228 46.7676C298.529 46.7247 298.743 46.6389 298.915 46.7247C300.802 47.6687 302.089 46.6818 303.247 45.3088C303.547 44.9227 303.804 44.4936 304.062 44.0645C304.276 43.7642 304.448 43.2922 304.791 43.1635C307.15 42.2196 307.579 39.4307 309.595 38.1435C309.766 38.0148 309.766 37.3283 309.595 37.1567C309.38 36.9421 308.866 36.8992 308.565 37.0279C307.622 37.3712 306.893 38.0148 306.335 38.8729C306.035 39.3449 305.606 39.731 305.134 40.2459C304.276 39.5165 303.547 38.9158 302.818 38.2722L302.904 38.3151C304.705 37.1567 306.721 36.2985 308.179 34.6252C308.565 34.1961 309.209 34.0674 309.724 33.7671C310.967 32.9948 312.254 32.2224 313.498 31.4501C314.27 30.9782 314.871 29.9913 316.072 30.4633C316.286 30.5491 316.801 30.1629 316.972 29.8626C317.487 28.9187 317.873 27.9318 318.345 26.9021C318.945 26.6875 319.803 26.6446 320.146 26.1727C320.79 25.3575 321.133 24.3277 321.605 23.4267C322.334 23.2121 323.149 22.9976 323.921 22.7831C324.007 23.5983 324.264 24.4993 324.092 25.3145C323.749 27.2024 324.65 28.5325 325.722 29.8197C326.666 30.9353 327.567 32.0937 328.467 33.1664C329.411 33.2951 330.011 32.9518 330.526 32.2653C331.427 30.9782 332.413 29.7768 333.357 28.5754C334.687 28.747 334.515 30.1629 335.545 30.7636C336.402 30.7636 337.475 30.7636 338.676 30.7636C339.319 32.3941 339.962 33.8529 338.633 35.4404C338.375 35.7407 338.461 36.3414 338.375 36.8134C339.619 37.457 340.82 37.1137 341.935 37.1996L341.893 37.1567C342.321 37.5857 342.879 37.929 343.136 38.4009C344.166 40.4175 345.967 40.5033 347.683 39.9885C349.141 39.5594 350.557 39.4307 352.058 39.5165C353.13 39.5594 353.988 39.2591 354.717 38.5296C355.875 37.3283 357.162 36.2985 357.805 34.6252C358.363 33.1664 359.736 32.2224 360.851 31.2785C363.21 31.2356 363.939 33.2951 365.483 34.4536C364.711 35.0972 363.939 35.6978 363.21 36.2985C363.167 37.1567 363.424 38.0577 362.524 38.7013C361.966 39.0874 362.095 39.7739 362.438 40.2888C362.824 40.9324 363.381 41.2756 364.154 41.1469C364.84 41.0182 365.526 40.8895 366.169 40.7608C367.756 40.4604 368.872 39.5594 369.429 38.0577C369.729 37.2854 370.116 36.7705 370.673 36.1698C371.359 35.4404 371.703 34.3248 372.217 33.2951C373.075 33.0377 374.019 32.7373 375.091 32.3941C375.263 30.592 376.292 29.4335 378.136 29.0045C378.823 28.8329 379.423 28.5754 380.109 28.3609C382.254 27.6315 382.683 27.0737 383.026 24.5851C382.082 23.9415 381.139 23.2551 380.152 22.5686C380.452 21.3243 380.71 20.2087 380.967 19.0502C380.238 18.1492 379.209 17.7631 378.222 17.3769C377.236 16.9907 376.249 16.4759 375.177 16.2184C374.062 15.9181 372.904 15.7894 371.531 15.5319C371.274 15.3174 370.888 14.8883 370.416 14.5451C369.944 14.2018 369.429 13.9444 368.915 13.6441C368.829 12.7859 368.743 12.0136 368.7 11.2413L368.657 11.3271C370.33 11.0697 372.003 10.941 373.375 12.2711C373.59 12.4427 373.976 12.6143 374.19 12.5285C375.563 12.1424 376.335 12.8718 377.193 13.8157C377.579 14.2877 378.394 14.4593 379.037 14.5451C380.281 14.7596 381.568 14.8025 382.854 14.9313C383.24 14.9742 383.669 15.0171 384.013 14.8883C385.256 14.3735 386.543 14.7596 387.83 14.6738C388.731 14.6309 389.288 15.1458 389.889 15.7465C389.803 16.4759 389.46 17.2911 389.674 17.9347C389.846 18.4925 390.618 18.8357 391.09 19.3077C391.218 19.8226 390.747 19.9513 390.446 20.1658C388.902 21.0239 388.731 21.453 389.503 22.5256C390.103 23.3409 390.275 24.0703 390.146 25.0142C389.975 26.5588 389.803 28.1034 389.631 29.7768C390.189 30.3775 391.176 30.8065 391.39 31.9221C391.476 32.3083 391.948 32.866 392.334 32.9518C393.62 33.2522 394.392 34.0674 394.993 35.1401C395.293 35.6549 395.679 35.8695 396.194 35.7407C396.88 35.5691 397.052 34.9255 397.009 34.3248C396.966 33.7242 396.794 33.1664 396.709 32.5657C396.623 32.0937 396.537 31.6218 396.451 31.064C398.424 30.2917 400.011 30.9353 401.47 32.0508C402.242 32.6086 402.928 33.338 403.7 34.0674C403.872 35.5262 403.872 35.5262 405.416 36.8992C407.946 35.5691 410.563 34.239 413.308 32.8231C413.78 32.9518 414.423 33.1664 415.109 33.2951C416.696 33.6383 417.082 33.4667 417.897 31.9221C418.069 31.5788 418.24 31.2356 418.455 30.8065C419.87 30.6349 421.5 30.8494 422.144 28.4896C422.53 29.4335 422.744 29.691 422.701 29.9055C422.272 31.7934 422.144 33.81 421.114 35.5262C420.857 35.9553 420.728 36.4272 420.514 36.8563C419.441 38.8729 419.827 40.9324 420.385 42.9061C420.599 43.7213 421.286 44.4078 421.843 45.223C421.371 47.1538 420.342 48.9988 419.356 50.7579C418.541 52.2167 417.726 53.5468 417.254 55.2201C416.825 56.7648 416.224 58.3523 415.109 59.7253C414.637 60.326 414.209 61.0983 414.123 61.8277C413.908 63.6298 414.895 65.2173 415.109 66.9764C415.238 68.0491 416.139 68.8643 417.125 69.4221C417.297 69.5079 417.383 69.7224 417.511 69.8512C418.155 71.9107 417.297 73.8843 417.125 75.858C417.039 76.8449 416.353 77.6172 415.367 78.0462C414.38 78.4753 413.436 79.0331 412.493 79.5909C410.391 80.7922 409.061 82.5085 408.976 85.0399C408.976 85.3403 408.847 85.5977 408.847 85.8981C408.847 85.9839 408.89 86.0697 408.976 86.37C409.705 86.9278 410.52 87.5285 411.506 88.2579C410.691 89.3735 409.919 90.4032 409.233 91.3042C409.19 92.7631 410.434 92.7631 411.163 93.3637C411.035 93.6212 410.949 93.9215 410.82 94.179L410.863 93.9215V94.0931C410.434 94.7367 409.748 94.5651 409.104 94.608L409.147 94.6509C408.933 94.6509 408.675 94.6509 408.461 94.6509L408.547 94.5651C408.547 94.7796 408.547 95.0371 408.547 95.2516L408.504 95.2087C408.247 96.3243 406.874 96.2384 406.445 97.2253C406.488 97.826 406.488 98.6841 407.26 98.8557C408.418 99.1132 409.619 99.0274 410.606 98.2121C410.906 97.9547 411.163 97.6115 411.292 97.2682C412.021 95.4661 413.308 94.0073 414.294 92.3769C415.152 90.961 416.31 90.06 417.597 89.1589C418.498 88.5583 419.441 88.6012 420.342 89.2447L420.471 89.3306L420.256 89.2877C420.514 89.1589 420.728 89.0302 420.986 88.9015C421.157 89.0731 421.371 89.2447 421.371 89.3306C420.985 91.3042 422.058 92.8918 422.787 94.5222L422.873 94.4793C422.658 94.6938 422.401 94.9513 422.186 95.1658L422.229 95.1229C421.2 95.6378 421.972 96.453 421.886 97.1824C421.157 97.5685 420.171 97.7402 419.913 98.727C419.742 98.8128 419.57 98.9415 419.398 99.0274C419.484 99.0274 419.613 99.1132 419.613 99.0703C419.699 98.9415 419.784 98.7699 419.827 98.6412C420.171 98.8128 420.471 98.9845 420.9 99.199C420.471 99.7139 420.128 100.186 419.785 100.572C419.313 101.087 419.227 101.602 419.227 102.331C419.227 103.189 419.098 104.305 418.112 104.948C417.64 105.292 417.425 106.021 417.168 106.407C417.769 107.308 418.198 108.038 418.669 108.767C418.498 108.81 418.026 108.681 418.412 109.153C418.498 109.024 418.541 108.853 418.626 108.724C418.884 108.81 419.184 108.896 419.398 109.024C419.999 109.368 420.428 109.282 420.642 108.553C420.685 108.424 420.9 108.338 421.028 108.252L420.943 108.209C420.771 108.767 420.685 109.368 420.385 109.84C420.128 110.355 419.656 110.741 419.356 111.17C420.299 112.929 420.385 112.972 419.484 114.345C418.884 115.203 418.927 116.361 418.026 117.134C417.597 117.52 418.326 118.721 418.97 118.593C420.042 118.378 420.9 118.55 421.758 119.15C421.758 119.751 421.758 120.352 421.758 121.038C421.457 121.038 421.157 121.124 420.9 121.038C419.956 120.695 419.012 120.352 418.283 121.467C418.412 121.768 418.584 122.111 418.798 122.583C417.811 122.969 416.868 123.355 415.967 123.741C416.139 124.9 416.825 125.5 417.468 126.101L417.425 126.058C417.468 126.702 417.468 127.345 417.597 127.989C417.683 128.461 417.297 128.418 417.082 128.547C415.667 129.619 415.452 131.164 415.324 132.752C415.281 133.481 416.482 134.21 417.082 133.738C418.541 132.58 420.342 132.408 422.015 131.893C423.044 131.25 423.001 129.405 424.846 129.448C424.932 131.207 424.331 132.58 422.701 133.395C423.302 134.94 425.618 133.824 425.918 135.669C424.674 136.098 423.516 136.184 422.358 135.369C421.929 135.069 421.2 134.897 420.857 135.755C421.286 136.27 421.672 136.785 422.144 137.257C422.401 137.557 422.744 137.986 423.044 137.943C425.318 137.857 426.604 139.917 428.62 140.389C429.135 140.518 429.307 141.419 428.878 141.59C427.934 141.934 427.591 142.62 427.376 143.564C427.248 144.165 426.733 144.722 426.347 145.409C428.706 146.782 430.979 147.812 433.596 147.897C434.068 147.897 434.625 147.855 435.011 147.597C436.341 146.61 437.842 145.924 439.386 145.28C439.901 145.066 440.373 144.68 440.759 144.25C442.088 142.92 443.246 142.877 444.447 144.165C445.048 144.808 445.648 145.409 446.42 146.224C446.335 146.782 446.206 147.554 446.077 148.498C446.463 148.713 446.978 148.97 447.536 149.313C450.667 145.666 453.755 142.105 456.843 138.501C457.701 139.402 458.43 140.131 459.245 140.947C460.275 140.131 461.175 139.402 461.99 138.758C462.333 138.844 462.591 138.801 462.677 138.93C463.363 139.617 463.963 140.389 464.65 141.033C465.379 141.719 466.494 141.033 467.395 141.762C467.952 142.234 469.067 141.976 470.097 142.062C470.354 143.006 470.097 143.95 470.011 144.894C469.925 145.752 469.582 146.61 469.539 147.511C469.496 149.142 469.239 150.643 467.824 151.716C466.58 154.934 463.92 157.122 461.947 159.783C461.561 160.297 461.261 160.684 461.304 161.327C461.39 162.958 461.047 164.459 459.803 165.661C459.674 165.789 459.588 166.004 459.503 166.176C458.73 167.634 459.074 168.664 460.575 169.265C461.047 169.436 461.518 169.479 462.033 169.608L461.99 169.522C461.862 169.78 461.561 170.123 461.647 170.295C462.162 171.539 462.033 172.783 461.433 173.856C462.462 175.229 463.363 176.473 464.349 177.76C465.679 177.76 467.009 177.631 468.467 178.704C468.553 178.919 468.51 179.519 467.909 180.077C467.309 180.592 466.794 181.193 466.237 181.75C465.465 182.48 465.164 183.381 465.079 184.496C465.593 184.84 466.108 185.226 466.666 185.612C466.237 186.384 465.979 186.899 465.722 187.414C465.936 188.272 467.523 189.645 468.295 189.602C468.553 189.602 468.939 189.516 469.11 189.302C470.14 187.843 471.469 188.229 472.842 188.573C473.871 188.83 474.901 189.216 475.887 189.516C476.488 189.13 477.088 188.744 477.603 188.444C478.804 188.744 479.276 189.559 479.705 190.375C479.705 191.361 478.847 191.404 478.375 191.876C477.174 193.035 476.059 194.279 474.257 194.494C473.828 194.537 473.442 195.008 473.056 195.352C472.241 196.081 471.427 196.768 470.697 197.583C470.14 198.226 469.711 198.956 469.368 199.428C469.325 200.629 471.298 200.243 470.311 201.487C470.697 201.616 470.869 201.745 471.04 201.702C472.327 201.53 473.4 201.144 474.515 200.372C476.488 198.999 478.547 197.712 481.12 197.325C483.779 196.939 486.01 195.395 488.197 193.85C489.012 193.249 489.827 192.949 490.857 192.734C491.929 192.477 493.173 192.52 494.159 191.748C494.803 191.233 495.618 191.233 496.433 191.49L496.39 191.447C496.304 191.748 496.089 192.177 496.175 192.262C497.419 193.635 498.02 195.523 499.864 196.639C501.022 196.596 502.309 196.553 502.952 195.137C503.553 193.764 503.21 192.949 501.537 191.319C502.223 190.804 502.909 190.632 503.638 191.147C504.11 191.49 504.582 191.833 505.054 192.22C505.526 192.606 505.955 192.992 506.341 193.292C506.341 194.279 506.384 195.051 506.341 195.867C506.298 196.811 506.555 197.626 507.027 198.398C507.284 198.827 507.627 199.213 507.799 199.642C508.571 201.444 509.257 203.161 509 205.263C508.657 208.224 508.185 211.055 507.241 213.93C506.341 216.719 505.998 219.68 505.311 222.554C504.968 223.884 504.453 225.172 503.896 226.416C502.824 229.033 501.623 231.65 500.55 234.268C499.521 236.842 498.191 239.245 496.947 241.69C495.275 245.08 492.701 247.783 490.685 250.915C489.313 253.061 487.897 255.206 486.653 257.394C485.195 260.011 483.308 262.328 481.292 264.431C479.362 266.447 477.946 268.764 476.574 271.167C476.445 271.424 476.316 271.725 476.273 271.982C475.759 274.428 475.759 274.428 474.472 276.187C474.601 276.53 474.686 276.873 474.858 277.26C475.287 278.161 475.158 278.976 474.515 279.748C473.7 280.735 473.014 281.808 472.542 283.009C472.241 283.781 472.027 284.382 472.456 285.24C472.842 285.97 472.628 286.785 472.07 287.471C471.341 288.372 470.654 289.359 469.797 290.174C467.952 291.934 466.108 293.736 463.663 294.68C463.406 294.808 463.148 295.066 462.891 295.109C461.004 295.323 459.803 296.653 458.43 297.812C457.058 298.97 455.599 299.957 454.227 301.073C452.254 302.66 450.109 304.076 448.522 306.135C446.463 306.822 445.477 308.839 443.804 310.04C442.26 311.155 440.973 312.657 439.601 314.073C437.456 316.261 435.397 318.492 433.21 320.638C431.322 322.483 429.178 324.07 427.72 326.301C427.119 327.202 425.918 327.331 425.532 328.575C425.275 329.519 424.288 330.292 423.559 331.107C422.873 331.922 422.101 332.694 421.371 333.51C420.985 333.939 420.599 334.411 420.128 334.754C418.069 336.298 416.739 338.53 414.766 340.203C414.68 340.246 414.595 340.332 414.552 340.417C411.721 345.18 407.003 348.055 403.057 351.745C400.569 354.105 397.781 356.164 395.122 358.395C394.521 359.682 392.891 359.725 392.162 361.055C391.562 362.171 390.103 362.815 389.031 363.673C387.959 364.531 387.015 365.56 385.9 366.333C384.87 367.019 384.184 367.963 383.627 368.993C382.468 371.095 380.796 372.726 378.951 374.27C376.549 376.287 374.233 378.432 371.745 380.192C371.917 381.908 371.316 383.324 370.158 384.268C367.499 386.456 365.097 388.944 362.438 391.09C362.223 391.261 361.966 391.433 361.709 391.605L361.623 391.476L361.752 391.562C359.049 393.621 356.347 395.724 353.645 397.783C351.457 399.456 349.27 401.087 347.082 402.717C346.182 402.674 346.31 403.747 345.667 403.962L345.71 404.047C345.495 403.661 345.238 403.575 344.981 404.047L345.024 403.962C345.024 404.219 345.024 404.476 345.067 404.691L344.981 404.648C341.893 407.094 338.804 409.539 335.759 411.985C331.984 414.988 328.51 418.335 324.307 420.781C323.32 421.339 322.634 422.411 321.733 423.184C321.004 423.827 320.232 424.428 319.417 424.986C318.345 425.715 317.144 426.23 316.157 427.002C313.455 429.19 310.581 431.035 307.708 432.966C305.005 434.768 302.475 436.785 299.815 438.63C298.057 439.874 296.213 441.032 294.325 442.105C293.382 442.62 292.266 442.792 291.323 443.221C290.808 443.435 290.122 443.864 289.993 444.293C289.693 445.538 288.621 445.623 287.806 446.095C286.176 447.039 285.918 446.868 285.232 444.68C285.833 443.993 286.433 443.264 287.077 442.534C288.106 441.376 289.264 440.603 290.98 440.861C291.494 440.947 292.224 440.775 292.652 440.475C294.583 438.973 296.427 437.343 298.314 435.755C298.4 435.712 298.443 435.583 298.529 435.412C298.443 434.725 298.4 433.996 298.314 433.181C298.1 433.181 297.757 433.052 297.542 433.138C294.325 434.768 291.065 436.442 287.849 438.115C285.704 439.23 283.388 440.046 281.243 441.161C279.57 442.019 277.941 442.92 276.268 443.736C275.581 444.079 274.809 444.208 274.08 444.422C273.994 444.079 273.994 443.864 273.952 443.693C273.866 443.307 273.866 442.792 273.608 442.62C273.265 442.363 272.708 442.191 272.236 442.191C271.807 442.234 271.335 442.534 270.906 442.749C268.933 443.693 266.917 444.465 264.515 443.736C264.344 444.336 264.129 444.894 263.958 445.538C260.912 446.911 257.824 448.327 254.65 449.657C254.05 449.914 253.32 450 252.634 449.957C251.862 449.871 251.133 449.442 250.404 449.399C249.76 449.356 249.117 449.7 248.216 449.957C248.517 449.313 248.602 448.927 248.86 448.67C249.46 448.026 249.632 447.297 249.246 446.482C248.988 445.924 248.774 445.237 249.203 444.808C250.275 443.693 250.061 442.491 249.76 441.247C249.675 440.861 249.546 440.518 249.46 440.131C249.503 440.131 249.589 440.089 249.632 440.089C249.546 440.131 249.503 440.131 249.417 440.174C248.602 439.145 247.23 439.488 246.157 438.973C245.814 438.801 245.214 439.102 244.785 439.316C243.713 439.788 242.683 440.389 241.611 440.818C241.096 441.032 240.496 441.075 239.895 441.118C239.08 441.118 238.995 440.99 238.351 439.488C239.509 438.329 240.582 436.999 239.724 435.154C238.952 433.524 238.137 431.893 235.263 432.237C236.335 431.293 237.064 430.778 237.622 430.134C238.566 429.062 238.008 427.646 236.55 427.603C235.091 427.56 233.547 427.517 232.218 428.289C231.145 428.89 230.116 429.705 228.829 430.606C228.529 430.563 227.843 430.478 227.199 430.392C227.071 430.134 226.942 429.963 226.942 429.834C227.199 428.332 227.499 426.831 227.843 425.2C226.084 424.642 225.183 423.398 224.797 421.81C224.711 421.381 224.754 420.695 225.012 420.438C226.041 419.494 225.87 418.335 225.87 417.22C225.355 416.705 224.926 416.233 224.454 415.761C224.497 415.761 224.583 415.718 224.626 415.718C224.583 415.761 224.497 415.804 224.454 415.804C220.765 416.748 217.12 417.949 213.688 419.708C212.659 420.223 211.629 420.824 210.557 421.339C210.128 420.995 210.214 420.652 210.6 420.395C211.243 419.966 211.973 419.622 212.616 419.193C213.731 418.507 214.675 417.649 214.76 416.061C214.374 415.546 213.903 414.903 213.431 414.216C213.602 413.701 213.645 413.015 213.988 412.629C214.846 411.813 214.889 410.998 214.503 409.968C214.374 409.625 214.503 409.196 214.503 408.81C215.318 408.209 216.133 407.651 216.862 407.008C217.548 406.407 217.935 405.678 217.977 404.691C217.977 403.79 217.548 403.232 216.862 402.589C215.704 403.018 214.46 403.447 213.903 404.691C213.302 406.064 212.316 406.708 210.986 406.75C209.227 406.879 208.37 407.866 207.984 409.411C207.254 409.668 206.611 409.968 205.968 410.097C205.153 410.269 204.595 410.698 203.952 411.213C203.051 411.942 202.064 412.586 201.035 413.101C197.99 414.645 194.944 416.233 191.985 418.035C191.213 418.507 190.569 419.15 189.797 419.536C189.025 419.923 188.468 420.695 187.438 420.609C187.138 420.566 186.666 420.824 186.495 421.124C185.079 423.184 182.763 423.913 180.79 425.2C177.83 427.131 174.828 428.933 171.868 430.907C170.968 431.507 170.281 432.365 169.509 433.095C168.952 433.61 168.394 434.21 167.794 434.682C167.322 435.026 166.807 435.24 167.022 436.055C167.065 436.27 166.421 436.828 165.992 436.956C164.491 437.471 163.033 438.029 161.489 438.286C159.902 438.544 158.486 439.016 157.114 439.874C156.17 440.475 155.226 441.376 153.897 441.032V441.118C153.94 440.646 154.025 440.174 154.111 439.531C151.709 438.758 149.436 437.857 146.905 439.402C146.348 438.973 145.747 438.544 145.104 438.072C144.246 437.943 143.56 438.329 142.959 438.844C142.445 439.273 141.801 439.402 141.329 438.973C140.6 438.415 139.871 438.501 139.099 438.801C137.984 439.316 136.869 439.488 135.71 439.359C134.981 438.544 134.81 437.686 135.153 436.828C135.796 435.24 135.453 433.738 134.853 432.28C134.424 431.293 134.509 430.478 134.853 429.448C135.539 427.517 135.239 426.916 133.652 425.629C133.051 425.114 132.408 424.986 131.721 425.071C130.949 425.2 130.22 425.5 129.491 425.801C129.019 425.972 128.633 426.316 128.204 426.53C125.845 427.603 125.373 426.959 124.473 425.586C124.258 425.243 124.001 424.943 123.786 424.642C121.385 423.913 119.111 423.999 116.967 425.329C116.581 425.586 116.023 425.758 115.594 425.715C113.964 425.629 112.463 426.058 111.005 426.616C108.989 427.388 107.187 427.302 105.472 425.844C104.828 425.286 104.013 424.9 103.07 424.814C102.04 424.728 101.869 424.085 102.34 423.141C102.984 421.939 103.627 420.695 104.313 419.536C104.828 418.635 104.957 417.82 104.485 416.748C104.142 415.975 104.271 415.031 104.142 414.13C103.927 412.371 102.984 411.427 101.225 411.47C99.6382 411.47 98.0941 411.685 96.5071 411.77C95.8208 411.813 95.1346 411.856 94.4912 411.728C93.0329 411.427 91.6174 411.127 90.1162 411.384C89.5157 411.513 88.6579 411.298 88.1861 410.912C86.5991 409.754 84.7118 409.067 83.3822 407.566C82.5672 406.665 81.6236 406.021 80.3368 405.978C79.9079 405.978 79.479 405.549 79.0501 405.335C78.1493 403.404 78.7927 401.645 79.7363 399.971C80.2081 399.113 80.68 398.298 81.1518 397.44C81.5807 396.582 82.3956 395.895 83.1248 395.252C84.0255 394.393 84.5402 393.407 84.8834 392.034C82.1812 391.948 79.5219 391.175 77.3773 393.321C76.7339 393.149 76.1763 393.02 75.5329 392.892C75.5329 392.205 75.49 391.605 75.5329 391.047C75.6187 389.802 75.9618 388.601 75.4471 387.314C74.9753 386.155 75.4042 385.083 76.0905 384.01C78.278 380.621 80.8944 377.531 82.9103 374.013C83.425 373.112 84.4545 372.511 85.2694 371.825C86.1272 371.095 85.9986 370.237 84.8834 369.851C84.24 369.637 83.5537 369.551 82.9532 369.422C80.4226 371.138 79.6077 374.485 76.6052 375.815C76.0476 375 75.49 374.228 74.8895 373.369C74.4606 373.627 74.0746 373.756 73.8172 374.013C72.2302 375.601 70.6432 377.231 69.0562 378.861C68.2413 379.72 67.8981 380.621 68.1984 381.822C68.3699 382.466 68.4128 383.195 68.327 383.839C68.2413 384.396 68.3699 384.782 68.6702 385.212C69.3136 386.027 68.7989 386.713 68.2842 387.314C67.8552 387.829 67.2119 387.915 66.6972 387.528C65.8393 386.885 65.1101 386.155 64.2094 385.34C64.5954 383.753 63.8234 382.122 64.4668 380.492C64.6383 380.02 64.4668 379.248 64.1665 378.819C63.0942 377.36 63.3087 375.858 63.9092 374.313C63.9521 374.228 63.9092 374.099 63.9092 373.841C62.7511 373.069 62.9226 371.567 62.3222 370.237C61.979 370.109 61.593 370.023 61.2499 369.894C58.6334 369.165 58.6334 369.165 56.5746 370.709C56.0599 370.023 56.5746 369.551 56.9607 369.165C58.0758 368.049 59.1053 366.891 60.2204 365.732C62.3222 363.544 64.6812 361.57 66.9116 359.468C69.4422 357.108 71.8871 354.705 74.3748 352.303C74.5893 352.088 74.7608 351.53 74.6322 351.316C74.5035 351.058 73.9888 350.844 73.6457 350.887C72.7878 350.93 71.8871 351.101 71.0292 351.23C70.4716 351.316 69.8712 351.444 69.3136 351.53C69.0562 351.23 68.8846 351.015 68.7131 350.801C68.327 350.372 68.0268 349.728 67.555 349.557C66.7829 349.256 65.968 349.599 65.3675 350.157C64.5954 350.887 63.9092 351.745 63.18 352.56C62.5795 353.204 62.0648 353.976 61.4214 354.534C60.1776 355.649 58.7192 356.55 57.604 357.794C56.5317 359.039 55.8455 360.583 54.9018 361.956C54.43 362.686 53.9153 363.458 52.9288 363.673C51.7707 363.458 51.2989 362.557 51.2131 361.57C51.1702 360.755 51.6849 360.154 52.3712 359.639C53.3148 358.953 54.1298 358.052 54.9018 357.151C56.0599 355.821 57.0893 354.362 58.7192 353.504C59.191 353.246 59.5342 352.646 59.9202 352.26C60.3491 351.873 60.6923 351.273 61.207 351.144C62.794 350.629 63.4802 349.256 64.2952 348.098C64.9815 347.154 64.9815 345.995 64.4668 345.008C63.9949 344.065 63.2229 343.249 62.5366 342.391C61.8075 341.49 60.6923 341.361 59.6629 341.319C58.8908 340.031 58.6334 338.873 59.2339 337.586C59.8773 336.127 60.4349 334.668 62.1506 334.067C62.9655 333.767 63.6518 333.123 64.3381 332.609C65.8393 331.493 67.4263 330.506 69.3565 330.249C69.8283 330.163 70.3001 329.991 70.729 329.777C73.7743 328.189 76.7339 326.43 79.6077 324.585C81.1947 323.598 82.6959 322.483 84.3258 321.625C88.1432 319.565 91.5316 316.862 95.1775 314.502C97.1076 313.258 98.7804 311.756 100.067 309.825C100.325 309.439 100.453 308.924 100.668 308.281C98.3515 307.895 96.2927 307.766 94.5341 309.482C93.4618 310.555 92.3466 311.499 90.6309 311.113L90.6738 311.155C91.3172 310.598 91.9177 309.997 92.6039 309.439C93.8907 308.367 95.2204 307.38 96.4642 306.264C98.4373 304.505 100.239 302.531 102.298 300.858C104.013 299.442 105.257 297.726 106.458 295.924C107.359 294.637 108.26 293.349 109.461 292.277C110.275 291.547 110.275 291.504 110.661 289.788C110.147 289.188 109.589 289.445 109.074 289.745C105.986 291.504 103.198 293.693 100.625 296.095C99.4238 297.211 97.9654 298.155 97.1934 299.742C96.9789 300.214 96.3356 300.515 95.8208 300.772C94.1909 301.716 92.6897 302.789 91.3172 304.076C89.3442 305.878 87.2424 307.508 84.7976 308.581C84.3258 308.195 84.6689 307.852 84.9263 307.637C86.6848 305.878 88.4005 304.162 90.202 302.446C90.7167 301.974 91.2743 301.544 91.8319 301.158C93.8049 299.657 95.778 298.241 96.6358 295.752C96.8503 295.151 97.4079 294.68 97.7081 294.079C97.8797 293.693 97.8797 293.178 97.9226 292.749C97.3221 292.062 96.7645 292.448 96.3355 292.792C95.1346 293.778 93.8907 294.808 92.8184 295.924C91.789 296.996 90.6309 297.855 89.3441 298.627C88.4005 299.185 87.6285 299.914 86.6848 300.515C86.2988 300.772 85.827 300.815 85.0549 301.03C85.5268 299.528 86.5991 298.927 87.2424 298.026C87.9287 297.082 88.8294 296.31 88.8294 295.109C88.4005 294.551 88.0145 294.808 87.7143 295.023C87.0709 295.452 86.4704 296.01 85.8699 296.482C84.5831 297.554 83.3393 298.67 81.7951 299.356C81.0231 299.7 80.3368 300.343 79.6934 300.944C78.1922 302.231 76.7768 303.604 75.1898 304.805C72.3589 306.951 69.8712 309.482 67.1261 311.713C66.5256 312.228 66.0538 312.915 65.153 312.958C64.8099 312.958 64.2523 312.958 64.0807 312.743C63.8234 312.4 63.6947 311.842 63.7805 311.413C63.8663 310.984 64.2094 310.469 64.5525 310.169C67.2119 308.109 68.9704 305.192 71.2866 302.789C72.1444 301.888 73.0452 300.987 73.6028 299.785C74.0317 298.927 74.8037 298.198 75.49 297.511C76.5194 296.482 77.5917 295.409 78.7498 294.508C79.9079 293.564 80.3368 292.32 80.5513 290.861C79.9508 290.475 79.3932 290.089 78.9214 289.788C78.5782 289.917 78.3638 289.917 78.1922 290.003C74.3319 293.221 70.4716 296.482 66.6114 299.7C66.2253 300 65.8393 300.3 65.4104 300.558C64.1665 301.33 63.8234 301.244 62.3222 299.657C64.6812 296.996 67.2119 294.379 68.1126 290.518C67.7266 290.518 67.3834 290.432 67.0832 290.518C64.6383 291.247 62.8798 293.006 60.8638 294.422C59.7486 295.194 58.5906 295.967 57.4325 296.696L57.4754 296.739C57.6898 295.323 58.9766 294.765 59.8344 293.864C61.7217 291.848 63.6518 289.917 64.8957 287.428C65.3246 286.57 65.968 285.798 66.6543 285.154C68.0697 283.824 69.0991 282.408 68.8846 280.306C68.7989 279.448 69.0133 278.59 69.0991 277.732C67.8552 276.015 66.1824 276.058 64.5954 276.745C62.9655 277.431 61.2928 277.946 59.5342 278.161C58.6763 278.289 57.8185 278.633 57.0464 279.062C55.5881 279.877 54.2156 279.748 52.9288 278.718C52.1567 278.118 51.4276 277.474 50.6984 276.831C49.8835 276.101 49.1114 275.372 48.2536 274.514C47.5673 274.814 46.9239 275.029 46.4092 275.415C45.3369 276.187 44.2646 276.316 43.1065 275.801V275.887C43.321 275.114 43.5354 274.385 43.8357 273.484C42.8921 272.325 42.12 271.038 42.2487 269.322C42.2916 268.635 41.6482 267.906 41.3908 267.177C40.919 265.932 40.8332 264.731 41.8627 263.615C42.4202 262.972 42.7634 262.114 43.0636 261.299C43.4497 260.269 42.7205 259.196 41.6482 259.239C40.8761 259.282 40.1041 259.539 39.4178 259.883C38.2597 260.44 37.1445 261.084 36.0722 261.813C34.8712 262.629 33.5845 262.886 32.169 263.015C30.8823 263.101 29.7671 263.058 29.0808 261.899C28.5232 260.955 27.408 261.427 26.636 260.784C26.9362 259.496 27.4938 258.295 28.4374 257.308C29.5097 256.15 30.4105 254.863 30.3247 252.932C29.5526 252.417 28.6948 251.816 27.8798 251.258C25.9926 251.001 25.2205 252.76 23.3333 253.49C24.0624 252.46 24.5343 251.773 25.0919 251.001C25.0919 250.915 25.1776 250.744 25.1348 250.572C24.7058 248.341 24.3198 248.041 22.3039 248.126C21.9178 248.126 21.5318 248.126 21.1029 248.212C20.5024 248.298 19.9448 248.384 19.3014 248.512C18.6581 247.869 18.3578 247.139 18.5294 246.153C18.6581 245.38 18.9154 244.522 18.658 243.879C18.272 242.806 18.4007 242.077 19.2585 241.304C19.5588 241.047 19.5159 240.403 19.6446 239.931C19.9877 238.73 20.4166 237.743 21.7034 237.014C23.2904 236.113 24.5772 234.654 25.9497 233.41C26.0355 233.452 26.0784 233.495 26.1642 233.538C26.0784 233.495 25.9926 233.495 25.9068 233.452C27.3222 232.766 28.6519 232.036 29.7671 230.878C30.8823 229.72 32.3406 228.904 33.5845 227.875C34.4423 227.145 35.3002 226.373 35.5575 225.043C35.772 223.884 37.0587 223.241 38.0453 222.726C38.6457 222.426 39.2033 222.125 39.718 221.696C40.4901 221.095 41.2193 220.452 42.3345 220.452C42.5918 220.452 42.8921 220.28 43.1494 220.151C45.5085 218.736 47.8675 217.363 50.1837 215.904C50.7842 215.518 51.256 215.089 51.9852 215.046C52.2425 215.046 52.5428 214.874 52.8001 214.702C56.4031 211.828 60.6065 209.811 64.1236 206.851C64.5954 206.464 64.9815 205.992 65.5391 205.778C66.7829 205.263 67.6408 204.362 68.327 203.246C69.0562 202.045 70.1285 201.273 71.5439 200.844C72.6162 200.543 73.5599 199.857 74.4606 198.999C75.876 197.54 77.6775 196.424 79.3503 195.18C80.4226 194.365 81.1947 193.464 81.2804 192.134C80.7657 191.576 80.2939 191.79 79.865 192.005C78.1493 192.992 76.4336 193.936 74.7608 195.008C73.3883 195.91 71.8442 196.553 70.6003 197.754C70.0427 198.312 68.9704 198.698 68.1984 198.613C66.9545 198.484 66.0967 198.956 65.1959 199.557C64.5525 199.986 63.8663 200.458 63.18 200.758C62.7511 200.93 62.1935 201.015 61.7646 200.93C60.778 200.715 60.1347 201.144 59.9202 201.916C59.4055 203.59 57.9043 203.976 56.6604 204.705C54.6016 203.933 53.3577 206.121 51.5134 206.164C51.256 206.164 50.9558 206.379 50.7413 206.593C47.4815 209.639 43.5783 211.785 40.0612 214.488C39.6752 214.788 39.2033 215.046 38.7315 215.046C35.3002 215.089 32.8982 217.148 30.4963 219.165C30.196 219.422 29.8958 219.765 29.5526 219.808C27.9227 220.066 26.6789 221.053 25.3921 221.954C23.462 223.284 21.5318 224.7 19.5159 225.944C18.1433 226.802 16.8995 227.66 16.0845 229.119C15.913 229.419 15.4411 229.548 14.9693 229.848C14.6262 229.333 14.3688 228.861 14.0257 228.432C13.2537 227.403 12.4387 226.287 10.8946 226.115C9.7794 225.987 9.56494 225.086 10.2512 224.228C12.7818 220.881 13.2108 220.495 16.9853 217.877C19.2156 216.247 21.446 214.702 23.7622 213.286C25.0919 212.471 26.5073 211.742 27.7941 210.884C28.1801 210.626 28.6948 210.54 29.1666 210.369C29.7242 210.154 30.4105 210.111 30.7536 209.725C32.2119 208.138 34.2279 207.537 36.0722 206.636C36.7585 206.293 37.4448 205.864 38.0453 205.392C39.5036 204.233 41.0477 203.204 42.8063 202.474C43.8786 202.002 44.8651 201.316 45.8516 200.715C46.1947 200.5 46.4521 200.114 46.7952 200.028C49.8406 199.514 51.7278 196.939 54.3871 195.781C55.7168 195.18 56.7891 194.065 57.9901 193.249C60.2633 191.705 62.4508 190.031 64.8528 188.744C67.9839 187.071 70.7719 184.926 73.7743 183.081C74.3748 182.737 74.8895 182.265 75.4042 181.836C77.8062 179.82 80.251 177.846 83.0819 176.387C84.4974 175.658 85.3981 174.285 85.7841 172.697C85.8699 172.311 85.7412 171.667 85.441 171.367C85.012 170.852 84.4116 170.509 83.9826 170.166C78.278 173.384 72.702 176.516 67.1261 179.648C66.4398 180.034 65.7106 180.42 65.1101 180.849C63.18 182.222 61.1212 183.424 59.0624 184.539C57.0035 185.655 55.0734 187.071 53.1004 188.358C52.5428 188.744 51.9423 189.087 51.2989 189.388C47.1384 191.447 43.0207 193.507 39.1605 196.124C37.5306 197.24 35.7291 198.055 34.0563 199.085C32.0404 200.329 30.1102 201.659 28.1372 202.989C26.1213 204.362 24.0624 205.735 22.0465 207.151C20.8455 207.966 19.6875 208.867 18.4865 209.725C16.8137 207.795 16.2132 207.451 14.2831 207.494C13.6397 207.494 12.7818 207.623 12.3529 208.009C10.5086 209.554 8.19239 210.24 6.30514 211.613C5.23284 212.385 4.375 213.201 3.77451 214.445C3.3027 215.389 2.57353 216.204 1.97304 217.062C-0.257343 215.947 -0.643372 214.445 0.814958 212.857C1.20099 212.428 1.75858 212.085 2.01594 211.57C2.35907 210.884 2.87378 210.54 3.56005 210.369C4.67524 210.111 5.49019 209.468 6.30514 208.738C7.0772 208.052 7.76347 207.237 8.92155 206.936C9.65072 206.722 10.2083 205.778 10.8088 205.134C11.4093 204.491 11.924 203.761 12.9105 203.633C13.2537 203.59 13.6826 203.375 13.897 203.075C14.8407 201.831 16.2132 201.273 17.5429 200.629C19.6446 199.599 21.5747 198.226 23.2475 196.639C24.2769 195.652 25.049 194.279 25.7352 192.992C25.9497 192.563 26.0784 192.177 26.5073 191.919C28.2659 190.718 30.2818 190.332 32.2977 189.946C33.0698 189.817 33.8418 189.731 34.571 189.431C36.0293 188.83 37.6163 188.358 38.8173 187.414C40.6617 185.912 42.8492 185.054 44.8651 183.853C46.1519 183.123 47.4815 182.437 48.5538 181.493C49.7119 180.506 51.0844 179.991 52.4141 179.348C53.7866 178.704 54.9447 177.803 55.7168 176.516C56.017 176.044 56.0599 175.443 56.2315 174.8C53.8295 174.328 52.1567 175.615 50.3982 176.559C49.7977 176.902 49.283 177.331 48.5109 177.202C48.5109 177.16 48.468 177.074 48.468 177.031C48.5109 177.117 48.5538 177.16 48.5538 177.245C48.2536 177.803 47.7818 177.846 47.2671 177.76L47.3528 177.846C47.3099 177.074 47.2671 176.301 47.2671 175.744C48.6396 174.8 49.8835 174.07 50.9558 173.083C51.9423 172.225 53.4435 172.611 54.2585 171.496C56.017 170.938 57.0035 169.308 58.5048 168.492C60.0489 167.677 61.8075 167.334 63.3516 166.562C64.7241 165.832 65.9251 164.803 67.2119 163.901C67.6837 163.558 68.1555 163.086 68.6702 162.958C70.4288 162.528 71.2437 161.327 71.7155 159.568C71.4153 159.096 71.115 158.495 70.729 157.895C71.1579 156.822 72.0587 156.05 73.0452 155.406C73.517 155.106 73.9888 154.72 74.4606 154.376C75.3185 153.733 75.4042 152.96 75.0182 152.059C72.0158 151.373 71.93 151.158 70.0856 154.162C69.3136 154.419 68.4128 154.805 67.4692 155.192ZM95.3919 358.095L95.5206 358.052L95.4777 358.181C95.4348 358.224 95.349 358.224 95.3061 358.266C95.349 358.181 95.349 358.138 95.3919 358.095ZM103.713 137.343C103.756 137.257 103.799 137.214 103.842 137.128C103.799 137.214 103.799 137.3 103.713 137.343C103.67 137.385 103.627 137.428 103.541 137.428C103.627 137.385 103.67 137.385 103.713 137.343ZM459.031 181.922C458.988 182.051 458.945 182.222 458.902 182.351C458.945 182.18 458.945 182.008 458.988 181.836C459.159 181.793 459.288 181.793 459.46 181.75C459.417 181.665 459.331 181.536 459.288 181.45C459.202 181.622 459.117 181.793 459.031 181.922ZM375.305 34.0674C374.619 34.0674 373.933 33.9816 373.29 34.0674C372.989 34.1103 372.646 34.4965 372.56 34.7968C372.432 35.3117 372.946 35.3975 373.29 35.3975C374.19 35.3975 375.005 35.0972 375.477 34.239C375.606 34.0674 375.691 33.9387 375.82 33.7671C375.649 33.8529 375.477 33.9387 375.305 34.0674ZM67.4692 375.944C67.8552 375.686 68.327 375.515 68.6702 375.172C70.2143 373.627 71.6726 372.039 73.2167 370.538C75.4042 368.435 77.2486 365.947 80.0795 364.531C81.1089 364.016 81.838 362.986 82.4385 361.913C82.7388 361.356 83.2535 360.841 83.7253 360.369C85.9557 358.395 88.1861 356.507 90.4165 354.534C90.8025 354.19 90.974 353.59 91.403 352.817C90.7596 352.817 90.3307 352.689 90.0733 352.86C89.6015 353.161 89.0868 353.59 88.8723 354.062C88.5292 354.877 88.0145 355.349 87.2853 355.735C86.5991 356.121 85.9128 356.507 85.2694 356.979C83.9826 357.88 82.7388 358.867 81.4949 359.811C81.1947 361.527 79.6506 361.913 78.4496 362.643C78.1064 362.857 77.8062 363.072 77.5059 363.329C74.3748 366.204 71.5439 369.336 68.7131 372.554C68.1984 373.155 67.7266 373.798 67.4263 374.528C67.2547 374.914 67.4692 375.429 67.4692 375.901C67.3834 375.901 67.2976 375.944 67.2547 375.944C67.2119 375.944 67.2119 376.03 67.2119 376.073C67.3405 376.115 67.4263 376.03 67.4692 375.944ZM219.865 409.84C219.865 409.883 219.908 409.968 219.908 410.011C219.865 409.968 219.822 409.883 219.822 409.84C220.594 409.454 221.366 409.024 222.181 408.767C222.824 408.595 223.425 408.424 224.068 408.038C227.242 406.064 230.673 404.605 234.148 403.232C234.577 403.061 235.048 402.846 235.434 402.589C236.378 401.859 237.279 401.13 238.18 400.357C239.037 399.628 239.037 399.413 238.308 397.74C237.751 397.783 237.193 397.783 236.593 397.912C236.207 397.998 235.692 398.126 235.563 398.341C234.963 399.8 233.504 400.143 232.389 400.744C229.044 402.546 225.569 404.176 222.181 405.892C221.495 406.236 220.808 406.665 220.122 407.094C219.736 407.351 219.35 407.694 219.007 408.038C218.621 408.467 218.749 408.939 219.178 409.325C219.393 409.496 219.65 409.668 219.865 409.84ZM211.715 85.0399L211.758 85.2116L211.672 85.1258C212.745 84.2676 213.817 83.4524 214.889 82.5514C215.275 82.251 215.575 81.7791 216.004 81.6075C218.449 80.6206 220.165 78.6898 222.052 76.9736C222.696 76.3729 223.339 75.6864 224.154 75.386C226.813 74.3992 228.658 72.2539 230.888 70.7093C232.26 69.7653 233.376 68.4782 234.534 67.2768C234.748 67.0623 234.791 66.5045 234.705 66.1612C234.577 65.5605 233.976 65.4318 233.547 65.5605C232.046 66.0325 230.673 66.6332 229.472 67.7488C228.4 68.7356 227.199 69.6366 225.998 70.4518C224.797 71.2242 224.068 72.6401 222.524 73.0691C221.923 73.2407 221.323 73.8414 220.98 74.3992C220.251 75.6006 219.135 76.1155 217.935 76.5874C217.205 76.8878 216.433 77.1881 215.876 77.703C214.374 78.9473 212.959 80.3632 211.501 81.6504C211.072 82.0365 210.6 82.4227 210.085 82.6801C207.726 84.0531 205.324 85.3832 202.922 86.7562C201.207 87.743 199.491 88.7299 197.861 89.8025C196.531 90.6607 195.073 91.433 194.129 92.6343C193.014 94.0073 191.556 94.7796 190.269 95.8094C188.125 97.5256 185.851 99.1132 183.621 100.744C182.12 101.816 180.576 102.889 178.989 103.833C178.216 104.305 177.487 104.691 177.144 105.635C176.93 106.236 176.286 106.321 175.772 106.579C173.198 107.909 170.281 108.724 168.308 111.127C168.051 111.427 167.708 111.642 167.408 111.856C165.306 113.315 163.204 114.731 161.103 116.19C160.545 116.576 160.116 117.091 159.644 117.563C159.944 118.164 160.33 118.378 160.888 118.249C162.904 117.734 164.705 116.833 166.464 115.675C169.381 113.701 172.169 111.642 175.428 110.14C177.788 109.024 180.018 107.437 181.734 105.335C183.149 103.618 184.908 102.803 186.966 102.331C187.781 102.16 188.768 101.859 189.326 101.258C189.969 100.572 190.698 100.229 191.47 99.8426C193.143 98.9845 194.944 98.2979 196.36 97.0966C197.818 95.8523 199.148 94.4793 200.649 93.235C202.493 91.7333 204.466 90.489 206.311 89.0302C207.941 87.5714 209.871 86.37 211.715 85.0399ZM75.0611 156.178C75.3613 157.294 76.0476 157.594 76.7339 157.508C79.0929 157.122 81.4091 156.479 83.039 154.634C84.1113 153.432 85.3552 152.703 86.7706 152.531C88.7437 152.317 89.9017 151.073 91.1456 149.914C91.403 149.657 91.5745 149.228 91.6603 148.884C91.7461 148.627 91.7032 148.198 91.5745 148.069C91.3172 147.897 90.8025 147.683 90.5451 147.812C87.9716 149.056 85.4839 150.343 82.9103 151.63C82.4814 151.845 82.0525 152.059 81.5807 152.231C79.1787 153.046 77.077 154.505 75.0611 156.178ZM91.7461 165.446C93.1186 166.647 93.1615 166.605 93.762 166.647C96.936 166.776 99.5953 165.274 102.255 163.816C102.812 163.515 103.198 162.829 103.584 162.271C103.842 161.842 103.842 161.327 103.37 160.941C103.07 160.684 102.769 160.469 102.298 160.169C100.582 160.812 98.8233 161.327 97.1934 162.142C95.3919 163.043 93.7191 164.202 91.7461 165.446ZM218.835 401.001C220.251 403.018 220.208 402.975 222.095 402.417C223.425 402.031 224.669 401.473 225.827 400.744C227.242 399.843 228.7 399.027 230.116 398.169C230.931 397.697 231.274 396.925 230.974 396.238C230.716 395.638 229.73 395.337 228.872 395.681C228.615 395.766 228.357 395.981 228.1 396.11C227.156 396.625 226.17 397.097 225.269 397.697C223.939 398.598 222.61 399.371 220.937 398.942C220.208 399.671 219.522 400.357 218.835 401.001ZM95.6922 145.409C96.164 145.709 96.4642 146.01 96.7645 146.095C98.3944 146.482 99.8527 145.881 101.225 145.109C101.826 144.765 102.383 144.122 102.984 144.079C104.271 143.993 105.128 143.178 106.201 142.706C106.372 142.62 106.458 142.405 106.544 142.32C106.544 141.719 106.544 141.161 106.544 140.432C105.943 140.432 105.429 140.303 105.043 140.475C103.413 141.161 101.826 141.891 100.239 142.62C99.1664 143.092 98.0941 143.564 97.0647 144.122C96.5929 144.422 96.2498 144.894 95.6922 145.409ZM84.2829 388.129C85.1407 388.901 85.9986 389.631 86.7277 390.274C88.4005 389.802 89.0868 388.687 89.3013 387.228C89.4728 386.198 89.1726 385.426 88.2718 385.083C87.4569 384.782 86.642 384.311 85.5268 384.782C85.1407 385.812 84.7118 386.971 84.2829 388.129ZM99.6382 358.138C97.8797 358.824 96.6787 359.082 95.778 360.111C95.0488 360.884 94.1909 361.656 93.0329 361.699C90.8883 361.742 89.387 363.029 87.9287 364.359C87.7571 364.531 87.8 364.831 87.7143 365.174C88.1003 365.217 88.4434 365.346 88.6579 365.26C90.1591 364.531 91.6603 363.801 93.1186 363.029C93.9765 362.557 94.7485 361.871 95.6493 361.613C96.9789 361.227 97.9226 360.326 98.9949 359.597C99.2093 359.425 99.2522 359.082 99.6382 358.138ZM224.583 69.2076C222.696 68.9501 221.452 68.993 220.422 69.8083C219.607 70.4948 218.964 71.3529 219.35 72.7688C219.908 72.7259 220.594 72.8117 220.937 72.5542C222.052 71.6532 223.082 70.6235 224.583 69.2076ZM351.543 41.2327C350.128 40.8466 349.098 41.2756 348.241 42.1338C348.026 42.3483 348.069 42.8632 348.069 43.2493C348.069 43.7213 348.369 43.9787 348.841 43.85C350.128 43.5068 350.943 42.6486 351.543 41.2327ZM360.465 43.378C360.422 42.9061 359.478 42.3912 359.049 42.6915C358.578 42.9919 358.149 43.421 357.805 43.85C357.419 44.322 357.805 45.0085 358.406 45.1801C359.478 45.4375 360.593 44.4936 360.465 43.378ZM117.052 134.039C115.766 133.738 114.865 134.682 113.793 134.94C113.235 135.069 112.463 135.326 112.677 135.97C112.978 136.828 113.578 135.97 114.05 135.97C115.423 135.97 116.323 135.24 117.052 134.039ZM389.46 151.587C388.559 151.931 388.001 152.059 387.573 152.36C387.358 152.488 387.358 153.046 387.444 153.347C387.487 153.518 387.916 153.647 388.173 153.647C389.16 153.647 389.16 152.746 389.46 151.587ZM491.157 195.137C491.672 195.609 491.929 195.995 492.315 196.124C492.572 196.21 493.087 195.995 493.259 195.781C493.43 195.523 493.344 195.051 493.216 194.751C493.13 194.579 492.744 194.408 492.529 194.451C492.143 194.536 491.757 194.794 491.157 195.137ZM95.778 141.976C94.8343 142.019 93.8478 142.062 93.3331 143.178C94.8772 142.963 94.8772 142.963 95.778 141.976ZM111.434 138.887C110.361 138.115 109.804 138.372 109.375 139.016C109.246 139.188 109.203 139.617 109.332 139.745C109.461 139.917 109.889 140.131 110.061 140.046C110.533 139.745 110.919 139.359 111.434 138.887ZM159.258 105.849C159.13 105.635 159.087 105.377 159.001 105.377C158.829 105.335 158.615 105.42 158.529 105.549C158.443 105.635 158.529 105.849 158.572 105.978C158.786 105.935 159.044 105.892 159.258 105.849ZM227.071 414.345C226.899 414.559 226.727 414.731 226.599 414.946C226.685 414.988 226.77 415.117 226.856 415.074C227.071 414.988 227.285 414.86 227.499 414.731C227.371 414.645 227.285 414.559 227.071 414.345ZM387.744 20.6378C387.53 20.7665 387.315 20.8523 387.315 20.9381C387.315 21.1097 387.358 21.3243 387.487 21.4101C387.573 21.4959 387.787 21.3672 387.959 21.3243C387.873 21.1097 387.787 20.8952 387.744 20.6378ZM356.862 44.751C356.733 44.8369 356.605 44.9227 356.476 45.0514C356.433 45.0943 356.476 45.3088 356.519 45.3088C356.647 45.3088 356.819 45.3088 356.948 45.2659C356.948 45.1372 356.905 44.9656 356.862 44.751ZM98.6946 140.303H98.523L98.6088 140.518L98.6946 140.303ZM91.6603 292.534C91.4888 292.491 91.3172 292.405 91.1456 292.363C91.1027 292.363 91.0169 292.491 90.9312 292.534C91.0598 292.62 91.1885 292.792 91.3172 292.792C91.403 292.835 91.5316 292.663 91.6603 292.534ZM418.369 110.612L418.455 110.784L418.541 110.612H418.369Z" fill="url(#paint0_linear_6_859)"/>
<path d="M19.6448 181.793C17.9291 183.124 16.4708 184.153 14.6265 184.539C13.8973 184.668 13.211 185.226 12.5247 185.612C10.2944 186.856 8.10687 188.186 5.83359 189.388C5.14732 189.774 4.41815 190.503 3.43163 190.074C3.43163 189.86 3.30296 189.602 3.38874 189.559C5.91937 187.5 8.40711 185.483 11.1522 183.338C12.0529 183.467 13.1252 183.553 14.2833 182.995C15.8703 182.223 17.6289 182.051 19.6448 181.793Z" fill="url(#paint1_linear_6_859)"/>
<path d="M390.661 1.75915C391.133 1.71625 391.433 1.71625 391.69 1.67334C392.934 3.08924 392.034 5.27746 393.578 6.56464C392.934 8.19508 392.634 9.99714 391.304 11.4559C391.047 11.1556 390.747 10.9411 390.747 10.7694C391.476 7.85183 390.79 4.93421 390.661 1.75915Z" fill="url(#paint2_linear_6_859)"/>
<path d="M371.145 7.76611C373.247 7.93774 374.791 8.06646 376.249 8.15227C377.064 8.88167 377.021 9.56817 376.292 10.3834C375.177 10.3834 373.933 10.3834 372.389 10.3834C372.089 9.7398 371.703 8.92458 371.145 7.76611Z" fill="url(#paint3_linear_6_859)"/>
<path d="M426.004 97.6545C426.09 99.3708 425.789 100.486 425.232 101.774C424.202 100.958 423.302 100.272 422.444 99.5853C423.001 97.7833 424.674 98.6414 426.004 97.6545Z" fill="url(#paint4_linear_6_859)"/>
<path d="M70.1716 390.103C70.043 390.017 70.0001 389.76 69.9143 389.588C69.6998 389.03 69.5283 388.387 70.1716 388.043C70.429 387.915 70.9437 387.915 71.2011 388.086C71.9731 388.601 72.016 389.116 71.63 389.845C71.2868 390.575 70.7292 390.36 70.1716 390.103Z" fill="url(#paint5_linear_6_859)"/>
<path d="M364.968 11.5415C365.655 12.0993 366.127 12.4854 366.942 13.1719C365.655 13.1719 364.84 13.1719 363.982 13.1719C363.553 12.0564 364.668 12.228 364.968 11.5415Z" fill="url(#paint6_linear_6_859)"/>
<path d="M77.6774 398.813C77.9777 399.628 78.1492 400.057 78.2779 400.443C77.849 401.044 77.2914 401.387 76.8196 400.829C76.262 400.143 76.9054 399.671 77.6774 398.813Z" fill="url(#paint7_linear_6_859)"/>
<path d="M147.549 111.299C148.235 110.484 149.179 110.055 150.036 109.668C150.208 109.797 150.38 109.883 150.38 109.926C150.208 110.398 150.036 110.913 149.822 111.428C148.964 111.342 148.235 111.299 147.463 111.213L147.549 111.299Z" fill="url(#paint8_linear_6_859)"/>
<path d="M234.663 58.4382C234.32 59.5967 233.333 59.8541 231.918 60.4977C232.861 59.0818 233.805 58.8244 234.748 58.4811L234.663 58.4382Z" fill="url(#paint9_linear_6_859)"/>
<path d="M154.154 108.252C153.554 108.51 152.91 108.81 152.01 108.681C152.653 108.08 153.125 107.651 153.811 107.008C153.94 107.608 154.026 107.952 154.111 108.295L154.154 108.252Z" fill="url(#paint10_linear_6_859)"/>
<path d="M429.221 136.27C430.122 136.141 430.551 136.485 430.508 137.343C430.508 137.514 430.336 137.772 430.25 137.772C430.036 137.729 429.736 137.643 429.65 137.471C429.478 137.128 429.393 136.699 429.221 136.27Z" fill="url(#paint11_linear_6_859)"/>
<path d="M147.334 446.396C147.034 446.825 146.734 447.254 146.176 446.825C146.09 446.739 146.005 446.353 146.09 446.31C146.519 445.924 146.948 445.924 147.334 446.396Z" fill="url(#paint12_linear_6_859)"/>
<path d="M423.259 103.49C423.388 104.305 423.173 105.034 422.573 105.635C421.886 104.777 422.959 104.262 422.959 103.576H422.873C423.002 103.704 423.173 103.704 423.302 103.533L423.259 103.49Z" fill="url(#paint13_linear_6_859)"/>
<path d="M462.719 168.879C462.805 168.364 462.591 167.72 463.32 167.377C463.363 168.021 462.934 168.364 462.677 168.836L462.719 168.879Z" fill="url(#paint14_linear_6_859)"/>
<path d="M58.2048 379.72C58.5479 379.763 58.8052 379.72 59.0197 379.806C59.1484 379.848 59.1484 380.149 59.2342 380.278C59.0197 380.278 58.8052 380.32 58.5908 380.235C58.4621 380.192 58.3763 379.977 58.2048 379.72Z" fill="url(#paint15_linear_6_859)"/>
<path d="M422.83 94.6513C422.873 94.7371 422.959 94.78 423.002 94.8658C423.045 95.1233 423.216 95.5094 423.13 95.5523C422.744 95.8098 422.444 95.681 422.272 95.252L422.23 95.2949C422.444 95.0804 422.701 94.8229 422.916 94.6084L422.83 94.6513Z" fill="url(#paint16_linear_6_859)"/>
<path d="M45.1654 179.605C44.9938 178.833 45.4227 178.49 46.0661 178.318L45.9803 178.232C46.0661 178.962 45.3369 179.133 45.0796 179.605H45.1654Z" fill="url(#paint17_linear_6_859)"/>
<path d="M204.595 75.0859C204.552 75.6008 204.81 76.3302 203.866 76.2015L203.909 76.2873C204.166 75.9012 204.381 75.4721 204.638 75.0859H204.595Z" fill="url(#paint18_linear_6_859)"/>
<path d="M46.066 178.318C46.4949 178.147 46.9667 177.932 47.3956 177.76L47.3098 177.675C47.0096 178.232 46.5378 178.318 45.9802 178.232L46.066 178.318Z" fill="url(#paint19_linear_6_859)"/>
<path d="M45.0805 179.605C44.9515 179.648 44.8226 179.691 44.6937 179.734C44.8656 179.691 44.9945 179.648 45.1664 179.605H45.0805Z" fill="url(#paint20_linear_6_859)"/>
<path d="M31.8686 184.067L31.6973 183.981L31.8686 183.939V184.067Z" fill="url(#paint21_linear_6_859)"/>
<path d="M497.719 190.889C497.762 190.718 497.848 190.589 497.934 190.418C497.934 190.375 498.105 190.46 498.191 190.46C498.019 190.589 497.848 190.718 497.676 190.804L497.719 190.889Z" fill="url(#paint22_linear_6_859)"/>
<path d="M497.677 190.847C497.205 191.018 496.733 191.233 496.304 191.404L496.347 191.447C496.819 191.276 497.291 191.061 497.719 190.89L497.677 190.847Z" fill="url(#paint23_linear_6_859)"/>
<path d="M373.376 23.6413C373.333 23.5984 373.247 23.5984 373.204 23.5555C373.29 23.5126 373.376 23.4697 373.462 23.4268C373.419 23.4697 373.376 23.5555 373.376 23.6413Z" fill="url(#paint24_linear_6_859)"/>
<path d="M90.6308 311.242C90.5451 311.37 90.5022 311.585 90.3735 311.628C90.2877 311.671 90.1161 311.542 89.9874 311.456C90.0732 311.413 90.1161 311.328 90.2019 311.285C90.3735 311.242 90.5451 311.285 90.7166 311.242H90.6308Z" fill="url(#paint25_linear_6_859)"/>
<path d="M262.714 46.639C262.8 46.4244 262.928 46.2099 263.014 45.9954C263.1 46.2099 263.186 46.4244 263.271 46.5961L263.314 46.5531C263.1 46.5531 262.885 46.5531 262.628 46.5531L262.714 46.639Z" fill="url(#paint26_linear_6_859)"/>
<path d="M71.4585 386.842C71.4155 386.842 71.3725 386.885 71.2866 386.885C71.3296 386.799 71.3725 386.713 71.3725 386.627C71.4155 386.713 71.4585 386.756 71.4585 386.842Z" fill="url(#paint27_linear_6_859)"/>
<path d="M235.392 57.7947C235.52 57.7089 235.649 57.5802 235.82 57.4944C235.863 57.4944 235.949 57.5802 235.992 57.5802C235.778 57.6231 235.563 57.666 235.306 57.7089L235.392 57.7947Z" fill="url(#paint28_linear_6_859)"/>
<path d="M211.201 70.9238C211.286 70.7951 211.372 70.6664 211.458 70.5806C211.372 70.6664 211.243 70.7951 211.158 70.8809L211.201 70.9238Z" fill="url(#paint29_linear_6_859)"/>
<path d="M204.639 75.0857C204.467 75.0428 204.338 74.957 204.166 74.9141H204.209C204.252 74.9999 204.252 75.1286 204.338 75.1715C204.381 75.2144 204.51 75.1715 204.596 75.1286L204.639 75.0857Z" fill="url(#paint30_linear_6_859)"/>
<path d="M208.584 421.897C208.67 421.854 208.713 421.854 208.799 421.811C208.799 421.897 208.842 421.982 208.842 422.111C208.756 422.111 208.67 422.111 208.627 422.068C208.584 422.025 208.584 421.94 208.584 421.897Z" fill="url(#paint31_linear_6_859)"/>
<path d="M423.345 103.532C423.474 103.447 423.603 103.404 423.732 103.318C423.646 103.361 423.56 103.361 423.474 103.404C423.388 103.447 423.302 103.447 423.259 103.489L423.345 103.532Z" fill="url(#paint32_linear_6_859)"/>
<path d="M421.114 108.424C421.286 108.038 421.457 107.651 421.629 107.265L421.586 107.222C421.372 107.609 421.2 107.995 420.986 108.381L421.114 108.424Z" fill="url(#paint33_linear_6_859)"/>
<path d="M393.449 0.17093L393.406 0H393.577L393.449 0.17093Z" fill="url(#paint34_linear_6_859)"/>
<path d="M368.229 11.1123L368.186 10.9841V11.1978L368.229 11.1123Z" fill="url(#paint35_linear_6_859)"/>
<path d="M341.549 37.1563L341.635 37.0281L341.464 37.1135L341.549 37.1563Z" fill="url(#paint36_linear_6_859)"/>
<path d="M291.066 38.272L291.194 38.1865L290.98 38.272H291.066Z" fill="url(#paint37_linear_6_859)"/>
<path d="M301.874 39.0018C302.089 38.7444 302.303 38.5298 302.518 38.2724L302.389 38.2295C302.174 38.444 302.003 38.6586 301.788 38.8731L301.874 39.0018Z" fill="url(#paint38_linear_6_859)"/>
<path d="M243.112 52.5166L243.241 52.4312L243.112 52.5166Z" fill="url(#paint39_linear_6_859)"/>
<path d="M243.112 52.5171C243.026 52.5171 242.983 52.5171 242.898 52.5171C242.983 52.6026 243.026 52.688 243.112 52.7307C243.112 52.6453 243.112 52.6026 243.112 52.5171Z" fill="url(#paint40_linear_6_859)"/>
<path d="M238.394 56.0777L238.523 55.9067L238.394 56.0777Z" fill="url(#paint41_linear_6_859)"/>
<path d="M238.394 56.0781C238.308 56.1209 238.265 56.1636 238.18 56.2063C238.265 56.1636 238.308 56.1209 238.394 56.0781Z" fill="url(#paint42_linear_6_859)"/>
<path d="M235.349 57.7087C235.135 57.9662 234.92 58.1807 234.663 58.4381L234.748 58.524C234.963 58.2665 235.177 58.052 235.435 57.7946L235.349 57.7087Z" fill="url(#paint43_linear_6_859)"/>
<path d="M230.759 61.4409L230.845 61.27L230.716 61.3982L230.759 61.4409Z" fill="url(#paint44_linear_6_859)"/>
<path d="M230.073 62.0421C230.287 61.8705 230.545 61.6559 230.759 61.4843L230.716 61.4414C230.502 61.613 230.287 61.7847 230.073 62.0421Z" fill="url(#paint45_linear_6_859)"/>
<path d="M230.073 61.9993C229.987 62.042 229.944 62.0847 229.859 62.1275C229.944 62.0847 229.987 62.042 230.073 61.9993Z" fill="url(#paint46_linear_6_859)"/>
<path d="M228.357 63.2002C228.4 63.1575 228.443 63.1575 228.486 63.1147C228.4 63.1147 228.357 63.1147 228.271 63.1147L228.357 63.2002Z" fill="url(#paint47_linear_6_859)"/>
<path d="M227.714 63.9729C227.929 63.7154 228.143 63.458 228.4 63.2006L228.357 63.1147C228.143 63.3722 227.929 63.6296 227.714 63.8871C227.628 63.8871 227.714 63.9729 227.714 63.9729Z" fill="url(#paint48_linear_6_859)"/>
<path d="M218.364 65.26L218.535 65.2173L218.492 65.3455L218.364 65.26Z" fill="url(#paint49_linear_6_859)"/>
<path d="M216.949 69.6797C216.906 69.8084 216.863 69.98 216.82 70.1088C216.39 69.7226 216.863 69.8084 217.035 69.7226L216.949 69.6797Z" fill="url(#paint50_linear_6_859)"/>
<path d="M211.115 70.8811L210.986 71.052L211.2 70.9238L211.115 70.8811Z" fill="url(#paint51_linear_6_859)"/>
<path d="M208.112 73.2837L208.241 73.1982L208.112 73.2837Z" fill="url(#paint52_linear_6_859)"/>
<path d="M208.112 73.2835C208.026 73.2835 207.983 73.2835 207.898 73.2407C207.983 73.3262 208.026 73.4117 208.112 73.4544C208.112 73.4117 208.112 73.3689 208.112 73.2835Z" fill="url(#paint53_linear_6_859)"/>
<path d="M182.592 89.8456C182.849 89.8456 183.106 89.8456 183.321 89.8027L183.407 89.7598C183.106 89.7598 182.806 89.7598 182.506 89.7598L182.592 89.8456Z" fill="url(#paint54_linear_6_859)"/>
<path d="M182.506 89.8027V89.9737L182.592 89.8455L182.506 89.8027Z" fill="url(#paint55_linear_6_859)"/>
<path d="M409.19 94.6513C408.976 94.8658 408.761 95.0804 408.59 95.252L408.633 95.2949C408.633 95.0804 408.633 94.8229 408.633 94.6084L408.547 94.6942C408.761 94.6942 409.019 94.6942 409.233 94.6942L409.19 94.6513Z" fill="url(#paint56_linear_6_859)"/>
<path d="M423.001 103.575C422.959 103.532 422.916 103.489 422.873 103.404C422.916 103.447 422.916 103.489 422.959 103.532L423.001 103.575Z" fill="url(#paint57_linear_6_859)"/>
<path d="M155.312 106.493C155.226 106.493 155.183 106.493 155.098 106.493C155.183 106.578 155.269 106.664 155.312 106.707C155.312 106.664 155.312 106.578 155.312 106.493Z" fill="url(#paint58_linear_6_859)"/>
<path d="M421.629 107.221L421.715 107.008L421.629 107.179V107.221Z" fill="url(#paint59_linear_6_859)"/>
<path d="M129.148 108.381C129.148 108.423 129.19 108.423 129.19 108.465L129.148 108.381Z" fill="url(#paint60_linear_6_859)"/>
<path d="M417.554 126.187C417.597 126.101 417.597 126.015 417.64 125.929C417.597 126.015 417.554 126.058 417.512 126.144L417.554 126.187Z" fill="url(#paint61_linear_6_859)"/>
<path d="M67.512 155.149C67.4263 155.149 67.3835 155.149 67.2979 155.149C67.3835 155.234 67.4263 155.277 67.512 155.363C67.512 155.32 67.512 155.234 67.512 155.149Z" fill="url(#paint62_linear_6_859)"/>
<path d="M462.033 169.608C462.248 169.351 462.505 169.136 462.72 168.879L462.677 168.836C462.462 169.093 462.205 169.308 461.991 169.565C461.991 169.522 462.033 169.608 462.033 169.608Z" fill="url(#paint63_linear_6_859)"/>
<path d="M43.1066 276.058L43.0638 276.272L43.1066 276.144V276.058Z" fill="url(#paint64_linear_6_859)"/>
<path d="M57.4324 296.911C57.218 297.125 57.0035 297.297 56.7891 297.511L56.8748 297.597C57.0893 297.383 57.2609 297.211 57.4753 296.996L57.4324 296.911Z" fill="url(#paint65_linear_6_859)"/>
<path d="M56.7894 297.511C56.5749 297.683 56.3605 297.855 56.146 298.026V298.112C56.4033 297.94 56.6178 297.769 56.8752 297.597L56.7894 297.511Z" fill="url(#paint66_linear_6_859)"/>
<path d="M56.189 298.026L56.1031 298.284L56.146 298.112L56.189 298.026Z" fill="url(#paint67_linear_6_859)"/>
<path d="M19.4732 330.292C19.5591 330.163 19.6021 330.034 19.6881 329.863C20.0319 330.292 19.6451 330.206 19.4302 330.249L19.4732 330.292Z" fill="url(#paint68_linear_6_859)"/>
<path d="M18.8726 330.807C19.087 330.635 19.2586 330.463 19.4731 330.292L19.4302 330.249C19.2586 330.42 19.0442 330.592 18.8726 330.764V330.807Z" fill="url(#paint69_linear_6_859)"/>
<path d="M18.8724 330.764L18.7867 330.935L18.8724 330.806V330.764Z" fill="url(#paint70_linear_6_859)"/>
<path d="M345.753 403.79C345.539 404.005 345.281 404.262 345.067 404.477L345.153 404.519C345.153 404.262 345.153 404.005 345.11 403.79L345.067 403.876C345.324 403.876 345.539 403.876 345.796 403.876L345.753 403.79Z" fill="url(#paint71_linear_6_859)"/>
<path d="M154.111 441.076C154.068 441.118 154.025 441.161 153.94 441.204C153.982 441.204 154.025 441.161 154.068 441.161L154.111 441.076Z" fill="url(#paint72_linear_6_859)"/>
<path d="M129.234 108.466L129.319 108.252L129.148 108.38L129.234 108.466Z" fill="url(#paint73_linear_6_859)"/>
<path d="M301.145 43.4211C301.102 43.3782 301.017 43.2495 301.017 43.2495C301.145 43.1208 301.274 42.9921 301.36 42.9062C301.446 42.9921 301.488 43.1208 301.574 43.2066C301.445 43.2924 301.274 43.3782 301.145 43.4211Z" fill="url(#paint74_linear_6_859)"/>
</g>
<defs>
<linearGradient id="paint0_linear_6_859" x1="254.503" y1="11.1611" x2="254.503" y2="449.968" gradientUnits="userSpaceOnUse">
<stop stop-color="#FF792D"/>
<stop offset="0.0001" stop-color="#E97432"/>
<stop offset="1" stop-color="#E84420"/>
</linearGradient>
<linearGradient id="paint1_linear_6_859" x1="11.502" y1="181.793" x2="11.502" y2="190.205" gradientUnits="userSpaceOnUse">
<stop stop-color="#FF792D"/>
<stop offset="0.0001" stop-color="#E97432"/>
<stop offset="1" stop-color="#BA5039" stop-opacity="0.88"/>
</linearGradient>
<linearGradient id="paint2_linear_6_859" x1="392.119" y1="1.67334" x2="392.119" y2="11.4559" gradientUnits="userSpaceOnUse">
<stop stop-color="#FF792D"/>
<stop offset="0.0001" stop-color="#E97432"/>
<stop offset="1" stop-color="#BA5039" stop-opacity="0.88"/>
</linearGradient>
<linearGradient id="paint3_linear_6_859" x1="373.997" y1="7.76611" x2="373.997" y2="10.3834" gradientUnits="userSpaceOnUse">
<stop stop-color="#FF792D"/>
<stop offset="0.0001" stop-color="#E97432"/>
<stop offset="1" stop-color="#BA5039" stop-opacity="0.88"/>
</linearGradient>
<linearGradient id="paint4_linear_6_859" x1="424.231" y1="97.6545" x2="424.231" y2="101.774" gradientUnits="userSpaceOnUse">
<stop stop-color="#FF792D"/>
<stop offset="0.0001" stop-color="#E97432"/>
<stop offset="1" stop-color="#BA5039" stop-opacity="0.88"/>
</linearGradient>
<linearGradient id="paint5_linear_6_859" x1="70.7943" y1="387.952" x2="70.7943" y2="390.344" gradientUnits="userSpaceOnUse">
<stop stop-color="#FF792D"/>
<stop offset="0.0001" stop-color="#E97432"/>
<stop offset="1" stop-color="#BA5039" stop-opacity="0.88"/>
</linearGradient>
<linearGradient id="paint6_linear_6_859" x1="365.413" y1="11.5415" x2="365.413" y2="13.1719" gradientUnits="userSpaceOnUse">
<stop stop-color="#FF792D"/>
<stop offset="0.0001" stop-color="#E97432"/>
<stop offset="1" stop-color="#BA5039" stop-opacity="0.88"/>
</linearGradient>
<linearGradient id="paint7_linear_6_859" x1="77.4436" y1="398.813" x2="77.4436" y2="401.112" gradientUnits="userSpaceOnUse">
<stop stop-color="#FF792D"/>
<stop offset="0.0001" stop-color="#E97432"/>
<stop offset="1" stop-color="#BA5039" stop-opacity="0.88"/>
</linearGradient>
<linearGradient id="paint8_linear_6_859" x1="148.921" y1="109.668" x2="148.921" y2="111.428" gradientUnits="userSpaceOnUse">
<stop stop-color="#FF792D"/>
<stop offset="0.0001" stop-color="#E97432"/>
<stop offset="1" stop-color="#BA5039" stop-opacity="0.88"/>
</linearGradient>
<linearGradient id="paint9_linear_6_859" x1="233.333" y1="58.4382" x2="233.333" y2="60.4977" gradientUnits="userSpaceOnUse">
<stop stop-color="#FF792D"/>
<stop offset="0.0001" stop-color="#E97432"/>
<stop offset="1" stop-color="#BA5039" stop-opacity="0.88"/>
</linearGradient>
<linearGradient id="paint10_linear_6_859" x1="153.082" y1="107.008" x2="153.082" y2="108.712" gradientUnits="userSpaceOnUse">
<stop stop-color="#FF792D"/>
<stop offset="0.0001" stop-color="#E97432"/>
<stop offset="1" stop-color="#BA5039" stop-opacity="0.88"/>
</linearGradient>
<linearGradient id="paint11_linear_6_859" x1="429.866" y1="136.244" x2="429.866" y2="137.772" gradientUnits="userSpaceOnUse">
<stop stop-color="#FF792D"/>
<stop offset="0.0001" stop-color="#E97432"/>
<stop offset="1" stop-color="#BA5039" stop-opacity="0.88"/>
</linearGradient>
<linearGradient id="paint12_linear_6_859" x1="146.695" y1="446.031" x2="146.695" y2="447.003" gradientUnits="userSpaceOnUse">
<stop stop-color="#FF792D"/>
<stop offset="0.0001" stop-color="#E97432"/>
<stop offset="1" stop-color="#BA5039" stop-opacity="0.88"/>
</linearGradient>
<linearGradient id="paint13_linear_6_859" x1="422.822" y1="103.49" x2="422.822" y2="105.635" gradientUnits="userSpaceOnUse">
<stop stop-color="#FF792D"/>
<stop offset="0.0001" stop-color="#E97432"/>
<stop offset="1" stop-color="#BA5039" stop-opacity="0.88"/>
</linearGradient>
<linearGradient id="paint14_linear_6_859" x1="463" y1="167.377" x2="463" y2="168.879" gradientUnits="userSpaceOnUse">
<stop stop-color="#FF792D"/>
<stop offset="0.0001" stop-color="#E97432"/>
<stop offset="1" stop-color="#BA5039" stop-opacity="0.88"/>
</linearGradient>
<linearGradient id="paint15_linear_6_859" x1="58.7195" y1="379.72" x2="58.7195" y2="380.288" gradientUnits="userSpaceOnUse">
<stop stop-color="#FF792D"/>
<stop offset="0.0001" stop-color="#E97432"/>
<stop offset="1" stop-color="#BA5039" stop-opacity="0.88"/>
</linearGradient>
<linearGradient id="paint16_linear_6_859" x1="422.692" y1="94.6084" x2="422.692" y2="95.6844" gradientUnits="userSpaceOnUse">
<stop stop-color="#FF792D"/>
<stop offset="0.0001" stop-color="#E97432"/>
<stop offset="1" stop-color="#BA5039" stop-opacity="0.88"/>
</linearGradient>
<linearGradient id="paint17_linear_6_859" x1="45.5728" y1="178.232" x2="45.5728" y2="179.605" gradientUnits="userSpaceOnUse">
<stop stop-color="#FF792D"/>
<stop offset="0.0001" stop-color="#E97432"/>
<stop offset="1" stop-color="#BA5039" stop-opacity="0.88"/>
</linearGradient>
<linearGradient id="paint18_linear_6_859" x1="204.252" y1="75.0859" x2="204.252" y2="76.2873" gradientUnits="userSpaceOnUse">
<stop stop-color="#FF792D"/>
<stop offset="0.0001" stop-color="#E97432"/>
<stop offset="1" stop-color="#BA5039" stop-opacity="0.88"/>
</linearGradient>
<linearGradient id="paint19_linear_6_859" x1="46.6879" y1="177.675" x2="46.6879" y2="178.318" gradientUnits="userSpaceOnUse">
<stop stop-color="#FF792D"/>
<stop offset="0.0001" stop-color="#E97432"/>
<stop offset="1" stop-color="#BA5039" stop-opacity="0.88"/>
</linearGradient>
<linearGradient id="paint20_linear_6_859" x1="44.93" y1="179.605" x2="44.93" y2="179.734" gradientUnits="userSpaceOnUse">
<stop stop-color="#FF792D"/>
<stop offset="0.0001" stop-color="#E97432"/>
<stop offset="1" stop-color="#BA5039" stop-opacity="0.88"/>
</linearGradient>
<linearGradient id="paint21_linear_6_859" x1="31.7829" y1="183.939" x2="31.7829" y2="184.067" gradientUnits="userSpaceOnUse">
<stop stop-color="#FF792D"/>
<stop offset="0.0001" stop-color="#E97432"/>
<stop offset="1" stop-color="#BA5039" stop-opacity="0.88"/>
</linearGradient>
<linearGradient id="paint22_linear_6_859" x1="497.934" y1="190.406" x2="497.934" y2="190.889" gradientUnits="userSpaceOnUse">
<stop stop-color="#FF792D"/>
<stop offset="0.0001" stop-color="#E97432"/>
<stop offset="1" stop-color="#BA5039" stop-opacity="0.88"/>
</linearGradient>
<linearGradient id="paint23_linear_6_859" x1="497.012" y1="190.847" x2="497.012" y2="191.447" gradientUnits="userSpaceOnUse">
<stop stop-color="#FF792D"/>
<stop offset="0.0001" stop-color="#E97432"/>
<stop offset="1" stop-color="#BA5039" stop-opacity="0.88"/>
</linearGradient>
<linearGradient id="paint24_linear_6_859" x1="373.333" y1="23.4268" x2="373.333" y2="23.6413" gradientUnits="userSpaceOnUse">
<stop stop-color="#FF792D"/>
<stop offset="0.0001" stop-color="#E97432"/>
<stop offset="1" stop-color="#BA5039" stop-opacity="0.88"/>
</linearGradient>
<linearGradient id="paint25_linear_6_859" x1="90.352" y1="311.242" x2="90.352" y2="311.636" gradientUnits="userSpaceOnUse">
<stop stop-color="#FF792D"/>
<stop offset="0.0001" stop-color="#E97432"/>
<stop offset="1" stop-color="#BA5039" stop-opacity="0.88"/>
</linearGradient>
<linearGradient id="paint26_linear_6_859" x1="262.971" y1="45.9954" x2="262.971" y2="46.639" gradientUnits="userSpaceOnUse">
<stop stop-color="#FF792D"/>
<stop offset="0.0001" stop-color="#E97432"/>
<stop offset="1" stop-color="#BA5039" stop-opacity="0.88"/>
</linearGradient>
<linearGradient id="paint27_linear_6_859" x1="71.3725" y1="386.627" x2="71.3725" y2="386.885" gradientUnits="userSpaceOnUse">
<stop stop-color="#FF792D"/>
<stop offset="0.0001" stop-color="#E97432"/>
<stop offset="1" stop-color="#BA5039" stop-opacity="0.88"/>
</linearGradient>
<linearGradient id="paint28_linear_6_859" x1="235.649" y1="57.4944" x2="235.649" y2="57.7947" gradientUnits="userSpaceOnUse">
<stop stop-color="#FF792D"/>
<stop offset="0.0001" stop-color="#E97432"/>
<stop offset="1" stop-color="#BA5039" stop-opacity="0.88"/>
</linearGradient>
<linearGradient id="paint29_linear_6_859" x1="211.308" y1="70.5806" x2="211.308" y2="70.9238" gradientUnits="userSpaceOnUse">
<stop stop-color="#FF792D"/>
<stop offset="0.0001" stop-color="#E97432"/>
<stop offset="1" stop-color="#BA5039" stop-opacity="0.88"/>
</linearGradient>
<linearGradient id="paint30_linear_6_859" x1="204.402" y1="74.9141" x2="204.402" y2="75.1893" gradientUnits="userSpaceOnUse">
<stop stop-color="#FF792D"/>
<stop offset="0.0001" stop-color="#E97432"/>
<stop offset="1" stop-color="#BA5039" stop-opacity="0.88"/>
</linearGradient>
<linearGradient id="paint31_linear_6_859" x1="208.713" y1="421.811" x2="208.713" y2="422.111" gradientUnits="userSpaceOnUse">
<stop stop-color="#FF792D"/>
<stop offset="0.0001" stop-color="#E97432"/>
<stop offset="1" stop-color="#BA5039" stop-opacity="0.88"/>
</linearGradient>
<linearGradient id="paint32_linear_6_859" x1="423.495" y1="103.318" x2="423.495" y2="103.532" gradientUnits="userSpaceOnUse">
<stop stop-color="#FF792D"/>
<stop offset="0.0001" stop-color="#E97432"/>
<stop offset="1" stop-color="#BA5039" stop-opacity="0.88"/>
</linearGradient>
<linearGradient id="paint33_linear_6_859" x1="421.307" y1="107.222" x2="421.307" y2="108.424" gradientUnits="userSpaceOnUse">
<stop stop-color="#FF792D"/>
<stop offset="0.0001" stop-color="#E97432"/>
<stop offset="1" stop-color="#BA5039" stop-opacity="0.88"/>
</linearGradient>
<linearGradient id="paint34_linear_6_859" x1="393.491" y1="0" x2="393.491" y2="0.17093" gradientUnits="userSpaceOnUse">
<stop stop-color="#FF792D"/>
<stop offset="0.0001" stop-color="#E97432"/>
<stop offset="1" stop-color="#BA5039" stop-opacity="0.88"/>
</linearGradient>
<linearGradient id="paint35_linear_6_859" x1="368.207" y1="10.9841" x2="368.207" y2="11.1978" gradientUnits="userSpaceOnUse">
<stop stop-color="#FF792D"/>
<stop offset="0.0001" stop-color="#E97432"/>
<stop offset="1" stop-color="#BA5039" stop-opacity="0.88"/>
</linearGradient>
<linearGradient id="paint36_linear_6_859" x1="341.549" y1="37.0281" x2="341.549" y2="37.1563" gradientUnits="userSpaceOnUse">
<stop stop-color="#FF792D"/>
<stop offset="0.0001" stop-color="#E97432"/>
<stop offset="1" stop-color="#BA5039" stop-opacity="0.88"/>
</linearGradient>
<linearGradient id="paint37_linear_6_859" x1="291.087" y1="38.1865" x2="291.087" y2="38.272" gradientUnits="userSpaceOnUse">
<stop stop-color="#FF792D"/>
<stop offset="0.0001" stop-color="#E97432"/>
<stop offset="1" stop-color="#BA5039" stop-opacity="0.88"/>
</linearGradient>
<linearGradient id="paint38_linear_6_859" x1="302.153" y1="38.2295" x2="302.153" y2="39.0018" gradientUnits="userSpaceOnUse">
<stop stop-color="#FF792D"/>
<stop offset="0.0001" stop-color="#E97432"/>
<stop offset="1" stop-color="#BA5039" stop-opacity="0.88"/>
</linearGradient>
<linearGradient id="paint39_linear_6_859" x1="243.177" y1="52.4312" x2="243.177" y2="52.5166" gradientUnits="userSpaceOnUse">
<stop stop-color="#FF792D"/>
<stop offset="0.0001" stop-color="#E97432"/>
<stop offset="1" stop-color="#BA5039" stop-opacity="0.88"/>
</linearGradient>
<linearGradient id="paint40_linear_6_859" x1="243.005" y1="52.5171" x2="243.005" y2="52.7307" gradientUnits="userSpaceOnUse">
<stop stop-color="#FF792D"/>
<stop offset="0.0001" stop-color="#E97432"/>
<stop offset="1" stop-color="#BA5039" stop-opacity="0.88"/>
</linearGradient>
<linearGradient id="paint41_linear_6_859" x1="238.459" y1="55.9067" x2="238.459" y2="56.0777" gradientUnits="userSpaceOnUse">
<stop stop-color="#FF792D"/>
<stop offset="0.0001" stop-color="#E97432"/>
<stop offset="1" stop-color="#BA5039" stop-opacity="0.88"/>
</linearGradient>
<linearGradient id="paint42_linear_6_859" x1="238.287" y1="56.0781" x2="238.287" y2="56.2063" gradientUnits="userSpaceOnUse">
<stop stop-color="#FF792D"/>
<stop offset="0.0001" stop-color="#E97432"/>
<stop offset="1" stop-color="#BA5039" stop-opacity="0.88"/>
</linearGradient>
<linearGradient id="paint43_linear_6_859" x1="235.049" y1="57.7087" x2="235.049" y2="58.524" gradientUnits="userSpaceOnUse">
<stop stop-color="#FF792D"/>
<stop offset="0.0001" stop-color="#E97432"/>
<stop offset="1" stop-color="#BA5039" stop-opacity="0.88"/>
</linearGradient>
<linearGradient id="paint44_linear_6_859" x1="230.781" y1="61.27" x2="230.781" y2="61.4409" gradientUnits="userSpaceOnUse">
<stop stop-color="#FF792D"/>
<stop offset="0.0001" stop-color="#E97432"/>
<stop offset="1" stop-color="#BA5039" stop-opacity="0.88"/>
</linearGradient>
<linearGradient id="paint45_linear_6_859" x1="230.416" y1="61.4414" x2="230.416" y2="62.0421" gradientUnits="userSpaceOnUse">
<stop stop-color="#FF792D"/>
<stop offset="0.0001" stop-color="#E97432"/>
<stop offset="1" stop-color="#BA5039" stop-opacity="0.88"/>
</linearGradient>
<linearGradient id="paint46_linear_6_859" x1="229.966" y1="61.9993" x2="229.966" y2="62.1275" gradientUnits="userSpaceOnUse">
<stop stop-color="#FF792D"/>
<stop offset="0.0001" stop-color="#E97432"/>
<stop offset="1" stop-color="#BA5039" stop-opacity="0.88"/>
</linearGradient>
<linearGradient id="paint47_linear_6_859" x1="228.378" y1="63.1147" x2="228.378" y2="63.2002" gradientUnits="userSpaceOnUse">
<stop stop-color="#FF792D"/>
<stop offset="0.0001" stop-color="#E97432"/>
<stop offset="1" stop-color="#BA5039" stop-opacity="0.88"/>
</linearGradient>
<linearGradient id="paint48_linear_6_859" x1="228.038" y1="63.1147" x2="228.038" y2="63.9729" gradientUnits="userSpaceOnUse">
<stop stop-color="#FF792D"/>
<stop offset="0.0001" stop-color="#E97432"/>
<stop offset="1" stop-color="#BA5039" stop-opacity="0.88"/>
</linearGradient>
<linearGradient id="paint49_linear_6_859" x1="218.449" y1="65.2173" x2="218.449" y2="65.3455" gradientUnits="userSpaceOnUse">
<stop stop-color="#FF792D"/>
<stop offset="0.0001" stop-color="#E97432"/>
<stop offset="1" stop-color="#BA5039" stop-opacity="0.88"/>
</linearGradient>
<linearGradient id="paint50_linear_6_859" x1="216.839" y1="69.6797" x2="216.839" y2="70.1088" gradientUnits="userSpaceOnUse">
<stop stop-color="#FF792D"/>
<stop offset="0.0001" stop-color="#E97432"/>
<stop offset="1" stop-color="#BA5039" stop-opacity="0.88"/>
</linearGradient>
<linearGradient id="paint51_linear_6_859" x1="211.093" y1="70.8811" x2="211.093" y2="71.052" gradientUnits="userSpaceOnUse">
<stop stop-color="#FF792D"/>
<stop offset="0.0001" stop-color="#E97432"/>
<stop offset="1" stop-color="#BA5039" stop-opacity="0.88"/>
</linearGradient>
<linearGradient id="paint52_linear_6_859" x1="208.177" y1="73.1982" x2="208.177" y2="73.2837" gradientUnits="userSpaceOnUse">
<stop stop-color="#FF792D"/>
<stop offset="0.0001" stop-color="#E97432"/>
<stop offset="1" stop-color="#BA5039" stop-opacity="0.88"/>
</linearGradient>
<linearGradient id="paint53_linear_6_859" x1="208.005" y1="73.2407" x2="208.005" y2="73.4544" gradientUnits="userSpaceOnUse">
<stop stop-color="#FF792D"/>
<stop offset="0.0001" stop-color="#E97432"/>
<stop offset="1" stop-color="#BA5039" stop-opacity="0.88"/>
</linearGradient>
<linearGradient id="paint54_linear_6_859" x1="182.956" y1="89.7598" x2="182.956" y2="89.8456" gradientUnits="userSpaceOnUse">
<stop stop-color="#FF792D"/>
<stop offset="0.0001" stop-color="#E97432"/>
<stop offset="1" stop-color="#BA5039" stop-opacity="0.88"/>
</linearGradient>
<linearGradient id="paint55_linear_6_859" x1="182.549" y1="89.8027" x2="182.549" y2="89.9737" gradientUnits="userSpaceOnUse">
<stop stop-color="#FF792D"/>
<stop offset="0.0001" stop-color="#E97432"/>
<stop offset="1" stop-color="#BA5039" stop-opacity="0.88"/>
</linearGradient>
<linearGradient id="paint56_linear_6_859" x1="408.89" y1="94.6084" x2="408.89" y2="95.2949" gradientUnits="userSpaceOnUse">
<stop stop-color="#FF792D"/>
<stop offset="0.0001" stop-color="#E97432"/>
<stop offset="1" stop-color="#BA5039" stop-opacity="0.88"/>
</linearGradient>
<linearGradient id="paint57_linear_6_859" x1="422.937" y1="103.404" x2="422.937" y2="103.575" gradientUnits="userSpaceOnUse">
<stop stop-color="#FF792D"/>
<stop offset="0.0001" stop-color="#E97432"/>
<stop offset="1" stop-color="#BA5039" stop-opacity="0.88"/>
</linearGradient>
<linearGradient id="paint58_linear_6_859" x1="155.205" y1="106.493" x2="155.205" y2="106.707" gradientUnits="userSpaceOnUse">
<stop stop-color="#FF792D"/>
<stop offset="0.0001" stop-color="#E97432"/>
<stop offset="1" stop-color="#BA5039" stop-opacity="0.88"/>
</linearGradient>
<linearGradient id="paint59_linear_6_859" x1="421.672" y1="107.008" x2="421.672" y2="107.221" gradientUnits="userSpaceOnUse">
<stop stop-color="#FF792D"/>
<stop offset="0.0001" stop-color="#E97432"/>
<stop offset="1" stop-color="#BA5039" stop-opacity="0.88"/>
</linearGradient>
<linearGradient id="paint60_linear_6_859" x1="129.169" y1="108.381" x2="129.169" y2="108.465" gradientUnits="userSpaceOnUse">
<stop stop-color="#FF792D"/>
<stop offset="0.0001" stop-color="#E97432"/>
<stop offset="1" stop-color="#BA5039" stop-opacity="0.88"/>
</linearGradient>
<linearGradient id="paint61_linear_6_859" x1="417.576" y1="125.929" x2="417.576" y2="126.187" gradientUnits="userSpaceOnUse">
<stop stop-color="#FF792D"/>
<stop offset="0.0001" stop-color="#E97432"/>
<stop offset="1" stop-color="#BA5039" stop-opacity="0.88"/>
</linearGradient>
<linearGradient id="paint62_linear_6_859" x1="67.4049" y1="155.149" x2="67.4049" y2="155.363" gradientUnits="userSpaceOnUse">
<stop stop-color="#FF792D"/>
<stop offset="0.0001" stop-color="#E97432"/>
<stop offset="1" stop-color="#BA5039" stop-opacity="0.88"/>
</linearGradient>
<linearGradient id="paint63_linear_6_859" x1="462.355" y1="168.836" x2="462.355" y2="169.608" gradientUnits="userSpaceOnUse">
<stop stop-color="#FF792D"/>
<stop offset="0.0001" stop-color="#E97432"/>
<stop offset="1" stop-color="#BA5039" stop-opacity="0.88"/>
</linearGradient>
<linearGradient id="paint64_linear_6_859" x1="43.0852" y1="276.058" x2="43.0852" y2="276.272" gradientUnits="userSpaceOnUse">
<stop stop-color="#FF792D"/>
<stop offset="0.0001" stop-color="#E97432"/>
<stop offset="1" stop-color="#BA5039" stop-opacity="0.88"/>
</linearGradient>
<linearGradient id="paint65_linear_6_859" x1="57.1322" y1="296.911" x2="57.1322" y2="297.597" gradientUnits="userSpaceOnUse">
<stop stop-color="#FF792D"/>
<stop offset="0.0001" stop-color="#E97432"/>
<stop offset="1" stop-color="#BA5039" stop-opacity="0.88"/>
</linearGradient>
<linearGradient id="paint66_linear_6_859" x1="56.5106" y1="297.511" x2="56.5106" y2="298.112" gradientUnits="userSpaceOnUse">
<stop stop-color="#FF792D"/>
<stop offset="0.0001" stop-color="#E97432"/>
<stop offset="1" stop-color="#BA5039" stop-opacity="0.88"/>
</linearGradient>
<linearGradient id="paint67_linear_6_859" x1="56.146" y1="298.026" x2="56.146" y2="298.284" gradientUnits="userSpaceOnUse">
<stop stop-color="#FF792D"/>
<stop offset="0.0001" stop-color="#E97432"/>
<stop offset="1" stop-color="#BA5039" stop-opacity="0.88"/>
</linearGradient>
<linearGradient id="paint68_linear_6_859" x1="19.6275" y1="329.863" x2="19.6275" y2="330.292" gradientUnits="userSpaceOnUse">
<stop stop-color="#FF792D"/>
<stop offset="0.0001" stop-color="#E97432"/>
<stop offset="1" stop-color="#BA5039" stop-opacity="0.88"/>
</linearGradient>
<linearGradient id="paint69_linear_6_859" x1="19.1728" y1="330.249" x2="19.1728" y2="330.807" gradientUnits="userSpaceOnUse">
<stop stop-color="#FF792D"/>
<stop offset="0.0001" stop-color="#E97432"/>
<stop offset="1" stop-color="#BA5039" stop-opacity="0.88"/>
</linearGradient>
<linearGradient id="paint70_linear_6_859" x1="18.8296" y1="330.764" x2="18.8296" y2="330.935" gradientUnits="userSpaceOnUse">
<stop stop-color="#FF792D"/>
<stop offset="0.0001" stop-color="#E97432"/>
<stop offset="1" stop-color="#BA5039" stop-opacity="0.88"/>
</linearGradient>
<linearGradient id="paint71_linear_6_859" x1="345.431" y1="403.79" x2="345.431" y2="404.519" gradientUnits="userSpaceOnUse">
<stop stop-color="#FF792D"/>
<stop offset="0.0001" stop-color="#E97432"/>
<stop offset="1" stop-color="#BA5039" stop-opacity="0.88"/>
</linearGradient>
<linearGradient id="paint72_linear_6_859" x1="154.025" y1="441.076" x2="154.025" y2="441.204" gradientUnits="userSpaceOnUse">
<stop stop-color="#FF792D"/>
<stop offset="0.0001" stop-color="#E97432"/>
<stop offset="1" stop-color="#BA5039" stop-opacity="0.88"/>
</linearGradient>
<linearGradient id="paint73_linear_6_859" x1="129.234" y1="108.252" x2="129.234" y2="108.466" gradientUnits="userSpaceOnUse">
<stop stop-color="#FF792D"/>
<stop offset="0.0001" stop-color="#E97432"/>
<stop offset="1" stop-color="#BA5039" stop-opacity="0.88"/>
</linearGradient>
<linearGradient id="paint74_linear_6_859" x1="301.295" y1="42.9062" x2="301.295" y2="43.4211" gradientUnits="userSpaceOnUse">
<stop stop-color="#FF792D"/>
<stop offset="0.0001" stop-color="#E97432"/>
<stop offset="1" stop-color="#BA5039" stop-opacity="0.88"/>
</linearGradient>
<clipPath id="clip0_6_859">
<rect width="509" height="450" fill="white"/>
</clipPath>
</defs>
</svg>
