<svg width="24" height="24" viewBox="0 0 24 24" fill="none" xmlns="http://www.w3.org/2000/svg">
<path d="M23.2411 15.1064C23.0046 14.8043 22.7242 14.536 22.4147 14.313C22.4906 13.7962 22.5403 13.2795 22.5344 12.7572C22.5315 12.2461 22.4731 11.7435 22.4001 11.2381C22.2687 10.343 21.9854 9.49875 21.6146 8.67144C21.2525 7.86108 20.7619 7.13259 20.1983 6.43799C19.6377 5.74621 18.9748 5.16456 18.2536 4.63372C17.5265 4.09724 16.7205 3.68218 15.8737 3.35464C15.8036 2.7504 15.5875 2.15745 15.2283 1.65767C14.7699 1.01672 14.1479 0.545182 13.4004 0.254353C11.9461 -0.313186 10.1912 0.096233 9.13701 1.21155C8.56759 1.81579 8.22594 2.56969 8.13541 3.35464C6.54688 3.97583 5.10143 4.93585 3.99471 6.21211C2.82083 7.56742 1.974 9.18816 1.65571 10.936C1.55643 11.4809 1.48927 12.0371 1.47467 12.5906C1.46007 13.1694 1.50679 13.7454 1.59439 14.3186C0.911087 14.8014 0.388389 15.496 0.146021 16.3149C-0.286154 17.7747 0.262825 19.3926 1.50387 20.3187C2.63395 21.163 4.16992 21.3437 5.46644 20.7959C6.85933 21.8463 8.48875 22.5917 10.2437 22.8571C11.2132 23.0011 12.1827 23.0519 13.158 22.9362C14.1158 22.8232 15.0414 22.6227 15.9321 22.2613C16.446 22.0552 16.9454 21.8293 17.4213 21.5526C17.8097 21.3267 18.1806 21.0698 18.5368 20.7959C18.7033 20.8665 18.8755 20.9286 19.0537 20.9766C20.5079 21.3747 22.1694 20.8891 23.1155 19.7399C23.2469 19.5789 23.3725 19.4123 23.4805 19.2345C23.4835 19.2288 23.4864 19.2232 23.4922 19.2175C24.2398 17.9356 24.1668 16.2838 23.2411 15.1064ZM20.1662 13.576C19.7253 13.5704 19.2844 13.6353 18.8726 13.7737C17.2928 14.3017 16.1861 15.7671 16.2153 17.3963C16.227 18.0683 16.4285 18.7121 16.7731 19.2683C16.2737 19.6043 15.7423 19.8923 15.1875 20.1324C14.5188 20.3921 13.8208 20.5757 13.1113 20.6801C12.3754 20.762 11.6366 20.762 10.9007 20.6801C10.1882 20.5728 9.49326 20.3893 8.82456 20.1324C8.26974 19.8952 7.74412 19.6072 7.2477 19.274C7.84924 18.2857 7.98357 17.0321 7.51927 15.9563C7.19514 15.1996 6.65492 14.5586 5.92782 14.1294C5.31168 13.7652 4.56997 13.5675 3.84579 13.5788C3.79323 12.9718 3.80491 12.3647 3.87791 11.7576C3.98887 11.0658 4.17868 10.3882 4.44733 9.73876C4.42689 9.78111 4.40937 9.82346 4.38893 9.86864C4.42689 9.77829 4.46777 9.68793 4.50573 9.59758C4.48529 9.64275 4.46777 9.68793 4.44733 9.73311C4.7335 9.11192 5.08683 8.52744 5.5044 7.98249C5.47228 8.0192 5.44308 8.05873 5.41096 8.09826C5.47228 8.02202 5.5336 7.94578 5.59493 7.86955C5.56573 7.90625 5.53653 7.94296 5.51024 7.97967C5.94826 7.44883 6.4476 6.96882 6.99365 6.54246C7.49591 6.18105 8.03613 5.8648 8.60263 5.60786C8.60263 5.61068 8.60555 5.61351 8.60555 5.61633C8.9764 6.25728 9.56042 6.80506 10.2408 7.13259C11.0059 7.49966 11.8352 7.60978 12.6762 7.48272C13.8238 7.30765 14.84 6.58199 15.4065 5.61068C15.973 5.87045 16.5132 6.18387 17.0154 6.54529C17.5644 6.96882 18.0608 7.45166 18.4988 7.98249C18.4696 7.94578 18.4434 7.90908 18.4142 7.87237C18.4755 7.94861 18.5368 8.02484 18.5981 8.10108C18.566 8.06155 18.5368 8.02484 18.5047 7.98531C18.9223 8.53026 19.2785 9.11757 19.5618 9.73593C19.5413 9.69075 19.5238 9.64558 19.5034 9.6004C19.5413 9.69075 19.5822 9.78111 19.6202 9.87146C19.6026 9.82911 19.5822 9.78676 19.5618 9.74158C19.8304 10.391 20.0231 11.0687 20.1312 11.7604C20.2071 12.3619 20.2159 12.9718 20.1662 13.576Z" fill="black"/>
</svg>
