<svg width="24" height="24" viewBox="0 0 24 24" fill="none" xmlns="http://www.w3.org/2000/svg">
<path d="M20.616 17.25L20.2312 18.9187C20.1525 19.2592 19.8495 19.5 19.5 19.5H4.49996C4.15046 19.5 3.84746 19.2592 3.76871 18.9187L3.38396 17.25H20.616ZM22.4812 9.16871L20.9625 15.75H3.03746L1.51871 9.16871C1.45196 8.87846 1.56296 8.57546 1.80221 8.39771C2.04221 8.21996 2.36396 8.20121 2.62196 8.34896L7.26371 11.0017L11.3752 4.83446C11.5095 4.63346 11.7315 4.50896 11.9722 4.49996C12.2152 4.48946 12.444 4.59896 12.5917 4.78946L17.4135 10.989L21.3337 8.37596C21.5895 8.20646 21.9232 8.20796 22.176 8.38271C22.4295 8.55746 22.5495 8.86946 22.4812 9.16871Z" fill="black"/>
</svg>
