<svg width="499" height="412" viewBox="0 0 499 412" fill="none" xmlns="http://www.w3.org/2000/svg">
<g clip-path="url(#clip0_6_738)">
<path d="M300.097 326.891L293.881 276.56L343.456 309.133L345.018 351.74L300.097 326.891Z" fill="#C19F83"/>
<path d="M152.863 367.151L301.624 327.253L345.527 352.828L192.7 393.985L152.863 367.151Z" fill="#AC8B72"/>
<path d="M153.225 368.442L299.876 327.523L293.93 276.012L150.615 320.375L153.225 368.442Z" fill="#C2A289"/>
<path d="M215.45 298.965C217.901 294.243 224.427 267.648 219.065 247.931C219.065 247.931 188.74 239.51 176.29 223.016C163.839 206.522 146.549 150.426 155.141 101.32C155.141 101.32 218.879 35.5256 321.733 87.8677L325.046 98.8313C325.046 98.8313 315.171 110.661 315.684 132.96L324.962 132.602C324.962 132.602 324.923 156.54 321.33 171.412C317.737 186.279 315.415 235.031 256.973 249.726L257.915 286.458C257.915 286.463 212.994 303.686 215.45 298.965Z" fill="#F9DA97"/>
<path d="M313.959 131.068L330.024 131.947C330.024 131.947 326.285 109.3 338.828 103.584C351.372 97.8675 383.276 95.6659 386.143 112.376C386.143 112.376 390.983 135.245 358.194 150.634C325.409 166.027 307.145 175.041 300.982 186.694C294.819 198.348 284.037 222.755 306.039 227.149C328.046 231.548 331.126 210.217 331.126 206.92L317.702 203.401C317.702 203.401 305.818 217.914 301.858 212.636C297.898 207.357 301.858 194.387 311.101 186.911C320.343 179.435 330.904 171.518 352.252 163.605C373.6 155.687 398.243 136.558 400.221 123.367C402.203 110.175 398.243 98.7428 387.899 93.902C377.559 89.0657 335.528 81.8112 323.644 98.0797C311.76 114.357 313.959 131.068 313.959 131.068Z" fill="#F9DA97"/>
<path d="M160.703 222.33C161.141 226.022 164.835 231.145 170.348 229.346C175.861 227.547 176.745 222.375 176.745 222.375L186.718 233.369C186.718 233.369 174.325 243.754 161.437 237.48C148.549 231.207 152.553 223.922 152.553 223.922C152.553 223.922 160.526 220.841 160.703 222.33Z" fill="#F9DA97"/>
<path d="M162.499 195.505C156.371 195.337 130.179 177.075 122.648 165.311C115.118 153.547 107.548 132.169 123.396 124.216L128.219 123.278C128.219 123.278 118.644 133.477 123.799 148.145C128.949 162.813 141.855 181.085 159.092 183.644C159.088 183.644 168.622 195.673 162.499 195.505Z" fill="#F9DA97"/>
<path d="M122.312 124.233C119.127 128.415 142.514 111.479 152.009 133L152.792 116.629C152.792 116.629 133.612 109.388 122.312 124.233Z" fill="#FFE199"/>
<path d="M196.881 333.849L249.093 318.96L246.549 301.799L196.505 316.741L196.881 333.849Z" fill="#F9DA97"/>
<path opacity="0.3895" d="M164.065 159.197C171.264 156.39 172.219 176.558 183.178 188.087C198.867 204.585 209.95 210.584 190.704 221.203C171.454 231.817 147.894 165.506 164.065 159.197Z" fill="white"/>
<path opacity="0.3895" d="M157.318 104.972L155.15 133.866C155.15 133.866 172.551 95.3741 218.768 74.1985C184.696 75.2904 157.318 104.972 157.318 104.972Z" fill="white"/>
<path d="M309.251 228.904C306.729 228.904 304.345 228.387 302.199 227.361C298.013 225.359 294.859 221.557 292.828 216.062C288.589 204.612 293.124 192.578 306.314 180.289C315.207 172 327.79 163.728 344.775 155.002C346.974 153.87 349.097 152.804 351.15 151.77C370.87 141.837 382.771 135.842 384.877 115.71C385.891 106.033 380.736 99.9009 376.232 96.4659C365.945 88.6146 349.15 86.8551 335.386 92.1954C326.245 95.7409 320.303 103.552 317.72 115.413C316.175 122.504 316.357 128.976 316.507 131.403H330.524C331.148 131.403 331.656 131.912 331.656 132.535C331.656 133.163 331.148 133.667 330.524 133.667H315.459C314.879 133.667 314.392 133.229 314.331 132.655C314.295 132.314 313.477 124.242 315.507 114.932C318.224 102.456 324.816 93.8621 334.568 90.0823C349.027 84.4723 366.729 86.36 377.608 94.6667C384.625 100.02 388.005 107.58 387.134 115.948C384.9 137.314 371.879 143.87 352.168 153.795C350.119 154.825 348 155.895 345.81 157.018C305.433 177.764 288.32 197.366 294.952 215.279C299.748 228.236 309.862 227.091 313.99 225.995C323.303 223.524 331.086 214.943 330.524 208.003L316.733 204.09C316.131 203.918 315.782 203.294 315.954 202.693C316.127 202.092 316.751 201.743 317.352 201.915L331.864 206.031C332.285 206.15 332.599 206.504 332.674 206.933C334.178 215.947 324.361 225.588 314.574 228.183C312.755 228.665 310.972 228.904 309.251 228.904Z" fill="#2E2020"/>
<path d="M314.415 222.162C306.774 222.162 303.287 218.648 301.703 215.664C298.314 209.28 300.425 199.36 307.203 189.767C315.313 178.295 335.714 168.759 353.716 160.346C362.618 156.186 371.029 152.256 376.79 148.6C394.408 137.433 402.013 122.836 397.664 108.544C393.899 96.183 374.834 85.2548 350.602 89.1584C349.982 89.2556 349.403 88.8357 349.301 88.2212C349.204 87.6023 349.624 87.0231 350.239 86.9215C361.857 85.0515 373.427 86.3954 382.807 90.7012C391.518 94.7021 397.721 100.962 399.827 107.88C402.155 115.52 401.283 123.512 397.31 130.992C393.501 138.163 386.824 144.913 377.997 150.506C372.113 154.237 363.64 158.198 354.668 162.389C336.921 170.682 316.813 180.085 309.048 191.062C302.858 199.82 300.757 209.055 303.699 214.594C305.592 218.157 309.45 219.983 314.857 219.886C324.613 219.695 327.599 213.069 329.577 208.683C329.896 207.976 330.196 207.308 330.493 206.751C330.785 206.199 331.471 205.987 332.024 206.283C332.577 206.575 332.789 207.26 332.497 207.812C332.236 208.307 331.962 208.913 331.643 209.616C329.568 214.223 326.091 221.937 314.901 222.153C314.742 222.162 314.574 222.162 314.415 222.162Z" fill="#2E2020"/>
<path d="M194.531 393.556C194.337 393.556 194.142 393.508 193.97 393.411L151.318 369.224C150.92 368.999 150.695 368.552 150.752 368.101C150.81 367.646 151.133 367.27 151.575 367.151L299.239 326.466C299.518 326.391 299.814 326.422 300.066 326.555L303.849 328.54C304.402 328.832 304.615 329.517 304.327 330.069C304.035 330.622 303.349 330.834 302.796 330.547L299.411 328.77L154.818 368.605L194.686 391.213L279.528 369.039C280.134 368.88 280.754 369.242 280.909 369.848C281.068 370.453 280.705 371.072 280.099 371.231L194.815 393.521C194.722 393.543 194.624 393.556 194.531 393.556Z" fill="#2E2020"/>
<path d="M300.854 366.143C300.349 366.143 299.889 365.803 299.757 365.29C299.602 364.684 299.965 364.065 300.571 363.911L342.939 353.031L329.865 345.613C329.32 345.304 329.13 344.614 329.44 344.07C329.749 343.526 330.444 343.336 330.984 343.646L346.5 352.448C346.903 352.677 347.128 353.124 347.067 353.584C347.005 354.043 346.673 354.415 346.226 354.53L301.137 366.103C301.044 366.13 300.947 366.143 300.854 366.143Z" fill="#2E2020"/>
<path d="M151.982 369.344C151.748 369.344 151.513 369.269 151.318 369.127C151.04 368.928 150.867 368.61 150.849 368.27L148.345 319.919C148.319 319.398 148.651 318.925 149.151 318.774L294.173 275.163C294.496 275.066 294.846 275.119 295.124 275.305C295.407 275.49 295.589 275.791 295.624 276.127L301.203 327.417C301.261 327.97 300.911 328.482 300.376 328.633L152.279 369.304C152.186 369.331 152.084 369.344 151.982 369.344ZM150.659 320.689L153.044 366.744L298.85 326.701L293.523 277.727L150.659 320.689Z" fill="#2E2020"/>
<path d="M345.868 353.911C345.27 353.911 344.766 353.442 344.735 352.837L342.567 309.42L294.049 277.281C293.527 276.936 293.385 276.233 293.731 275.712C294.076 275.19 294.779 275.048 295.301 275.393L344.297 307.846C344.598 308.045 344.784 308.372 344.801 308.735L346.996 352.722C347.027 353.345 346.544 353.88 345.921 353.911C345.907 353.911 345.885 353.911 345.868 353.911Z" fill="#2E2020"/>
<path d="M198.111 334.778C197.876 334.778 197.642 334.702 197.447 334.565C197.168 334.366 196.996 334.048 196.978 333.708L196.107 316.847C196.08 316.325 196.412 315.852 196.912 315.702L247.487 300.494C247.81 300.397 248.159 300.45 248.438 300.636C248.717 300.821 248.903 301.122 248.938 301.458L250.885 319.345C250.947 319.897 250.593 320.41 250.057 320.56L198.407 334.742C198.31 334.764 198.208 334.778 198.111 334.778ZM198.412 317.616L199.168 332.183L248.527 318.628L246.832 303.054L198.412 317.616Z" fill="#2E2020"/>
<path d="M215.919 300.773C215.795 300.773 215.671 300.751 215.552 300.711C214.959 300.508 214.645 299.862 214.848 299.27C214.901 299.115 220.211 283.55 219.733 269.239C219.259 254.819 216.237 241.804 216.207 241.676C216.167 241.503 216.167 241.327 216.207 241.159C216.233 241.048 216.861 238.462 219.228 235.863C221.383 233.497 225.449 230.655 232.603 230.527C232.758 230.522 232.913 230.522 233.068 230.522C246.407 230.522 250.403 240.92 250.442 241.022C250.513 241.212 250.531 241.411 250.496 241.61C250.478 241.72 248.518 252.989 248.929 266.017C249.332 278.855 254.548 287.948 254.601 288.037C254.915 288.576 254.734 289.27 254.194 289.584C253.655 289.898 252.96 289.717 252.646 289.177C252.42 288.788 247.089 279.522 246.664 266.083C246.288 254.067 247.89 243.51 248.208 241.539C247.536 240.009 243.709 232.591 232.648 232.781C221.71 232.976 218.919 240.067 218.481 241.437C218.932 243.462 221.556 255.712 222.002 269.155C222.494 283.894 217.22 299.349 216.994 299.999C216.83 300.477 216.392 300.773 215.919 300.773Z" fill="#2E2020"/>
<path d="M257.632 288.09C257.075 288.09 256.588 287.679 256.513 287.113C255.951 283.103 255.57 270.751 255.292 261.729C255.199 258.731 255.119 256.145 255.048 254.28C254.823 248.51 253.818 247.441 251.823 245.31C250.836 244.253 249.611 242.945 248.199 240.805C247.854 240.283 248 239.58 248.522 239.236C249.044 238.891 249.748 239.037 250.093 239.558C251.403 241.539 252.504 242.719 253.482 243.763C255.827 246.274 257.066 247.878 257.314 254.191C257.384 256.066 257.468 258.656 257.557 261.658C257.831 270.628 258.212 282.909 258.756 286.795C258.844 287.413 258.411 287.988 257.791 288.072C257.734 288.085 257.681 288.09 257.632 288.09Z" fill="#2E2020"/>
<path d="M218.574 249.129C218.503 249.129 218.428 249.12 218.357 249.107C198.168 245.221 182.196 233.913 170.888 215.491C157.513 193.701 153.261 166.027 152.049 146.646C150.703 125.091 152.624 107.063 153.902 102.624C153.916 102.571 153.933 102.523 153.955 102.474C154.274 101.767 162.326 84.9278 213.176 71.1438C225.564 67.784 239.041 66.4976 253.239 67.311C264.578 67.9608 276.4 69.9458 288.377 73.2127C308.76 78.7741 322.741 86.2408 322.883 86.3115C323.175 86.4663 323.383 86.7448 323.454 87.0675C323.945 89.3265 324.091 97.8807 324.113 99.5739C324.122 100.202 323.622 100.714 322.994 100.723C322.374 100.741 321.852 100.233 321.843 99.6093C321.768 94.2911 321.56 89.8393 321.317 88.0533C318.702 86.7094 305.752 80.2948 287.718 75.3833C269.171 70.3304 241.284 65.8698 213.764 73.3277C187.864 80.3479 173.533 88.1594 166.074 93.4776C158.552 98.8401 156.327 102.801 156.048 103.336C154.96 107.284 152.956 124.954 154.305 146.496C155.5 165.621 159.676 192.906 172.812 214.298C183.776 232.153 199.239 243.117 218.782 246.875C219.397 246.994 219.799 247.586 219.68 248.201C219.578 248.753 219.104 249.129 218.574 249.129Z" fill="#2E2020"/>
<path d="M321.131 170.806C321.06 170.806 320.985 170.797 320.914 170.784C320.299 170.665 319.896 170.072 320.016 169.458C322.631 155.952 323.308 145.174 323.524 133.15C323.533 132.531 324.042 132.036 324.657 132.036C325.303 132.049 325.803 132.562 325.79 133.19C325.573 145.334 324.887 156.222 322.241 169.891C322.135 170.43 321.662 170.806 321.131 170.806Z" fill="#2E2020"/>
<path d="M306.99 213.1C306.747 213.1 306.504 213.02 306.291 212.861C305.8 212.477 305.712 211.765 306.097 211.27C310.574 205.527 314.742 194.833 318.14 180.346C318.282 179.736 318.892 179.36 319.503 179.502C320.113 179.643 320.489 180.253 320.348 180.864C316.875 195.664 312.561 206.659 307.884 212.662C307.663 212.95 307.331 213.1 306.99 213.1Z" fill="#2E2020"/>
<path d="M256.712 250.027C256.19 250.027 255.721 249.664 255.606 249.134C255.473 248.524 255.862 247.918 256.473 247.79C274.684 243.86 287.47 236.318 297.938 223.338C298.332 222.852 299.044 222.777 299.531 223.166C300.018 223.56 300.097 224.271 299.703 224.758C289.036 237.985 275.453 246.004 256.955 250C256.875 250.018 256.791 250.027 256.712 250.027Z" fill="#2E2020"/>
<path d="M329.918 132.792C329.258 132.774 328.767 132.252 328.785 131.629C328.82 130.409 328.776 129.003 328.732 127.518C328.48 119.043 328.095 106.236 341.669 100.365C351.898 95.9444 366.693 96.1876 376.856 100.949C382.329 103.513 385.895 107.147 387.16 111.453C387.337 112.054 386.992 112.682 386.391 112.858C385.789 113.035 385.161 112.69 384.984 112.089C383.904 108.424 380.763 105.281 375.891 103C366.264 98.4908 352.252 98.2565 342.567 102.443C330.404 107.704 330.745 119.114 330.997 127.447C331.041 128.968 331.086 130.405 331.05 131.687C331.037 132.301 330.533 132.792 329.918 132.792Z" fill="#2E2020"/>
<path d="M303.668 214.254C302.681 214.254 301.787 214.068 301.044 213.692C300.487 213.409 300.261 212.728 300.544 212.171C300.827 211.614 301.509 211.389 302.066 211.672C304.69 212.998 312.512 210.041 316.326 202.512C316.609 201.955 317.29 201.729 317.848 202.012C318.405 202.295 318.631 202.976 318.348 203.533C316.437 207.313 313.393 210.483 309.778 212.454C307.605 213.639 305.468 214.254 303.668 214.254Z" fill="#2E2020"/>
<path d="M152.522 137.716C152.031 137.716 151.584 137.398 151.434 136.903C150.217 132.801 147.615 127.367 142.102 124.772C136.753 122.253 129.652 122.841 120.989 126.519C120.476 126.735 119.888 126.55 119.587 126.085C119.29 125.617 119.374 125.002 119.79 124.635C119.976 124.467 124.436 120.52 130.803 117.403C139.364 113.208 147.235 112.615 153.562 115.688C154.128 115.962 154.362 116.638 154.088 117.2C153.814 117.761 153.137 117.995 152.575 117.721C143.762 113.442 133.563 118.035 127.272 121.978C133.422 120.427 138.718 120.674 143.067 122.721C148.027 125.06 151.672 129.741 153.606 136.258C153.783 136.859 153.438 137.487 152.84 137.663C152.739 137.699 152.628 137.716 152.522 137.716Z" fill="#2E2020"/>
<path d="M163.503 198.043C163.362 198.043 163.216 198.016 163.078 197.959C150.814 192.968 140.2 186.027 131.537 177.331C124.029 169.794 118.392 161.293 115.238 152.743C108.552 134.6 117.733 126.063 120.711 123.879C121.215 123.508 121.923 123.619 122.294 124.123C122.666 124.627 122.556 125.334 122.056 125.705C118.658 128.203 111.397 135.758 117.37 151.96C124.148 170.342 141.558 186.752 163.937 195.863C164.516 196.097 164.795 196.761 164.561 197.34C164.375 197.777 163.95 198.043 163.503 198.043Z" fill="#2E2020"/>
<path d="M159.548 186.239C159.442 186.239 159.335 186.226 159.229 186.195C151.929 184.077 144.465 179.281 137.656 172.336C131.621 166.178 126.281 158.49 122.622 150.692C116.326 137.27 123.856 125.285 128.489 121.581C128.975 121.192 129.692 121.267 130.081 121.758C130.471 122.248 130.396 122.96 129.904 123.349C125.892 126.554 119.007 137.65 124.675 149.728C131.183 163.605 144.589 179.586 159.862 184.02C160.464 184.192 160.809 184.825 160.636 185.426C160.495 185.917 160.043 186.239 159.548 186.239Z" fill="#2E2020"/>
<path d="M169.498 240.425C163.229 240.425 157.725 238.4 154.619 234.912C150.04 229.766 151.867 223.506 151.951 223.241C152.124 222.675 152.699 222.335 153.278 222.463C153.858 222.591 154.239 223.144 154.154 223.728C153.986 224.903 154.455 226.208 155.477 227.401C157.327 229.563 160.605 230.889 164.251 230.938C170.113 231.013 173.728 228.436 175.321 223.029C175.498 222.428 176.13 222.087 176.728 222.264C177.329 222.441 177.67 223.073 177.493 223.67C175.648 229.912 171.162 233.201 164.512 233.201C164.415 233.201 164.317 233.201 164.216 233.201C160.083 233.139 156.437 231.716 154.11 229.267C154.451 230.611 155.115 232.052 156.309 233.4C159.114 236.552 164.574 238.365 170.556 238.135C176.843 237.887 182.271 235.535 185.077 231.835C185.453 231.336 186.165 231.238 186.665 231.619C187.165 231.994 187.262 232.706 186.882 233.206C183.67 237.441 177.599 240.129 170.64 240.398C170.264 240.42 169.879 240.425 169.498 240.425Z" fill="#2E2020"/>
<path d="M168.671 231.247C167.308 231.247 166.065 230.933 164.95 230.297C162.083 228.665 160.95 225.39 160.543 223.679L153.119 224.395C152.5 224.457 151.942 223.997 151.88 223.378C151.818 222.755 152.279 222.202 152.898 222.14L161.349 221.322C161.959 221.265 162.508 221.703 162.583 222.313C162.587 222.352 163.167 226.685 166.078 228.329C167.795 229.302 170.078 229.174 172.856 227.945C173.432 227.693 174.1 227.949 174.352 228.524C174.604 229.094 174.343 229.766 173.772 230.018C171.927 230.836 170.219 231.247 168.671 231.247Z" fill="#2E2020"/>
<path d="M287.545 235.88C286.859 235.845 286.377 235.31 286.413 234.687C286.691 229.598 284.961 225.151 281.267 221.473C271.197 211.442 248.876 208.975 232.82 209.908C216.158 210.876 205.38 215.708 199.274 219.59C192.284 224.032 188.514 229.094 187.974 231.919C187.855 232.534 187.262 232.936 186.647 232.817C186.032 232.697 185.63 232.105 185.749 231.49C186.355 228.343 189.939 222.839 198.058 217.68C204.389 213.652 215.538 208.648 232.687 207.649C242.248 207.092 252.124 207.751 260.495 209.501C270.542 211.601 278.068 215.089 282.864 219.868C287.036 224.024 288.988 229.05 288.674 234.81C288.643 235.416 288.143 235.88 287.545 235.88Z" fill="#2E2020"/>
<path d="M210.353 174.307C209.017 174.307 207.902 173.26 207.836 171.911C207.716 169.52 204.938 113.146 205.398 98.0576C205.442 96.665 206.597 95.5731 207.999 95.6129C209.393 95.6571 210.49 96.8197 210.446 98.2123C209.99 113.102 212.853 171.08 212.879 171.664C212.95 173.056 211.875 174.237 210.486 174.307C210.437 174.307 210.393 174.307 210.353 174.307Z" fill="#C4A259"/>
<path d="M190.943 101.74C189.992 101.74 189.081 101.201 188.651 100.281C188.063 99.0169 188.612 97.5182 189.877 96.9303C194.863 94.6094 217.587 90.8915 226.776 92.6067C228.148 92.8631 229.051 94.1805 228.794 95.5466C228.537 96.917 227.223 97.8189 225.852 97.5625C218.007 96.0992 196.217 99.543 192.005 101.501C191.66 101.665 191.302 101.74 190.943 101.74Z" fill="#C4A259"/>
<path d="M194.638 180.903C193.686 180.903 192.775 180.364 192.346 179.444C191.757 178.18 192.306 176.681 193.571 176.093C198.558 173.773 221.281 170.059 230.471 171.77C231.842 172.026 232.745 173.344 232.488 174.714C232.232 176.085 230.918 176.986 229.546 176.73C221.702 175.267 199.911 178.711 195.699 180.669C195.359 180.828 194.996 180.903 194.638 180.903Z" fill="#C4A259"/>
<path d="M147.969 148.663C147.969 148.663 155.637 146.258 155.637 132.894C155.637 132.894 154.769 145.555 164.149 148.287C164.149 148.287 155.438 153.167 156.154 164.882C156.159 164.882 155.508 151.518 147.969 148.663Z" fill="white"/>
<path d="M154.544 109.507C154.544 109.507 160.057 107.651 160.057 97.3281C160.057 97.3281 159.433 107.107 166.18 109.22C166.18 109.22 159.915 112.991 160.428 122.036C160.433 122.036 159.964 111.709 154.544 109.507Z" fill="white"/>
<path d="M148.513 304.371C148.513 304.371 153.181 302.935 153.181 294.951C153.181 294.951 152.655 302.515 158.358 304.15C158.358 304.15 153.062 307.068 153.495 314.066C153.495 314.062 153.102 306.078 148.513 304.371Z" fill="white"/>
<path d="M256.468 258.347C256.079 258.347 255.699 258.143 255.486 257.781C253.562 254.47 250.057 249.58 248.283 249.09C247.682 248.922 247.328 248.298 247.496 247.697C247.664 247.096 248.288 246.742 248.889 246.91C252.186 247.825 256.597 255.182 257.446 256.649C257.76 257.189 257.575 257.883 257.035 258.196C256.858 258.294 256.659 258.347 256.468 258.347Z" fill="#2E2020"/>
<path d="M256.468 268.063C256.145 268.063 255.822 267.926 255.601 267.661L247.553 258.112C247.151 257.635 247.213 256.919 247.69 256.516C248.168 256.114 248.885 256.176 249.288 256.653L257.336 266.202C257.738 266.68 257.676 267.396 257.198 267.798C256.982 267.975 256.725 268.063 256.468 268.063Z" fill="#2E2020"/>
<path d="M256.637 278.952C256.331 278.952 256.026 278.828 255.805 278.589L247.589 269.708C247.164 269.248 247.19 268.532 247.651 268.108C248.111 267.683 248.827 267.71 249.252 268.169L257.468 277.051C257.893 277.511 257.867 278.227 257.406 278.651C257.185 278.854 256.911 278.952 256.637 278.952Z" fill="#2E2020"/>
<path d="M279.665 215.796C279.542 215.796 279.418 215.77 279.303 215.708C278.905 215.505 278.745 215.018 278.944 214.621C279.002 214.506 284.749 203.042 289.727 182.313C294.323 163.18 299.186 132.014 296.257 92.2C296.226 91.7535 296.562 91.3645 297.005 91.3335C297.447 91.3026 297.841 91.6342 297.872 92.0807C300.814 132.137 295.912 163.503 291.279 182.76C286.258 203.653 280.44 215.244 280.382 215.359C280.245 215.633 279.962 215.796 279.665 215.796Z" fill="#2E2020"/>
<path d="M203.553 320.582C203.159 320.582 202.814 320.295 202.752 319.893C202.686 319.451 202.991 319.04 203.433 318.973C207.738 318.332 229.307 311.657 229.524 311.591C229.949 311.458 230.404 311.697 230.537 312.125C230.67 312.554 230.431 313.005 230.002 313.138C229.108 313.416 208.097 319.915 203.668 320.574C203.637 320.578 203.593 320.582 203.553 320.582Z" fill="#2E2020"/>
<path d="M209.49 324.893C209.141 324.893 208.818 324.663 208.716 324.314C208.588 323.885 208.836 323.434 209.265 323.306L231.258 316.803C231.687 316.679 232.139 316.922 232.263 317.351C232.391 317.78 232.143 318.231 231.714 318.354L209.72 324.857C209.641 324.884 209.566 324.893 209.49 324.893Z" fill="#2E2020"/>
<path d="M315.432 336.449C315.207 336.449 314.981 336.383 314.786 336.245L309.004 332.218C308.49 331.86 308.362 331.153 308.72 330.64C309.079 330.127 309.787 330.003 310.3 330.357L316.083 334.384C316.596 334.742 316.72 335.45 316.361 335.963C316.14 336.281 315.791 336.449 315.432 336.449Z" fill="#2E2020"/>
<path d="M52.4688 292.281C52.1502 292.281 51.8361 292.148 51.6105 291.892C51.199 291.419 51.2521 290.703 51.7211 290.296L131.05 221.491C131.524 221.08 132.24 221.133 132.648 221.606C133.059 222.079 133.006 222.795 132.532 223.202L53.2077 292.002C52.9953 292.188 52.7298 292.281 52.4688 292.281Z" fill="white"/>
<path d="M64.9456 321.652C64.6934 321.652 64.4456 321.568 64.2332 321.4C63.7466 321.007 63.6713 320.295 64.0651 319.809L135.74 231.296C136.134 230.81 136.846 230.734 137.333 231.128C137.82 231.521 137.895 232.233 137.501 232.719L65.826 321.232C65.6048 321.507 65.2774 321.652 64.9456 321.652Z" fill="white"/>
<path d="M113.034 109.348C112.857 109.348 112.68 109.309 112.512 109.22L17.2153 59.831C16.6622 59.5436 16.441 58.8584 16.733 58.3058C17.0206 57.7488 17.7064 57.5322 18.2595 57.824L113.556 107.213C114.114 107.5 114.331 108.186 114.043 108.738C113.839 109.123 113.446 109.348 113.034 109.348Z" fill="white"/>
<path d="M108.03 116.452C107.893 116.452 107.756 116.426 107.623 116.377L35.1385 88.4467C34.5545 88.2212 34.2625 87.567 34.4881 86.9834C34.7138 86.3999 35.3686 86.1081 35.9526 86.3336L108.433 114.264C109.017 114.49 109.305 115.144 109.079 115.727C108.915 116.178 108.482 116.452 108.03 116.452Z" fill="white"/>
<path d="M123.901 98.2168C123.666 98.2168 123.427 98.1416 123.224 97.9913L61.0609 51.5023C60.561 51.1265 60.4592 50.4192 60.8353 49.9152C61.2114 49.4157 61.9193 49.314 62.4237 49.6853L124.586 96.17C125.086 96.5457 125.188 97.2531 124.816 97.757C124.586 98.0576 124.246 98.2168 123.901 98.2168Z" fill="white"/>
<path d="M443.107 312.064C442.894 312.064 442.678 312.002 442.487 311.878L337.899 243.471C337.373 243.13 337.227 242.427 337.572 241.901C337.912 241.38 338.616 241.234 339.142 241.574L443.731 309.981C444.253 310.322 444.399 311.025 444.058 311.551C443.841 311.882 443.478 312.064 443.107 312.064Z" fill="white"/>
<path d="M417.255 271.114C417.087 271.114 416.914 271.079 416.755 270.999L344.894 235.509C344.332 235.23 344.102 234.554 344.381 233.992C344.66 233.431 345.337 233.201 345.899 233.48L417.759 268.97C418.321 269.248 418.551 269.925 418.273 270.486C418.078 270.88 417.675 271.114 417.255 271.114Z" fill="white"/>
<path d="M103.668 308.284C103.464 308.284 103.261 308.231 103.079 308.116C102.544 307.789 102.376 307.09 102.703 306.56L142.271 241.91C142.598 241.375 143.297 241.207 143.828 241.534C144.363 241.861 144.531 242.555 144.204 243.09L104.637 307.74C104.42 308.094 104.048 308.284 103.668 308.284Z" fill="white"/>
<path d="M1.13264 211.398C0.637111 211.398 0.185824 211.071 0.0442435 210.576C-0.128308 209.974 0.221219 209.347 0.822936 209.174L111.207 177.751C111.809 177.579 112.437 177.928 112.609 178.529C112.782 179.131 112.433 179.758 111.831 179.931L1.44235 211.354C1.34059 211.385 1.2344 211.398 1.13264 211.398Z" fill="white"/>
<path d="M5.80037 242.202C5.3889 242.202 4.9907 241.976 4.78718 241.583C4.50402 241.026 4.72524 240.345 5.28714 240.062L114.025 184.842C114.583 184.559 115.269 184.78 115.552 185.337C115.835 185.894 115.614 186.575 115.056 186.858L6.30917 242.078C6.14547 242.162 5.97292 242.202 5.80037 242.202Z" fill="white"/>
<path d="M13.8129 174.52C13.2422 174.52 12.7511 174.091 12.6891 173.507C12.6228 172.884 13.0696 172.327 13.6935 172.261L100.951 162.822C101.575 162.751 102.133 163.207 102.199 163.826C102.265 164.449 101.818 165.006 101.195 165.072L13.9324 174.511C13.8926 174.515 13.8528 174.52 13.8129 174.52Z" fill="white"/>
<path d="M327.86 62.205C327.626 62.205 327.387 62.1343 327.183 61.984C326.683 61.6126 326.577 60.9009 326.949 60.4013L371.503 0.455401C371.874 -0.0441487 372.586 -0.150248 373.086 0.221099C373.591 0.592445 373.693 1.30419 373.321 1.80374L328.767 61.7452C328.546 62.0458 328.205 62.205 327.86 62.205Z" fill="white"/>
<path d="M337.957 69.1986C337.674 69.1986 337.39 69.0925 337.169 68.8803C336.718 68.4471 336.709 67.7309 337.143 67.28L379.09 23.9607C379.524 23.5098 380.245 23.5009 380.692 23.9342C381.143 24.3674 381.152 25.0836 380.718 25.5345L338.771 68.8538C338.55 69.0793 338.253 69.1986 337.957 69.1986Z" fill="white"/>
<path d="M341.412 81.5415C341.045 81.5415 340.691 81.3646 340.47 81.0419C340.12 80.5203 340.257 79.8174 340.78 79.4681L434.187 16.7813C434.705 16.4321 435.413 16.5735 435.762 17.0908C436.112 17.608 435.97 18.3153 435.453 18.6646L342.045 81.3514C341.846 81.4796 341.625 81.5415 341.412 81.5415Z" fill="white"/>
<path d="M497.867 225.77C497.81 225.77 497.748 225.765 497.69 225.757L357.092 203.471C356.473 203.374 356.052 202.795 356.15 202.176C356.247 201.557 356.827 201.137 357.446 201.234L498.044 223.52C498.664 223.617 499.084 224.196 498.987 224.815C498.898 225.372 498.416 225.77 497.867 225.77Z" fill="white"/>
<path d="M466.839 204.453C466.817 204.453 466.79 204.453 466.764 204.448L361.556 197.667C360.933 197.627 360.459 197.088 360.499 196.464C360.539 195.841 361.07 195.364 361.702 195.408L466.91 202.189C467.534 202.229 468.007 202.768 467.967 203.392C467.932 203.993 467.432 204.453 466.839 204.453Z" fill="white"/>
<path d="M157.906 61.8249C157.521 61.8249 157.145 61.6259 156.933 61.2723L141.625 35.5477C141.306 35.0084 141.483 34.3143 142.018 33.996C142.558 33.6777 143.253 33.8545 143.571 34.3894L158.88 60.114C159.198 60.6534 159.021 61.3474 158.486 61.6657C158.305 61.7718 158.105 61.8249 157.906 61.8249Z" fill="white"/>
<path d="M165.477 57.8639C165.069 57.8639 164.671 57.6428 164.472 57.2582L148.624 27.0068C148.332 26.4542 148.549 25.7689 149.102 25.4772C149.655 25.1854 150.341 25.402 150.633 25.9546L166.481 56.2061C166.773 56.7587 166.556 57.4439 166.003 57.7357C165.835 57.8241 165.654 57.8639 165.477 57.8639Z" fill="white"/>
<path d="M297.54 58.0803C297.403 58.0803 297.261 58.0538 297.124 58.0007C296.54 57.7708 296.252 57.1166 296.483 56.533L318.228 1.16704C318.458 0.583492 319.113 0.29614 319.697 0.526021C320.281 0.755902 320.569 1.41018 320.339 1.99372L298.593 57.3597C298.416 57.8062 297.991 58.0803 297.54 58.0803Z" fill="white"/>
<path d="M100.832 412C100.677 412 100.518 411.969 100.363 411.898C99.792 411.638 99.5399 410.966 99.8009 410.4L170.666 254.624C170.927 254.054 171.595 253.802 172.166 254.063C172.737 254.324 172.989 254.996 172.728 255.562L101.863 411.337C101.672 411.753 101.261 412 100.832 412Z" fill="white"/>
<path d="M97.0578 293.934C97.0578 293.934 102.057 292.369 102.057 283.656C102.057 283.656 101.491 291.909 107.605 293.686C107.605 293.686 101.929 296.869 102.394 304.504C102.394 304.504 101.973 295.795 97.0578 293.934Z" fill="white"/>
<path d="M109.995 200.408C109.995 200.408 115.056 198.945 115.056 190.806C115.056 190.806 114.485 198.516 120.675 200.182C120.675 200.182 114.928 203.153 115.397 210.288C115.401 210.288 114.972 202.145 109.995 200.408Z" fill="white"/>
<path d="M17.4454 80.3169C17.4454 80.3169 21.5158 79.0039 21.5158 71.6875C21.5158 71.6875 21.0601 78.6149 26.0287 80.1135C26.0287 80.1135 21.4096 82.7837 21.7901 89.1982C21.7901 89.1938 21.445 81.8774 17.4454 80.3169Z" fill="white"/>
</g>
<defs>
<clipPath id="clip0_6_738">
<rect width="499" height="412" fill="white"/>
</clipPath>
</defs>
</svg>
