<svg width="749" height="655" viewBox="0 0 749 655" fill="none" xmlns="http://www.w3.org/2000/svg">
<path d="M170.998 563.097L167.599 563.328C141.9 477.55 177.017 393.692 244.264 380.199C256.953 377.66 270.962 377.146 284.5 376.646C315.616 375.507 344.999 374.432 361.173 351.179C370.535 337.73 373.308 318.624 375.989 300.139C378.309 284.064 380.732 267.468 387.403 254.088C403.677 221.472 440.383 214.675 475.905 208.128C513.58 201.181 549.156 194.6 563.19 160.149C572.085 138.329 569.109 108.247 555.441 81.7055C541.756 55.1389 518.203 33.7086 493.994 25.7585L493.983 21.7855C519.39 30.1109 544.081 52.5883 558.433 80.4616C572.769 108.31 575.898 139.845 566.569 162.749C552.001 198.486 514.112 205.497 477.46 212.26C442.537 218.712 406.432 225.378 390.699 256.88C384.268 269.793 381.879 286.121 379.593 301.928C376.855 320.766 374.023 340.261 364.274 354.305C347.428 378.544 316.033 379.683 285.687 380.797C272.238 381.277 258.333 381.796 245.873 384.296C180.181 397.483 145.922 479.359 170.998 563.097Z" fill="#FFCBA5" fill-opacity="0.28"/>
<path d="M256.683 691.155C246.725 691.064 236.205 685.76 226.273 675.825C213.402 662.943 203.609 644.15 200.722 626.799C195.981 598.424 204.49 574.133 214.372 549.65C223.075 528.091 232.972 503.633 228.99 475.134C226.787 459.397 220.406 443.218 214.254 427.564C211.923 421.63 209.499 415.507 207.349 409.459C197.019 380.611 195.596 358.855 203.166 344.77C213.05 326.343 236.451 325.783 249.511 327.063C256.881 327.791 264.484 329.255 271.829 330.669C282.555 332.709 293.641 334.839 304.033 334.693C336.396 334.25 361.752 310.377 367.102 275.282C370.456 253.31 366.379 228.252 362.46 204.011C359.017 182.747 355.445 160.754 356.737 140.499C360.485 81.2239 412.157 45.4146 467.29 63.8638L467.283 67.8482C413.945 49.9989 363.985 84.6631 360.344 141.969C359.085 161.711 362.62 183.445 366.009 204.461C369.994 229.048 374.116 254.501 370.67 277.094C365.094 313.563 338.754 338.371 305.116 338.84C294.426 338.996 283.168 336.833 272.288 334.749C265.011 333.362 257.494 331.916 250.262 331.206C237.829 329.955 215.601 330.449 206.39 347.607C199.332 360.772 200.774 381.39 210.629 408.915C212.767 414.865 215.157 420.974 217.475 426.846C223.765 442.8 230.248 459.304 232.534 475.657C236.69 505.28 226.606 530.207 217.701 552.211C207.637 577.09 199.693 599.899 204.239 627.199C206.952 643.425 216.091 660.974 228.141 673.032C234.443 679.363 244.335 686.893 255.655 686.975L256.683 691.155Z" fill="#FFCBA5" fill-opacity="0.28"/>
</svg>
