<svg width="24" height="24" viewBox="0 0 24 24" fill="none" xmlns="http://www.w3.org/2000/svg">
<path d="M22.7156 0.09375H1.28437C0.628125 0.09375 0.09375 0.628125 0.09375 1.28437V17.9531C0.09375 18.6094 0.628125 19.1437 1.28437 19.1437H7.2375V21.525H6.04688C5.39062 21.525 4.85625 22.0594 4.85625 22.7156C4.85625 23.3719 5.39062 23.9062 6.04688 23.9062H11.5219C11.7844 23.9062 12 23.6953 12 23.4281V16.05C12 15.7875 11.7891 15.5719 11.5219 15.5719H2.475V2.475H21.525V6.75937C21.525 7.02187 21.7359 7.2375 22.0031 7.2375H23.4328C23.6953 7.2375 23.9109 7.02656 23.9109 6.75937V1.28437C23.9062 0.628125 23.3719 0.09375 22.7156 0.09375Z" fill="black"/>
<path d="M23.4281 9.6189H14.8593C14.5968 9.6189 14.3812 9.82983 14.3812 10.097V23.433C14.3812 23.6955 14.5921 23.9111 14.8593 23.9111H23.4328C23.6953 23.9111 23.9109 23.7001 23.9109 23.433V10.097C23.9062 9.82983 23.6953 9.6189 23.4281 9.6189ZM21.5249 20.3345H16.7624V12.0001H21.5249V20.3345Z" fill="black"/>
</svg>
