<svg width="40" height="31" viewBox="0 0 40 31" fill="none" xmlns="http://www.w3.org/2000/svg">
<path d="M33.8617 3.48679C31.3117 2.33679 28.5783 1.48679 25.72 1.00345C25.6945 0.998565 25.6682 1.00171 25.6446 1.01246C25.621 1.02321 25.6014 1.04103 25.5883 1.06345C25.2383 1.67845 24.8483 2.48012 24.575 3.11345C21.5435 2.66051 18.4615 2.66051 15.43 3.11345C15.1256 2.41155 14.7823 1.72716 14.4017 1.06345C14.3888 1.04076 14.3693 1.02254 14.3457 1.01122C14.3222 0.999903 14.2958 0.99603 14.27 1.00012C11.4133 1.48345 8.68001 2.33345 6.12834 3.48512C6.10639 3.49433 6.08778 3.51003 6.07501 3.53012C0.888341 11.1551 -0.533326 18.5918 0.165008 25.9351C0.166951 25.9531 0.172533 25.9705 0.181416 25.9863C0.190298 26.002 0.202294 26.0158 0.216674 26.0268C3.24399 28.2308 6.62057 29.9098 10.205 30.9935C10.23 31.0011 10.2567 31.0011 10.2817 30.9934C10.3067 30.9857 10.3287 30.9706 10.345 30.9501C11.115 29.9168 11.8017 28.8251 12.3883 27.6785C12.4233 27.6118 12.39 27.5318 12.32 27.5051C11.2433 27.0997 10.2001 26.6104 9.20001 26.0418C9.18204 26.0315 9.16689 26.017 9.15594 25.9994C9.14498 25.9819 9.13855 25.9619 9.13723 25.9412C9.13591 25.9206 9.13973 25.8999 9.14836 25.8811C9.15699 25.8623 9.17016 25.8459 9.18667 25.8335C9.39667 25.6785 9.60667 25.5168 9.80667 25.3551C9.82468 25.3406 9.84636 25.3313 9.86931 25.3284C9.89227 25.3254 9.91559 25.3289 9.93667 25.3385C16.4817 28.2785 23.57 28.2785 30.0383 25.3385C30.0595 25.3284 30.083 25.3244 30.1063 25.3271C30.1296 25.3297 30.1517 25.3389 30.17 25.3535C30.37 25.5168 30.5783 25.6785 30.79 25.8335C30.8067 25.8457 30.8201 25.8618 30.829 25.8805C30.8379 25.8991 30.842 25.9197 30.841 25.9403C30.84 25.9609 30.8339 25.981 30.8233 25.9987C30.8126 26.0164 30.7978 26.0312 30.78 26.0418C29.7833 26.6151 28.7467 27.1001 27.6583 27.5035C27.6416 27.5095 27.6264 27.5191 27.6137 27.5315C27.601 27.5439 27.591 27.5589 27.5846 27.5755C27.5781 27.592 27.5752 27.6098 27.5762 27.6276C27.5771 27.6453 27.5818 27.6627 27.59 27.6785C28.19 28.8235 28.8767 29.9135 29.6317 30.9485C29.6474 30.9697 29.6692 30.9856 29.6943 30.9939C29.7193 31.0023 29.7464 31.0027 29.7717 30.9951C33.3623 29.9145 36.7443 28.2347 39.775 26.0268C39.7898 26.0164 39.8022 26.0031 39.8114 25.9876C39.8206 25.972 39.8264 25.9547 39.8283 25.9368C40.6617 17.4468 38.4317 10.0701 33.9133 3.53345C33.9023 3.51221 33.8839 3.49565 33.8617 3.48679ZM13.3667 21.4635C11.3967 21.4635 9.77167 19.6818 9.77167 17.4968C9.77167 15.3101 11.365 13.5301 13.3667 13.5301C15.3833 13.5301 16.9933 15.3251 16.9617 17.4968C16.9617 19.6835 15.3683 21.4635 13.3667 21.4635ZM26.6583 21.4635C24.6867 21.4635 23.0633 19.6818 23.0633 17.4968C23.0633 15.3101 24.655 13.5301 26.6583 13.5301C28.675 13.5301 30.285 15.3251 30.2533 17.4968C30.2533 19.6835 28.6767 21.4635 26.6583 21.4635Z" fill="white"/>
</svg>
