<svg width="20" height="32" viewBox="0 0 20 32" fill="none" xmlns="http://www.w3.org/2000/svg">
<path d="M10.05 0.394043V11.8648C10.05 11.914 10 11.9633 9.95 11.9633C9.6 12.111 9.3 12.2587 8.95 12.4064C8.5 12.6033 8 12.8002 7.55 13.0464L5.9 13.7848L4.55 14.3756L2.9 15.114C2.45 15.311 2 15.5079 1.5 15.754C1.15 15.9017 0.75 16.0987 0.4 16.2464C0.35 16.2464 0.35 16.2956 0.3 16.2464H0.25C0.4 16.0002 0.55 15.8033 0.7 15.5571C1.5 14.2279 2.35 12.8987 3.15 11.5694C4 10.1417 4.9 8.71404 5.75 7.28635C6.55 5.95712 7.35 4.62789 8.15 3.34789C8.75 2.36327 9.35 1.42789 9.9 0.443274C10 0.443274 10 0.394043 10.05 0.394043C10.05 0.394043 10 0.394043 10.05 0.394043Z" fill="#F2954B"/>
<path d="M19.75 16.2464C19 16.7387 18.2 17.1818 17.45 17.6248C15 19.0525 12.6 20.431 10.15 21.8587C10.1 21.8587 10.1 21.9079 10.05 21.9079C10 21.9079 10 21.8587 10 21.8587V21.711V12.111V11.9633C10 11.9141 10.05 11.9141 10.1 11.9141C10.3 12.0125 10.5 12.111 10.75 12.2094C11.35 12.5048 12 12.751 12.6 13.0464C13.15 13.2925 13.65 13.5387 14.2 13.7356C14.75 13.9818 15.25 14.2279 15.8 14.4741C16.25 14.671 16.75 14.8679 17.2 15.1141C17.65 15.311 18.15 15.5079 18.6 15.7541C18.95 15.9018 19.3 16.0987 19.7 16.2464C19.7 16.1971 19.7 16.2464 19.75 16.2464Z" fill="#895023"/>
<path d="M10.05 31.5572C10.05 31.5572 10 31.5572 10.05 31.5572C10 31.5572 10 31.5572 9.95 31.508C8.95 30.1295 8 28.8003 7 27.4218L4 23.2864C3.05 21.9572 2.05 20.628 1.1 19.2495L0.349999 18.2156C0.349999 18.1664 0.299999 18.1664 0.299999 18.1172C0.349999 18.1172 0.349999 18.1664 0.399999 18.1664C1.75 18.9541 3.15 19.7418 4.5 20.5295C6.05 21.4649 7.65 22.351 9.2 23.2864C9.45 23.4341 9.75 23.5818 10 23.7295C10.05 23.7295 10.05 23.7787 10.05 23.828V31.5572Z" fill="#F2954B"/>
<path d="M0.299999 16.2466C0.299999 16.2466 0.349999 16.2466 0.299999 16.2466C0.349999 16.2466 0.349999 16.2466 0.299999 16.2466C0.299999 16.2958 0.299999 16.2958 0.299999 16.2466Z" fill="#808080"/>
<path d="M0.350002 16.2955C0.350002 16.2463 0.350002 16.2463 0.350002 16.2955C0.850002 16.0494 1.35 15.8524 1.85 15.6063L3.8 14.7201C4.3 14.474 4.8 14.2771 5.3 14.0309C6 13.6863 6.75 13.3909 7.45 13.0463C7.95 12.8494 8.45 12.6032 8.95 12.4063C9.3 12.2586 9.65 12.1109 10 11.914C10.05 11.914 10.05 11.8647 10.1 11.8647V21.9078C10.05 21.9571 10.05 21.9078 10 21.9078C9.85 21.8094 9.7 21.7601 9.6 21.6617L0.450002 16.3447C0.400002 16.2955 0.350002 16.2955 0.350002 16.2955ZM19.7 18.1171C19.7 18.1663 19.7 18.1663 19.65 18.2155C16.75 22.2524 13.85 26.2401 10.95 30.2771C10.65 30.7201 10.35 31.114 10.05 31.5571V31.5078V31.4094V23.8771V23.7294C10.7 23.3355 11.35 22.9417 12 22.5971L19.65 18.1663C19.65 18.1171 19.7 18.1171 19.7 18.1171Z" fill="#CA7531"/>
<path d="M10.05 11.9141V11.8157V0.541821V0.443359L19.65 16.0987C19.7 16.148 19.75 16.1972 19.75 16.2464C19.55 16.148 19.35 16.0495 19.1 15.9511C18.85 15.8526 18.6 15.7049 18.35 15.6064C18.2 15.5572 18.05 15.4587 17.85 15.4095C17.6 15.3111 17.3 15.1634 17.05 15.0649C16.9 15.0157 16.75 14.9172 16.6 14.868L15.55 14.4249C15.35 14.3264 15.2 14.2772 15 14.1787C14.75 14.0803 14.5 13.9326 14.25 13.8341C14.1 13.7849 13.95 13.6864 13.8 13.6372L12.75 13.1941C12.55 13.0957 12.4 13.0464 12.2 12.948C11.95 12.8495 11.7 12.7018 11.45 12.6034C11.3 12.5049 11.1 12.4557 10.95 12.3572L10.05 11.9141Z" fill="#CA7531"/>
</svg>
