<svg width="24" height="24" viewBox="0 0 24 24" fill="none" xmlns="http://www.w3.org/2000/svg">
<path d="M12 2.27612C6.53246 2.27612 2.08496 6.40112 2.08496 11.4861C2.08745 12.6799 2.33275 13.8606 2.80594 14.9565C3.27913 16.0525 3.97032 17.0407 4.83746 17.8611L4.30121 21.0749C4.28536 21.1793 4.29903 21.2861 4.34068 21.3831C4.38233 21.4802 4.45029 21.5637 4.53689 21.6241C4.62349 21.6846 4.72527 21.7196 4.83073 21.7253C4.9362 21.7309 5.04114 21.707 5.13371 21.6561L8.10746 19.9724C9.34557 20.4673 10.6666 20.7218 12 20.7224C17.4675 20.7224 21.915 16.5974 21.915 11.5049C21.915 6.41237 17.4675 2.27612 12 2.27612ZM17.6962 11.2499L17.25 14.6249C17.1939 15.0288 16.9938 15.3989 16.6864 15.6669C16.3791 15.935 15.9853 16.083 15.5775 16.0836H12.585C11.9387 16.0846 11.2974 15.9704 10.6912 15.7461L9.67496 15.3749C9.57294 15.4684 9.4383 15.5182 9.29996 15.5136H6.84746C6.69828 15.5136 6.5552 15.4544 6.44971 15.3489C6.34422 15.2434 6.28496 15.1003 6.28496 14.9511V9.95987C6.28496 9.81069 6.34422 9.66762 6.44971 9.56213C6.5552 9.45664 6.69828 9.39737 6.84746 9.39737H9.31121C9.44917 9.39506 9.58298 9.44457 9.68621 9.53612C10.2562 9.31862 10.86 8.99612 10.9875 8.71862C11.1788 8.19881 11.2418 7.64051 11.1712 7.09112C11.1712 6.88487 11.1525 6.67862 11.1525 6.46487C11.1539 6.28718 11.2063 6.11364 11.3033 5.96477C11.4003 5.8159 11.538 5.69795 11.7 5.62487C12.0269 5.50674 12.3797 5.47923 12.721 5.54524C13.0623 5.61126 13.3794 5.76835 13.6387 5.99987C14.1037 6.37487 14.79 7.23737 14.5762 8.91737H15.6525C15.9457 8.91872 16.2352 8.98235 16.502 9.10402C16.7687 9.2257 17.0066 9.40266 17.1998 9.62318C17.3931 9.84371 17.5372 10.1028 17.6228 10.3832C17.7084 10.6636 17.7334 10.959 17.6962 11.2499ZM7.40996 10.4999H8.74871V14.3624H7.40996V10.4999ZM16.3575 10.3349C16.4468 10.4362 16.5129 10.5558 16.5511 10.6854C16.5893 10.8149 16.5987 10.9513 16.5787 11.0849L16.1175 14.4599C16.0984 14.5944 16.0314 14.7175 15.9287 14.8064C15.826 14.8953 15.6946 14.9441 15.5587 14.9436H12.585C12.0732 14.9439 11.5654 14.8537 11.085 14.6774L9.87371 14.2499V10.6649C10.5225 10.4436 11.6475 9.95987 12 9.19487C12.2738 8.51389 12.3731 7.77525 12.2887 7.04612C12.2887 6.90362 12.2887 6.76112 12.2887 6.61862C12.5236 6.61973 12.7505 6.70336 12.93 6.85487C13.2562 7.11362 13.7475 7.78112 13.3687 9.34112C13.3482 9.4236 13.3467 9.50968 13.3645 9.59281C13.3822 9.67593 13.4187 9.75391 13.4711 9.82081C13.5236 9.88771 13.5906 9.94176 13.6671 9.97886C13.7435 10.016 13.8275 10.0351 13.9125 10.0349H15.6675C15.7988 10.0366 15.9282 10.0663 16.0471 10.1219C16.1661 10.1775 16.2719 10.2578 16.3575 10.3574V10.3349Z" fill="#222222"/>
</svg>
