<svg width="24" height="24" viewBox="0 0 24 24" fill="none" xmlns="http://www.w3.org/2000/svg">
<path d="M12 1.5C9.9233 1.5 7.89323 2.11581 6.16652 3.26957C4.4398 4.42332 3.09399 6.0632 2.29927 7.98182C1.50455 9.90045 1.29661 12.0116 1.70176 14.0484C2.1069 16.0852 3.10693 17.9562 4.57538 19.4246C6.04383 20.8931 7.91476 21.8931 9.95156 22.2982C11.9884 22.7034 14.0996 22.4955 16.0182 21.7007C17.9368 20.906 19.5767 19.5602 20.7304 17.8335C21.8842 16.1068 22.5 14.0767 22.5 12C22.5 9.21523 21.3938 6.54451 19.4246 4.57538C17.4555 2.60625 14.7848 1.5 12 1.5ZM12.75 17.19V18C12.75 18.1989 12.671 18.3897 12.5303 18.5303C12.3897 18.671 12.1989 18.75 12 18.75C11.8011 18.75 11.6103 18.671 11.4697 18.5303C11.329 18.3897 11.25 18.1989 11.25 18V17.1825C10.6737 17.1193 10.1213 16.917 9.64054 16.593C9.15974 16.269 8.7649 15.833 8.49 15.3225C8.4055 15.1425 8.39596 14.9363 8.46347 14.7492C8.53098 14.5622 8.67001 14.4096 8.85001 14.325C9.0291 14.24 9.23458 14.2294 9.4215 14.2954C9.60842 14.3615 9.76158 14.4988 9.84751 14.6775C10.0786 15.0315 10.3998 15.3175 10.7782 15.506C11.1565 15.6945 11.5783 15.7787 12 15.75C13.2225 15.75 14.25 15.06 14.25 14.25C14.2673 14.0292 14.2122 13.8088 14.0931 13.6221C13.9741 13.4354 13.7975 13.2925 13.59 13.215C12.9992 12.9842 12.382 12.828 11.7525 12.75C11.4225 12.6975 11.085 12.6375 10.7325 12.555C10.0522 12.4603 9.42816 12.1256 8.97294 11.6112C8.51773 11.0969 8.26133 10.4368 8.25 9.75C8.25 8.3025 9.54 7.0875 11.25 6.81V6C11.25 5.80109 11.329 5.61032 11.4697 5.46967C11.6103 5.32902 11.8011 5.25 12 5.25C12.1989 5.25 12.3897 5.32902 12.5303 5.46967C12.671 5.61032 12.75 5.80109 12.75 6V6.8175C13.326 6.88192 13.8778 7.08472 14.3584 7.4086C14.839 7.73249 15.2341 8.16784 15.51 8.6775C15.5524 8.76663 15.5767 8.86324 15.5818 8.9618C15.5868 9.06035 15.5723 9.15893 15.5392 9.25191C15.5062 9.34488 15.4551 9.43043 15.389 9.50367C15.3228 9.57691 15.2429 9.6364 15.1538 9.67875C15.0646 9.7211 14.968 9.74548 14.8695 9.7505C14.7709 9.75552 14.6723 9.74107 14.5793 9.70799C14.4864 9.67491 14.4008 9.62384 14.3276 9.5577C14.2543 9.49156 14.1949 9.41163 14.1525 9.3225C13.9215 8.96852 13.6002 8.68254 13.2219 8.49402C12.8435 8.30551 12.4217 8.22127 12 8.25C10.7775 8.25 9.75 8.94 9.75 9.75C9.75 10.41 10.23 10.8975 11.07 11.085C11.3925 11.16 11.6925 11.2125 12 11.265C12.7497 11.3607 13.4836 11.5549 14.1825 11.8425C14.6585 12.0354 15.064 12.3697 15.3443 12.8001C15.6246 13.2306 15.7662 13.7366 15.75 14.25C15.75 15.6975 14.46 16.9125 12.75 17.19Z" fill="#231F20"/>
</svg>
