<svg width="985" height="742" viewBox="0 0 985 742" fill="none" xmlns="http://www.w3.org/2000/svg">
<g opacity="0.05" clip-path="url(#clip0_6_681)">
<path d="M970.461 721.986C942.275 713.429 919.17 697.234 907.049 677.583C897.468 662.065 893.621 644.467 889.92 627.475C887.984 618.604 886.145 610.192 883.557 602.191C871.363 564.411 851.96 542.028 822.443 531.706C793.653 521.627 758.475 521.723 725.983 531.972C710.499 536.855 695.257 544.034 680.547 550.995C642.853 568.786 603.877 587.205 557.014 569.366C508.65 550.947 478.19 502.749 482.908 452.133C485.69 422.305 504.053 383.413 546.32 370.118C565.143 356.703 592.845 352.255 610.941 367.701C619.167 374.735 624.054 385.129 624.006 395.523C623.982 399.559 620.716 402.798 616.675 402.798H616.651C612.611 402.774 609.345 399.487 609.369 395.45C609.393 389.286 606.417 383.074 601.433 378.796C589.094 368.257 569.401 372.729 556.602 380.826C555.756 381.89 554.594 382.736 553.215 383.195C552.538 383.727 551.86 384.234 551.231 384.79C544.046 391.003 540.272 399.293 540.005 409.421C539.618 424.118 547.191 441.546 558.852 452.81C579.683 472.921 612.611 479.036 639.006 467.699C646.627 464.412 652.506 459.239 654.006 454.502C655.047 451.19 654.563 446.912 654.03 442.367C653.571 438.379 653.087 434.246 653.522 429.967C655.337 411.186 669.006 402.629 681.079 395.088C683.886 393.347 686.74 391.558 689.523 389.601C696.491 384.718 701.087 378.119 703.192 369.973C707.402 353.585 700.531 334.803 686.886 325.328C684.249 323.491 681.152 321.992 677.91 320.397C672.708 317.859 667.313 315.224 662.571 310.777C657.684 306.16 654.248 299.706 652.676 292.14C651.78 287.886 651.611 283.825 651.442 279.909C651.272 276.187 651.127 272.682 650.377 269.443C648.103 259.629 644.16 252.329 637.99 246.504C629.692 238.648 617.667 233.717 604.167 232.605C592.748 231.687 582.49 235.482 571.651 239.494C562.215 242.999 552.489 246.625 541.433 247.326C522.32 248.583 511.36 238.31 501.682 229.269C494.884 222.912 488.449 216.918 479.497 215.032C473.158 213.703 465.682 214.331 457.964 216.869C448.456 219.988 439.021 225.015 431.4 231.034C415.238 243.748 409.746 260.451 416.714 275.679C420.125 283.124 427.698 289.119 436.94 291.729C446.303 294.364 455.763 293.083 462.876 288.273C468.755 284.309 468.803 277.613 466.892 272.658C465.44 268.887 467.303 264.657 471.053 263.207C474.803 261.756 479.061 263.617 480.537 267.364C485.448 279.982 481.65 293.252 471.077 300.383C460.384 307.61 446.497 309.592 432.996 305.797C419.666 302.051 408.609 293.083 403.432 281.77C393.609 260.33 400.867 236.497 422.351 219.552C431.279 212.518 442.311 206.645 453.416 202.995C463.602 199.635 473.666 198.861 482.545 200.723C495.465 203.43 504.102 211.479 511.699 218.586C520.675 226.949 527.812 233.548 540.513 232.75C549.441 232.17 557.764 229.076 566.594 225.789C573.102 223.372 579.732 220.954 586.82 219.407C585.998 217.788 585.756 215.902 586.312 214.041C596.498 179.717 577.24 137.9 542.425 118.829C525.755 109.692 510.029 105.22 489.44 101.135C485.642 114.961 475.94 130.069 455.013 143.895C426.319 162.846 387.028 167.462 354.923 155.618C336.802 148.947 323.931 133.042 322.141 115.13C320.52 98.9112 328.358 83.7797 343.117 74.6912C354.826 67.488 373.165 65.0708 386.762 69.0108C395.883 71.6455 402.609 76.915 406.214 84.239C408.004 87.8648 406.504 92.2398 402.875 94.0286C399.27 95.8173 394.867 94.3186 393.077 90.6929C391.335 87.1154 387.827 84.5774 382.698 83.0788C371.907 79.9606 357.996 82.7162 350.786 87.1638C340.746 93.3517 335.617 103.02 336.681 113.704C337.915 126.08 347.06 137.175 359.956 141.913C387.415 152.041 422.351 147.932 446.884 131.712C472.698 114.647 482.086 93.2551 474.029 69.8326C460.529 30.5052 404.036 -3.28688 357.754 0.266368C310.939 3.84379 268.552 29.635 252.245 64.4423C251.422 66.2069 250.697 68.9625 249.898 71.8872C247.455 81.0725 242.882 98.1619 225.704 94.7295C198.68 89.3392 170.035 100.168 148.962 123.687C132.317 142.251 124.163 165.287 127.986 182.062C140.47 179.669 153.413 179.041 166.067 180.588C187.382 183.174 203.47 195.066 211.357 214.041C220.019 234.877 216.825 260.475 203.398 277.685C194.567 288.998 182.446 295.355 168.486 296.37C173.543 315.466 196.575 326.271 216.535 333.595C281.374 357.452 359.593 396.345 389.448 485.852C390.73 489.696 388.649 493.829 384.827 495.11C384.052 495.376 383.278 495.497 382.528 495.497C379.456 495.497 376.601 493.563 375.585 490.493C353.835 425.254 303.221 381.092 211.503 347.324C186.68 338.187 157.817 324.023 153.462 295.452C136.502 291.898 122.76 278.241 120.365 262.119C117.945 245.755 126.583 232.025 141.849 227.964C145.72 226.925 149.76 229.245 150.801 233.137C151.841 237.029 149.518 241.041 145.623 242.08C133.647 245.271 134.349 256.584 134.833 259.968C136.405 270.482 146.373 279.716 158.059 281.456C175.793 284.091 186.244 275.969 191.906 268.718C202.043 255.738 204.511 235.554 197.906 219.673C193.817 209.835 184.672 197.58 164.349 195.115C138.655 191.997 111.462 198.475 91.6468 212.446C77.3483 222.526 73.5741 235.578 69.2192 250.661C65.7353 262.723 62.1305 275.22 52.7191 286.605C49.7917 290.182 46.7432 293.735 43.6948 297.337C26.7108 317.424 9.12197 338.163 2.22675 361.9C-5.27331 387.643 6.17033 410.944 39.3642 437.388C40.9609 438.669 41.9771 440.555 42.098 442.609C42.2432 444.664 41.4932 446.67 40.09 448.145L39.1464 449.136C24.0979 464.847 7.04131 482.638 16.5011 504.755C23.9043 522.038 32.6867 530.981 57.074 550.826C67.5741 559.383 71.9047 572.121 76.1144 584.449C79.6467 594.843 82.9855 604.657 89.6388 611.255C114.074 635.427 146.76 632.285 169.865 625.396C188.857 619.716 213.656 604.101 222.196 586.31C225.85 578.696 226.237 571.541 223.358 564.435C216.874 548.457 191.398 543.43 173.833 549.763C165.389 552.808 156.196 559.238 160.405 572.46C161.639 576.303 159.51 580.412 155.639 581.645C151.768 582.854 147.68 580.727 146.446 576.883C141.341 560.809 147.51 546.693 162.583 538.764C162.462 537.411 162.68 536.033 163.333 534.728C178.648 504.924 204.583 491.968 247.914 492.911C284.834 493.66 322.939 514.013 352.48 548.747C353.98 550.512 389.23 592.426 380.859 620.997C378.851 627.813 373.456 636.878 359.036 641.277C358.31 641.494 357.609 641.591 356.883 641.591C353.762 641.591 350.859 639.561 349.891 636.418C348.705 632.551 350.883 628.466 354.754 627.281C363.633 624.574 365.883 620.054 366.827 616.887C369.077 609.249 365.907 598.444 360.681 587.712C360.149 587.325 359.665 586.914 359.254 586.383C349.044 573.62 321.463 576.617 311.713 583.555C296.689 594.19 293.979 608.161 303.632 625.033C305.157 627.692 306.826 630.279 308.495 632.889C312.318 638.835 316.237 644.975 318.778 651.985C321.125 658.511 320.786 665.062 320.447 671.419C319.939 680.87 319.504 689.064 327.27 697.694C339.609 711.447 348.802 709.659 359.496 707.604C367.577 706.057 376.722 704.268 385.794 710.287C392.641 714.807 397.456 720.85 402.125 726.676C411.416 738.278 416.883 744.2 430.601 741.106C448.577 737.069 449.738 722.155 449.472 699.869C449.448 697.428 449.4 695.035 449.424 692.738C449.738 653.991 486.658 629.36 522.949 625.033C542.11 622.761 560.497 625.372 576.078 632.623C586.699 637.554 595.53 644.709 604.07 651.622C613.699 659.406 622.796 666.778 633.853 670.694C656.547 678.743 669.805 664.071 687.418 640.818C692.958 633.518 698.184 626.605 704.015 621.045C728.257 597.864 760.725 585.633 790.895 588.389C834.927 592.377 853.943 627.354 870.734 658.221C875.306 666.633 879.613 674.561 884.307 681.764C901.968 708.813 940.92 726.531 985.074 725.515C980.138 724.573 975.275 723.461 970.461 721.986ZM580.143 599.363C579.949 599.363 579.731 599.363 579.538 599.339C518.376 594.384 465.585 561.993 438.319 512.683C406.408 454.961 413.254 385.129 455.327 338.864C458.061 335.867 462.682 335.673 465.658 338.381C468.658 341.088 468.876 345.729 466.142 348.702C428.279 390.326 422.23 453.39 451.118 505.625C475.989 550.633 524.449 580.243 580.723 584.787C584.74 585.102 587.74 588.631 587.425 592.667C587.111 596.462 583.917 599.363 580.143 599.363Z" fill="#E23B3B"/>
</g>
<defs>
<clipPath id="clip0_6_681">
<rect width="985" height="742" fill="white"/>
</clipPath>
</defs>
</svg>
