<svg width="24" height="24" viewBox="0 0 24 24" fill="none" xmlns="http://www.w3.org/2000/svg">
<path d="M6.24578 0.75C5.04906 0.75 3.64205 2.15158 3.22836 4.76053C6.07848 4.76043 8.92853 4.76079 11.7782 4.76053C10.7114 2.97573 8.20177 0.75 6.24578 0.75ZM17.753 0.75C15.797 0.75 13.2874 2.97573 12.2206 4.76053C15.0703 4.7603 17.9199 4.75979 20.7704 4.76053C20.3567 2.15158 18.9497 0.75 17.753 0.75ZM2.04336 5.50757C1.52852 5.50757 1.12349 5.91258 1.12349 6.42744V9.7261C1.12349 10.2409 1.52852 10.6401 2.04336 10.6401H11.5029V5.50757H2.04336ZM15.3273 5.50757V5.50903H14.5774H12.2529V10.6401H21.9569C22.4717 10.6401 22.8753 10.2409 22.8753 9.7261V6.42744C22.8753 5.91258 22.4717 5.50757 21.9569 5.50757H15.3273ZM2.73913 11.393V21.9554C2.73913 22.6715 3.31495 23.2488 4.03105 23.2488H11.5029C11.5029 19.2962 11.5029 15.3462 11.5029 11.393H2.73913ZM12.2529 11.393C12.2531 15.3462 12.2529 19.2989 12.2529 23.2488C14.8245 23.2488 17.3961 23.2488 19.9677 23.2488C20.6838 23.2488 21.2596 22.6715 21.2596 21.9554V11.393H12.2529Z" fill="black"/>
</svg>
