<svg width="40" height="40" viewBox="0 0 40 40" fill="none" xmlns="http://www.w3.org/2000/svg">
<path d="M34.9117 13.8416C34.8948 12.5793 34.6585 11.3296 34.2133 10.1483C33.8272 9.15185 33.2376 8.24693 32.4819 7.49131C31.7263 6.7357 30.8214 6.14601 29.825 5.75993C28.6589 5.32219 27.427 5.0855 26.1817 5.05993C24.5783 4.98826 24.07 4.96826 20 4.96826C15.93 4.96826 15.4083 4.96826 13.8167 5.05993C12.5719 5.08569 11.3406 5.32238 10.175 5.75993C9.17843 6.14574 8.27336 6.73534 7.51772 7.49098C6.76207 8.24663 6.17248 9.15169 5.78666 10.1483C5.34805 11.3135 5.11187 12.5451 5.08833 13.7899C5.01666 15.3949 4.995 15.9033 4.995 19.9733C4.995 24.0433 4.995 24.5633 5.08833 26.1566C5.11333 27.4033 5.34833 28.6333 5.78666 29.8016C6.17312 30.7979 6.76316 31.7026 7.51906 32.4579C8.27495 33.2132 9.1801 33.8026 10.1767 34.1883C11.3391 34.6436 12.5706 34.8972 13.8183 34.9383C15.4233 35.0099 15.9317 35.0316 20.0017 35.0316C24.0717 35.0316 24.5933 35.0316 26.185 34.9383C27.4303 34.9137 28.6623 34.6776 29.8283 34.2399C30.8245 33.8534 31.7292 33.2636 32.4847 32.508C33.2403 31.7524 33.8301 30.8477 34.2167 29.8516C34.655 28.6849 34.89 27.4549 34.915 26.2066C34.9867 24.6033 35.0083 24.0949 35.0083 20.0233C35.005 15.9533 35.005 15.4366 34.9117 13.8416ZM19.99 27.6699C15.7333 27.6699 12.285 24.2216 12.285 19.9649C12.285 15.7083 15.7333 12.2599 19.99 12.2599C22.0335 12.2599 23.9933 13.0717 25.4383 14.5167C26.8832 15.9616 27.695 17.9214 27.695 19.9649C27.695 22.0084 26.8832 23.9682 25.4383 25.4132C23.9933 26.8582 22.0335 27.6699 19.99 27.6699ZM28.0017 13.7716C27.7657 13.7718 27.5319 13.7255 27.3138 13.6353C27.0958 13.5451 26.8976 13.4127 26.7307 13.2459C26.5639 13.079 26.4315 12.8808 26.3413 12.6627C26.2511 12.4447 26.2048 12.2109 26.205 11.9749C26.205 11.7391 26.2514 11.5056 26.3417 11.2877C26.4319 11.0698 26.5642 10.8718 26.731 10.7051C26.8977 10.5383 27.0957 10.406 27.3136 10.3158C27.5315 10.2255 27.765 10.1791 28.0008 10.1791C28.2367 10.1791 28.4702 10.2255 28.6881 10.3158C28.9059 10.406 29.1039 10.5383 29.2707 10.7051C29.4374 10.8718 29.5697 11.0698 29.66 11.2877C29.7502 11.5056 29.7967 11.7391 29.7967 11.9749C29.7967 12.9683 28.9933 13.7716 28.0017 13.7716Z" fill="white"/>
<path d="M19.99 24.97C22.7542 24.97 24.995 22.7291 24.995 19.965C24.995 17.2008 22.7542 14.96 19.99 14.96C17.2259 14.96 14.985 17.2008 14.985 19.965C14.985 22.7291 17.2259 24.97 19.99 24.97Z" fill="white"/>
</svg>
