<svg width="579" height="376" viewBox="0 0 579 376" fill="none" xmlns="http://www.w3.org/2000/svg">
<path d="M553.39 286.11C532.219 283.072 515.105 271.299 498.579 259.905C488.719 253.121 479.411 246.699 469.309 242.004C441.144 228.901 413.1 235.444 394.518 243.247C393.724 243.575 392.982 243.989 392.187 244.334C391.721 244.68 391.203 244.956 390.633 245.146C390.443 245.215 390.236 245.284 390.046 245.336C377.802 251.015 366.509 258.248 354.697 265.965C347.185 270.884 339.397 275.96 331.384 280.517C270.633 315.146 209.692 300.611 178.764 272.438C144.78 241.469 131.534 186.78 147.974 145.229C148.061 145.022 148.181 144.832 148.285 144.642C144.175 130.279 146.437 114.242 152.481 101.019C166.452 70.4466 197.259 53.5291 229.12 58.9668C250.084 62.5402 261.964 84.274 259.495 101.537C257.388 116.4 245.369 124.755 228.912 122.891C225.787 122.528 223.559 119.714 223.904 116.59C224.267 113.465 227.151 111.238 230.207 111.584C243.539 113.137 247.355 106.077 248.236 99.9313C249.945 87.8647 241.328 72.5699 227.203 70.1704C200.505 65.6303 174.62 79.9066 162.808 105.732C153.811 125.446 154.623 150.908 176.744 163.372C187.951 169.69 198.554 168.378 210.815 166.859C212.835 166.617 214.89 166.358 216.98 166.134C225.804 165.185 231.658 169.863 236.407 173.609C238.255 175.059 239.999 176.44 241.812 177.493C257.319 186.383 276.988 184.985 293.152 173.833C312.562 160.437 323.683 131.764 319.037 107.147C317 96.3925 310.006 77.4898 285.968 71.8103C282.911 71.0853 281.012 68.0298 281.737 64.9743C282.462 61.9188 285.519 60.0199 288.575 60.7449C307.623 65.2332 321.489 77.835 327.758 95.8573C335.373 69.3072 328.5 43.8101 307.916 24.4068C281.012 -0.952178 239.049 -7.40845 208.138 9.09474C199.78 13.5485 192.182 10.8728 186.103 8.71496C184.117 8.02445 182.252 7.3512 180.405 6.91964C172.047 4.91716 162.273 4.38201 151.307 5.33146C96.2374 10.0787 52.6513 62.264 44.5005 109.84C65.0674 106.854 91.3158 112.499 100.934 133.576C105.96 144.556 105.096 156.795 98.5341 168.016C90.7632 181.291 76.3266 190.664 61.7519 191.89C55.4316 192.425 48.9041 190.699 43.4299 187.281C42.9291 205.51 45.433 249.168 76.4475 285.834C108.757 324.019 162.514 344.527 236.2 346.754C239.343 346.858 241.812 349.464 241.708 352.606C241.622 355.679 239.083 358.113 236.027 358.113C235.975 358.113 235.906 358.113 235.854 358.113C158.715 355.783 102.109 333.876 67.6405 293.033C24.2617 241.641 32.3607 179.651 32.7233 177.027C32.7751 176.664 32.8615 176.336 32.9651 175.991C30.5129 171.071 29.7013 165.564 30.7374 159.885C31.3073 156.795 34.2948 154.758 37.3513 155.31C40.4424 155.88 42.4974 158.832 41.9275 161.922C40.8569 167.791 43.2745 171.952 45.5021 174.403C49.3012 178.58 55.2762 180.963 60.7849 180.531C71.6123 179.616 82.8369 172.28 88.7082 162.25C93.3535 154.309 94.0269 145.798 90.5905 138.272C82.0425 119.576 53.083 117.108 36.0734 123.564C8.65082 133.973 -2.69464 175.749 0.534607 209.757C5.62885 263.358 39.6481 312.35 93.837 344.182C153.017 378.932 223.455 385.751 277.644 361.963C296.053 353.884 313.045 342.266 329.485 331.028C344.042 321.084 359.1 310.796 375.35 302.734C404.327 288.372 437.621 284.971 466.65 293.43C474.179 295.622 481.466 298.401 488.512 301.077C510.374 309.398 529.266 316.596 551.369 306.843C560.435 302.838 572.437 293.516 578.999 283.728C571.28 286.524 562.404 287.405 553.39 286.11Z" fill="white" fill-opacity="0.24"/>
<path d="M171.184 173.298C164.432 169.5 159.268 164.719 155.4 159.367C146.041 195.187 158.388 238.534 186.432 264.066C214.407 289.546 269.943 302.493 325.755 270.66C331.264 267.518 336.738 264.066 342.109 260.596C326.014 265.032 309.73 268.261 293.273 268.261C279.613 268.261 265.85 266.086 251.984 260.613C227.445 250.963 207.983 234.029 199.919 215.316C194.876 203.629 194.186 191.579 197.812 179.461C189.247 179.703 180.405 178.512 171.184 173.298Z" fill="white" fill-opacity="0.24"/>
</svg>
