<svg width="640" height="572" viewBox="0 0 640 572" fill="none" xmlns="http://www.w3.org/2000/svg">
<g opacity="0.05" clip-path="url(#clip0_2_250)">
<path d="M991 498.432C976.94 502.172 962.993 505.8 948.934 508.974C905.053 518.949 860.719 525.751 816.384 526.771C772.05 527.678 727.149 522.69 682.475 514.642C637.687 506.593 593.126 495.598 548.452 484.035C503.55 472.473 458.082 461.477 411.934 453.656C365.786 445.834 318.843 441.073 271.901 442.66C224.959 444.247 178.811 452.069 133.57 462.724C88.4416 473.38 44.1074 486.983 0 500.925C44.7878 489.476 89.8023 478.254 135.157 470.092C180.512 461.931 226.433 456.83 272.015 457.736C317.596 458.643 362.951 465.671 407.512 475.76C452.186 485.849 496.18 499.112 540.174 512.941C584.395 526.884 628.956 540.6 674.878 551.369C720.686 562.138 767.855 570.073 816.158 571.774C864.46 573.361 912.423 568.486 959.252 560.551C969.91 558.738 980.568 556.697 991.113 554.543V498.432H991Z" fill="#BD3232"/>
<path d="M991 449.234C976.94 452.975 962.993 456.603 948.934 459.777C905.053 469.752 860.719 476.553 816.384 477.574C772.05 478.481 727.149 473.493 682.475 465.445C637.687 457.396 593.126 446.4 548.452 434.838C503.55 423.276 458.082 412.28 411.934 404.458C365.786 396.637 318.843 391.876 271.901 393.463C224.959 395.05 178.811 402.871 133.57 413.527C88.4416 424.296 44.1074 437.899 0 451.728C44.7878 440.279 89.8023 429.057 135.157 420.895C180.512 412.733 226.433 407.632 272.015 408.539C317.596 409.446 362.951 416.474 407.512 426.563C452.186 436.652 496.18 449.915 540.174 463.744C584.395 477.687 628.956 491.403 674.878 502.172C720.686 512.941 767.855 520.876 816.158 522.576C864.46 524.163 912.423 519.289 959.252 511.354C969.91 509.54 980.568 507.5 991.113 505.346V449.234H991Z" fill="#BD3232"/>
<path d="M991 400.037C976.94 403.778 962.993 407.405 948.934 410.579C905.053 420.555 860.719 427.356 816.384 428.376C772.05 429.283 727.149 424.295 682.475 416.247C637.687 408.199 593.126 397.203 548.452 385.641C503.55 374.078 458.082 363.083 411.934 355.261C365.786 347.439 318.843 342.678 271.901 344.265C224.959 345.852 178.811 353.674 133.57 364.33C88.4416 375.098 44.1074 388.701 0 402.644C44.7878 391.195 89.8023 379.973 135.157 371.811C180.512 363.649 226.433 358.548 272.015 359.455C317.596 360.362 362.951 367.39 407.512 377.479C452.186 387.568 496.18 400.831 540.174 414.66C584.395 428.603 628.956 442.319 674.878 453.088C720.686 463.857 767.855 471.792 816.158 473.492C864.46 475.079 912.423 470.205 959.252 462.27C969.91 460.456 980.568 458.416 991.113 456.262V400.037H991Z" fill="#BD3232"/>
<path d="M991 350.954C976.94 354.695 962.993 358.322 948.934 361.496C905.053 371.472 860.719 378.273 816.384 379.293C772.05 380.2 727.149 375.212 682.475 367.164C637.687 359.116 593.126 348.12 548.452 336.558C503.55 324.995 458.082 314 411.934 306.178C365.786 298.356 318.843 293.595 271.901 295.182C224.959 296.769 178.811 304.591 133.57 315.246C88.4416 326.015 44.1074 339.505 0 353.448C44.7878 341.999 89.8023 330.776 135.157 322.615C180.512 314.453 226.433 309.352 272.015 310.259C317.596 311.166 362.951 318.194 407.512 328.283C452.186 338.371 496.18 351.634 540.174 365.464C584.395 379.407 628.956 393.123 674.878 403.892C720.686 414.661 767.855 422.596 816.158 424.296C864.46 425.883 912.423 421.009 959.252 413.074C969.91 411.26 980.568 409.22 991.113 407.066V350.954H991Z" fill="#BD3232"/>
<path d="M991 301.757C976.94 305.497 962.993 309.125 948.934 312.299C905.053 322.274 860.719 329.076 816.384 330.096C772.05 331.003 727.149 326.015 682.475 317.967C637.687 309.918 593.126 298.923 548.452 287.36C503.55 275.798 458.082 264.802 411.934 256.981C365.786 249.159 318.843 244.398 271.901 245.985C224.959 247.572 178.811 255.394 133.57 266.049C88.4416 276.818 44.1074 290.421 0 304.364C44.7878 292.915 89.8023 281.692 135.157 273.531C180.512 265.369 226.433 260.268 272.015 261.175C317.596 262.082 362.951 269.11 407.512 279.199C452.186 289.287 496.18 302.55 540.174 316.38C584.395 330.323 628.956 344.039 674.878 354.808C720.686 365.577 767.855 373.512 816.158 375.212C864.46 376.799 912.423 371.925 959.252 363.99C969.91 362.176 980.568 360.136 991.113 357.982V301.757H991Z" fill="#BD3232"/>
<path d="M991 252.673C976.94 256.414 962.993 260.041 948.934 263.215C905.053 273.19 860.719 279.992 816.384 280.899C772.05 281.806 727.149 276.818 682.475 268.77C637.687 260.721 593.126 249.726 548.452 238.163C503.437 226.714 458.082 215.718 411.934 207.897C365.786 200.075 318.843 195.314 271.901 196.901C224.959 198.488 178.811 206.31 133.57 216.965C88.4416 227.621 44.1074 241.224 0 255.167C44.7878 243.718 89.8023 232.495 135.157 224.334C180.512 216.172 226.433 211.071 272.015 211.978C317.596 212.884 362.951 219.913 407.512 230.001C452.186 240.09 496.18 253.353 540.174 267.183C584.395 281.125 628.956 294.842 674.878 305.611C720.686 316.379 767.855 324.315 816.158 326.015C864.46 327.602 912.423 322.728 959.252 314.793C969.91 312.979 980.568 310.938 991.113 308.785V252.673H991Z" fill="#BD3232"/>
<path d="M991 203.476C976.94 207.217 962.993 210.844 948.934 214.018C905.053 223.994 860.719 230.795 816.384 231.816C772.05 232.722 727.149 227.735 682.475 219.686C637.687 211.638 593.126 200.642 548.452 189.08C503.437 177.631 458.082 166.635 411.934 158.7C365.786 150.879 318.843 146.118 271.901 147.705C224.959 149.292 178.811 157.113 133.57 167.769C88.4416 178.538 44.1074 192.141 0 205.97C44.7878 194.521 89.8023 183.299 135.157 175.137C180.512 166.975 226.433 161.874 272.015 162.781C317.596 163.688 362.951 170.716 407.512 180.805C452.186 190.894 496.18 204.156 540.174 217.986C584.395 231.929 628.956 245.645 674.878 256.414C720.686 267.183 767.855 275.118 816.158 276.818C864.46 278.405 912.423 273.531 959.252 265.596C969.91 263.782 980.568 261.742 991.113 259.588V203.476H991Z" fill="#BD3232"/>
<path d="M991 154.279C976.94 158.02 962.993 161.647 948.934 164.821C905.053 174.797 860.719 181.598 816.384 182.618C772.05 183.525 727.149 178.537 682.475 170.489C637.687 162.441 593.126 151.445 548.452 139.883C503.55 128.32 458.082 117.325 411.934 109.503C365.786 101.681 318.843 96.9203 271.901 98.5073C224.959 100.094 178.811 107.916 133.57 118.571C88.4416 129.34 44.1074 142.943 0 156.886C44.7878 145.437 89.8023 134.215 135.157 126.053C180.512 117.891 226.433 112.79 272.015 113.697C317.596 114.604 362.951 121.632 407.512 131.721C452.186 141.81 496.18 155.072 540.174 168.902C584.395 182.845 628.956 196.561 674.878 207.33C720.686 218.099 767.855 226.034 816.158 227.734C864.46 229.321 912.423 224.447 959.252 216.512C969.91 214.698 980.568 212.658 991.113 210.504V154.279H991Z" fill="#BD3232"/>
<path d="M991 105.196C976.94 108.937 962.993 112.564 948.934 115.738C905.053 125.713 860.719 132.515 816.384 133.535C772.05 134.442 727.149 129.454 682.475 121.406C637.687 113.357 593.126 102.362 548.452 90.7994C503.437 79.237 458.082 68.2413 411.934 60.4197C365.786 52.5981 318.843 47.8371 271.901 49.4241C224.959 51.0111 178.811 58.8327 133.57 69.4883C88.4416 80.2572 44.1074 93.7467 0 107.69C44.7878 96.2406 89.8023 85.0182 135.157 76.8565C180.512 68.6948 226.433 63.5937 272.015 64.5006C317.596 65.4074 362.951 72.4356 407.512 82.5243C452.186 92.6131 496.18 105.876 540.174 119.705C584.395 133.648 628.956 147.365 674.878 158.134C720.686 168.902 767.855 176.837 816.158 178.538C864.46 180.125 912.423 175.25 959.252 167.315C969.91 165.502 980.568 163.461 991.113 161.308V105.196H991Z" fill="#BD3232"/>
<path d="M991 55.9985C976.94 59.7393 962.993 63.3667 948.934 66.5407C905.053 76.5161 860.719 83.4309 816.384 84.3378C772.05 85.2446 727.149 80.2569 682.475 72.2086C637.687 64.1602 593.126 53.1646 548.452 41.6021C503.437 30.1531 458.082 19.1574 411.934 11.2224C365.786 3.4008 318.843 -1.3602 271.901 0.226802C224.959 1.8138 178.811 9.63544 133.57 20.291C88.4416 31.0599 44.1074 44.6628 0 58.6057C44.7878 47.1566 89.8023 35.9343 135.157 27.7726C180.512 19.6109 226.433 14.5098 272.015 15.4167C317.596 16.3235 362.951 23.3517 407.512 33.4404C452.186 43.5292 496.18 56.792 540.174 70.6216C584.395 84.5645 628.956 98.2807 674.878 109.05C720.686 119.819 767.855 127.754 816.158 129.454C864.46 131.041 912.423 126.167 959.252 118.232C969.91 116.418 980.568 114.377 991.113 112.224V55.9985H991Z" fill="#BD3232"/>
</g>
<defs>
<clipPath id="clip0_2_250">
<rect width="991" height="572" fill="white"/>
</clipPath>
</defs>
</svg>
