<svg width="454" height="214" viewBox="0 0 454 214" fill="none" xmlns="http://www.w3.org/2000/svg">
<g clip-path="url(#clip0_2_191)">
<path d="M272.11 111.39C275.17 106.57 278.19 101.49 281.11 96.57C292.47 77.46 304.21 57.71 322.51 45.26C335.51 36.42 353.08 33.05 366.24 36.87C375.38 39.53 381.91 45.28 385.67 53.96C388.27 59.98 388.41 65.96 386.06 71.27C384.98 73.72 383.37 75.92 381.37 77.82C383.49 70.2 377.96 62.16 371.06 57.94C360.01 51.18 345.34 51.88 334.55 59.69C328.3 64.21 321.62 74.01 321.26 82.57C321.09 86.65 322.35 90.2 324.91 92.95C319.91 94.12 315.5 96.77 311.43 99.57C287.7 115.9 268.77 139.27 252.06 159.89C233.46 182.85 209.46 200.37 184.49 209.2C180.26 210.7 175.93 211.91 171.53 212.85C178.74 210.31 185.77 206.94 192.53 202.73C228.28 180.49 252.58 142.18 272.11 111.39Z" fill="#E23B3B"/>
<path d="M74.73 180.85C73.11 178.84 71.5 176.77 69.87 174.69C63.17 166.12 56.25 157.25 47.5 150.45C34.21 140.13 17.03 138.72 0 146.09C7.92 139.12 18.9 133.46 30.24 133.69C39.73 133.86 50.55 137.29 59.92 143.1C67.63 147.88 73 154.59 78.69 161.71C82.04 165.9 85.5 170.23 89.5 174.15C96.89 181.41 104.74 186.52 112.84 189.33C120.82 192.11 128.75 193.49 136.61 193.49C154.14 193.49 171.29 186.59 187.85 172.84C212.24 152.59 227.65 123.72 234.66 108.31C235.99 105.39 237.3 102.47 238.62 99.55C240.76 94.81 242.9 90.07 245.08 85.35C251.38 71.71 259.1 55.81 268.51 41.29C268.87 40.73 269.39 40.18 269.94 39.6C270.54 38.96 271.23 38.23 271.81 37.36C278.35 27.68 286.64 21.82 296.24 15.03L296.58 14.79C306.58 7.72 316.47 1.28 327.62 0.2C336.98 -0.710001 345.99 1.34 355.55 3.5C361.8 4.92 368.27 6.38 374.79 6.92C379.76 7.33 383.72 5.44 387.52 3.62C390.11 2.38 392.56 1.2 395.22 0.82C400.36 0.0799995 405.72 0.13 411.16 0.97C423.09 2.81 432.94 8.11 438.89 15.88C445.44 24.43 445.21 34.08 444.97 44.29C444.83 50.26 444.69 56.44 445.92 62.59C446.65 66.22 448.27 69.33 449.83 72.34C451.46 75.48 453.01 78.45 453.42 81.77C454.12 87.45 452.83 94.02 449.88 99.81C445.42 108.56 436.63 115.21 426.95 117.17C421.82 118.2 416.63 117.35 411.14 116.45C406.85 115.74 402.41 115.02 397.92 115.23C391.15 115.56 386.83 119.17 382.66 122.66C379.98 124.9 377.44 127.02 374.28 128.29C368.13 130.76 359.04 130.15 349.95 126.66C344.06 124.4 343.84 120.75 343.48 114.7C343.39 113.25 343.31 111.75 343.12 110.18C342.04 101.14 337.33 97.27 331.88 92.79C330.99 92.06 330.06 91.3 329.12 90.48C326.85 88.53 325.82 86 325.95 82.76C326.24 75.94 332.05 67.3 337.3 63.5C346.56 56.79 359.14 56.17 368.59 61.95C373.26 64.81 378.84 71.46 376.6 77.28C374.76 82.07 368.42 84.95 363.29 83.33C362.04 82.94 360.73 83.62 360.33 84.86C359.94 86.1 360.62 87.42 361.86 87.82C365 88.82 368.41 88.65 371.5 87.61C372.08 87.98 372.82 88.1 373.52 87.86C381.39 85.14 387.37 79.93 390.35 73.18C393.2 66.73 393.06 59.24 389.97 52.1C385.69 42.2 377.93 35.38 367.53 32.35C353.1 28.16 333.93 31.78 319.84 41.37C300.68 54.4 288.66 74.62 277.04 94.17C274.14 99.05 271.14 104.1 268.11 108.87C248.84 139.25 224.85 177.06 190.01 198.74C170.34 210.98 148.38 215.89 126.32 213.07C123.61 212.51 120.91 211.85 118.24 211.09C101.72 206.34 87.07 196.16 74.73 180.85Z" fill="#E23B3B"/>
<path d="M148.86 44.37C151.86 43.13 154.96 41.84 158.43 38.13C160.75 35.66 161.87 32.96 162.95 30.35C165.03 25.34 166.82 21.02 177.75 19.09C196.39 15.81 214.41 31.49 218.94 47.6C220.55 53.34 224.36 57.48 228.04 61.48C230.9 64.59 233.61 67.53 235.33 71.16C239.47 79.9 239.35 86.33 234.87 94.92C234.56 95.51 234.53 96.17 234.73 96.76C234.6 97.05 234.47 97.34 234.33 97.63C233.01 100.55 231.7 103.46 230.37 106.37C223.52 121.41 208.5 149.57 184.83 169.23C162.21 188.01 138.5 193.28 114.38 184.89C106.94 182.3 99.6799 177.56 92.7899 170.79C88.9899 167.06 85.6199 162.84 82.3599 158.77C76.6699 151.66 70.7899 144.31 62.3899 139.1C53.4799 133.58 43.2999 130.07 33.9299 129.2C43.1799 126.37 52.7199 125.85 62.0099 127.61C62.1799 127.7 62.3499 127.77 62.5399 127.82C80.5099 132.13 86.3899 138.61 98.1099 151.5C100.86 154.53 103.97 157.96 107.61 161.75C117.9 172.49 128.93 177.85 141.33 178.13C141.67 178.14 142.02 178.14 142.36 178.14C153.64 178.14 164.75 173.92 173.75 166.2C191.01 151.39 200.55 125.94 198.05 101.38C198.03 101.19 197.99 101.02 197.93 100.85C202.21 96.84 205.19 91.31 205.85 85.77C206.51 80.16 204.84 75.14 201 71.25C194.99 65.16 183.01 63.33 174.3 67.18C168.03 69.95 164.64 75.29 164.98 81.85C165.05 83.15 166.12 84.14 167.46 84.08C168.76 84.01 169.75 82.9 169.69 81.6C169.38 75.76 173.07 72.88 176.21 71.49C183.04 68.47 193.06 69.91 197.65 74.56C201.19 78.14 201.52 82.33 201.18 85.22C200.52 90.82 196.7 96.68 191.68 99.8C188.51 101.77 185.35 101.73 181.7 101.68C178.65 101.64 175.51 101.6 172.16 102.75C169.27 103.75 166.93 105.05 164.67 106.31C160.81 108.46 157.5 110.32 152.26 109.91C146.23 109.43 138.75 105.86 136.12 99.96C134.7 96.78 135.89 93.34 137.14 89.71C138.53 85.68 140.11 81.1 137.55 76.83C133.51 70.09 132.36 61.79 134.87 57.53C140.59 47.8 144.61 46.13 148.86 44.37Z" fill="#E23B3B"/>
<path d="M179.14 106.39C179.96 106.38 180.78 106.38 181.62 106.39C185.28 106.43 189.39 106.46 193.53 104.14C195.03 126.2 186.04 149.45 170.69 162.62C162.3 169.82 151.92 173.65 141.44 173.42C130.36 173.17 120.4 168.28 111.01 158.49C110.97 158.45 110.93 158.41 110.89 158.36C118.29 163.74 126.52 167.77 136.86 167.77C137.47 167.77 138.09 167.76 138.72 167.73C151.22 167.16 162.36 161.2 170.09 150.96C179.29 138.78 182.76 121.71 179.15 106.42C179.15 106.4 179.14 106.4 179.14 106.39Z" fill="#E23B3B"/>
</g>
<defs>
<clipPath id="clip0_2_191">
<rect width="453.61" height="213.84" fill="white"/>
</clipPath>
</defs>
</svg>
