<svg width="431" height="325" viewBox="0 0 431 325" fill="none" xmlns="http://www.w3.org/2000/svg">
<g clip-path="url(#clip0_2_189)">
<path d="M424.638 316.234C412.305 312.486 402.195 305.392 396.892 296.785C392.699 289.988 391.016 282.28 389.397 274.837C388.55 270.952 387.745 267.267 386.612 263.763C381.277 247.215 372.787 237.411 359.871 232.89C347.274 228.475 331.881 228.518 317.664 233.007C310.889 235.145 304.219 238.29 297.783 241.339C281.289 249.131 264.235 257.199 243.729 249.385C222.567 241.318 209.239 220.207 211.303 198.037C212.521 184.972 220.556 167.937 239.05 162.114C247.286 156.238 259.407 154.29 267.326 161.055C270.925 164.136 273.064 168.689 273.043 173.241C273.032 175.009 271.603 176.428 269.835 176.428H269.824C268.056 176.417 266.627 174.977 266.638 173.209C266.648 170.51 265.346 167.789 263.165 165.915C257.766 161.299 249.149 163.257 243.549 166.804C243.179 167.27 242.67 167.64 242.067 167.842C241.771 168.074 241.474 168.297 241.199 168.54C238.055 171.261 236.403 174.893 236.287 179.329C236.118 185.766 239.431 193.399 244.534 198.333C253.648 207.142 268.056 209.82 279.606 204.855C282.941 203.415 285.513 201.149 286.17 199.074C286.625 197.624 286.413 195.75 286.18 193.759C285.979 192.012 285.767 190.202 285.958 188.328C286.752 180.102 292.733 176.354 298.016 173.051C299.244 172.288 300.493 171.505 301.71 170.647C304.759 168.509 306.77 165.618 307.691 162.05C309.533 154.872 306.527 146.646 300.556 142.495C299.402 141.691 298.047 141.034 296.629 140.336C294.353 139.224 291.992 138.07 289.917 136.122C287.779 134.1 286.275 131.273 285.587 127.959C285.196 126.096 285.121 124.317 285.047 122.602C284.973 120.971 284.91 119.436 284.582 118.017C283.586 113.719 281.861 110.522 279.161 107.97C275.53 104.529 270.269 102.369 264.362 101.882C259.365 101.48 254.876 103.142 250.134 104.9C246.005 106.435 241.749 108.023 236.911 108.33C228.548 108.881 223.753 104.381 219.518 100.421C216.543 97.6368 213.727 95.0112 209.811 94.1854C207.037 93.6031 203.766 93.8783 200.389 94.99C196.228 96.3558 192.1 98.5579 188.765 101.194C181.693 106.763 179.29 114.079 182.339 120.749C183.832 124.01 187.145 126.636 191.189 127.779C195.286 128.933 199.425 128.372 202.538 126.265C205.11 124.529 205.131 121.596 204.295 119.426C203.66 117.774 204.475 115.921 206.116 115.286C207.757 114.651 209.62 115.466 210.266 117.107C212.415 122.634 210.753 128.446 206.127 131.569C201.447 134.735 195.371 135.603 189.464 133.941C183.631 132.3 178.793 128.372 176.527 123.417C172.229 114.026 175.405 103.587 184.806 96.1652C188.712 93.0843 193.539 90.5116 198.399 88.9129C202.855 87.4412 207.259 87.1024 211.144 87.9176C216.798 89.1034 220.577 92.629 223.901 95.7417C227.828 99.4049 230.951 102.295 236.509 101.946C240.416 101.692 244.057 100.337 247.921 98.8967C250.769 97.838 253.67 96.7793 256.771 96.1017C256.411 95.3923 256.306 94.5665 256.549 93.7513C261.006 78.7172 252.579 60.4011 237.346 52.0477C230.052 48.0457 223.17 46.087 214.162 44.2977C212.499 50.3537 208.254 56.9708 199.097 63.0268C186.542 71.3273 169.35 73.3494 155.302 68.1616C147.373 65.2395 141.741 58.2731 140.957 50.4278C140.248 43.3237 143.678 36.696 150.136 32.7152C155.259 29.5602 163.284 28.5014 169.233 30.2272C173.224 31.3812 176.167 33.6892 177.745 36.8972C178.528 38.4853 177.872 40.4016 176.284 41.1851C174.706 41.9685 172.78 41.3121 171.996 39.724C171.234 38.1571 169.699 37.0454 167.455 36.389C162.733 35.0232 156.646 36.2302 153.491 38.1783C149.098 40.8886 146.854 45.1236 147.32 49.8032C147.86 55.2239 151.861 60.0835 157.504 62.1586C169.519 66.5947 184.806 64.7949 195.54 57.6908C206.836 50.2161 210.943 40.8463 207.418 30.5871C201.511 13.3615 176.792 -1.43961 156.54 0.116727C136.056 1.68366 117.509 12.9804 110.373 28.2261C110.013 28.999 109.696 30.206 109.347 31.4871C108.277 35.5102 106.277 42.9955 98.7603 41.4921C86.9354 39.1311 74.4012 43.8743 65.1805 54.1757C57.8971 62.3068 54.3296 72.3966 56.0022 79.7442C61.4647 78.6961 67.1284 78.4208 72.665 79.0984C81.9916 80.2312 89.0314 85.4402 92.4826 93.7513C96.2725 102.878 94.8751 114.09 88.9997 121.628C85.1357 126.583 79.832 129.367 73.7237 129.812C75.9362 138.176 86.0144 142.908 94.748 146.116C123.119 156.566 157.345 173.601 170.408 212.806C170.969 214.489 170.059 216.3 168.386 216.861C168.048 216.977 167.709 217.03 167.381 217.03C166.036 217.03 164.787 216.183 164.342 214.839C154.825 186.264 132.679 166.92 92.5461 152.13C81.6846 148.128 69.0551 141.924 67.1496 129.409C59.7286 127.853 53.7155 121.871 52.6675 114.81C51.6089 107.642 55.3882 101.628 62.0681 99.8496C63.762 99.3943 65.5299 100.411 65.9851 102.115C66.4403 103.82 65.424 105.577 63.7196 106.033C58.4794 107.43 58.7864 112.385 58.9981 113.867C59.6862 118.473 64.0478 122.517 69.161 123.279C76.9207 124.433 81.494 120.876 83.9712 117.7C88.4069 112.014 89.4867 103.174 86.5966 96.2181C84.8075 91.9091 80.8059 86.5413 71.9134 85.4614C60.6707 84.0956 48.7717 86.933 40.1016 93.0525C33.8451 97.4674 32.1936 103.185 30.2881 109.791C28.7636 115.074 27.1863 120.548 23.0682 125.535C21.7873 127.101 20.4534 128.658 19.1195 130.235C11.6879 139.033 3.9917 148.117 0.974605 158.514C-2.30715 169.79 2.70017 179.996 17.2246 191.578C17.9233 192.14 18.3679 192.965 18.4208 193.865C18.4843 194.765 18.1562 195.644 17.5422 196.29L17.1293 196.724C10.5446 203.606 3.08128 211.398 7.22052 221.085C10.4599 228.655 14.3028 232.573 24.9737 241.265C29.5682 245.013 31.4631 250.592 33.3052 255.992C34.8508 260.544 36.3117 264.843 39.2229 267.733C49.9151 278.321 64.2172 276.944 74.3271 273.927C82.6373 271.439 93.4883 264.599 97.2252 256.807C98.8238 253.472 98.9932 250.338 97.7334 247.226C94.8963 240.227 83.7489 238.025 76.0632 240.799C72.3686 242.133 68.3458 244.949 70.1878 250.741C70.7277 252.424 69.7961 254.224 68.1023 254.764C66.4085 255.293 64.6194 254.361 64.0795 252.678C61.8458 245.637 64.5453 239.454 71.1406 235.982C71.0877 235.389 71.1829 234.785 71.4688 234.214C78.1699 221.159 89.5184 215.485 108.478 215.898C124.633 216.226 141.307 225.14 154.232 240.354C154.889 241.127 170.313 259.486 166.65 272C165.772 274.986 163.411 278.956 157.101 280.883C156.784 280.978 156.477 281.02 156.159 281.02C154.794 281.02 153.523 280.131 153.1 278.755C152.581 277.061 153.534 275.271 155.228 274.753C159.113 273.567 160.097 271.587 160.51 270.2C161.495 266.854 160.108 262.122 157.821 257.421C157.588 257.252 157.377 257.072 157.197 256.839C152.729 251.249 140.661 252.562 136.395 255.6C129.82 260.259 128.635 266.378 132.859 273.768C133.526 274.933 134.256 276.065 134.987 277.209C136.659 279.813 138.374 282.503 139.486 285.573C140.513 288.432 140.364 291.301 140.216 294.085C139.994 298.225 139.803 301.814 143.202 305.594C148.601 311.618 152.623 310.834 157.303 309.934C160.838 309.257 164.84 308.473 168.81 311.11C171.806 313.089 173.912 315.736 175.956 318.288C180.021 323.37 182.413 325.964 188.416 324.609C196.281 322.84 196.789 316.308 196.673 306.546C196.662 305.477 196.641 304.429 196.652 303.423C196.789 286.452 212.944 275.663 228.824 273.768C237.208 272.773 245.253 273.916 252.071 277.092C256.718 279.252 260.582 282.386 264.319 285.414C268.533 288.823 272.513 292.052 277.351 293.768C287.281 297.293 293.082 290.867 300.789 280.682C303.213 277.484 305.5 274.456 308.051 272.021C318.659 261.868 332.866 256.511 346.067 257.718C365.334 259.465 373.655 274.784 381.002 288.304C383.002 291.989 384.887 295.462 386.941 298.617C394.669 310.464 411.712 318.224 431.032 317.78C428.873 317.367 426.745 316.88 424.638 316.234ZM253.85 262.524C253.765 262.524 253.67 262.524 253.585 262.514C226.823 260.343 203.723 246.156 191.793 224.558C177.829 199.275 180.825 168.689 199.235 148.424C200.431 147.112 202.453 147.027 203.755 148.213C205.068 149.398 205.163 151.431 203.967 152.733C187.399 170.965 184.753 198.587 197.393 221.466C208.276 241.18 229.48 254.15 254.104 256.14C255.861 256.278 257.174 257.823 257.036 259.592C256.898 261.254 255.501 262.524 253.85 262.524Z" fill="#E23B3B"/>
</g>
<defs>
<clipPath id="clip0_2_189">
<rect width="431" height="325" fill="white"/>
</clipPath>
</defs>
</svg>
