<svg width="209" height="43" viewBox="0 0 209 43" fill="none" xmlns="http://www.w3.org/2000/svg">
<g clip-path="url(#clip0_14_1154)">
<path d="M202.652 27.2633C198.975 26.2107 195.979 23.8994 193.085 21.6668C191.166 20.1871 189.352 18.7862 187.351 17.7223C182.139 14.9428 177.296 13.8939 172.967 14.6094C170.162 15.0701 167.494 16.8308 164.32 20.3108C164.29 20.3445 164.249 20.3595 164.212 20.3894C163.989 21.5282 163.389 22.5733 162.51 23.2926C161.537 24.083 160.33 24.3826 159.119 24.1391C157.64 23.8395 156.735 22.8281 156.81 21.5657C156.843 20.9775 157.335 20.5355 157.927 20.5655C158.512 20.5992 158.956 21.1049 158.922 21.6893C158.915 21.8354 159.235 21.989 159.537 22.0526C160.286 22.2062 160.844 21.9103 161.18 21.6406C161.798 21.1386 162.186 20.3033 162.197 19.4642C162.219 17.7185 161.493 16.3737 160.043 15.471C157.726 14.0288 153.844 13.9651 151.207 15.3249C148.986 16.4711 147.157 18.3366 145.223 20.3145C143.808 21.7605 142.347 23.2551 140.704 24.4538C136.48 27.533 131.979 29.1325 127.322 29.2037C121.999 29.2824 117.603 27.4019 112.964 25.409C112.003 24.997 111.035 24.5812 110.047 24.1766C105.729 22.4197 101.423 21.0337 97.254 20.0673C88.4655 18.0257 79.6622 17.5125 71.0824 18.5464C66.0418 19.1533 60.9863 20.3033 56.0649 21.9627C50.5438 23.8245 45.0412 26.1695 39.7212 28.4395C37.0947 29.5596 34.3788 30.7171 31.7151 31.7959C28.7422 32.9984 25.7506 33.9536 22.8224 34.6354C19.1677 35.4894 15.6694 35.9127 12.3537 35.9127C9.47766 35.9127 6.73942 35.5906 4.15393 34.9463C4.13531 34.9425 4.11668 34.935 4.10178 34.9313C12.2345 38.2015 20.2928 39.2541 28.5708 38.1378C36.7669 37.0328 45.0636 34.6728 53.0808 32.3878C56.743 31.3464 60.5243 30.2676 64.2536 29.3236C86.9343 23.5772 103.978 24.952 116.358 33.5228C125.638 39.9471 135.69 45.8545 147.567 41.5055C151.717 39.9846 155.219 37.4448 158.926 34.7552C161.534 32.8635 164.227 30.9081 167.148 29.3648C174.23 25.6225 183.03 25.1655 191.282 28.1174C191.855 28.3234 192.437 28.5407 193.033 28.7617C197.82 30.5485 202.767 32.4028 206.817 29.2936C207.685 28.6268 208.393 27.9001 209.004 27.0947C206.977 27.8289 204.686 27.8439 202.652 27.2633Z" fill="#E23B3B"/>
<path d="M21.6973 29.2781C15.9637 30.7765 10.219 31.522 4.61961 31.522C3.06608 31.522 1.52745 31.462 0 31.3459C1.58706 31.9565 3.13686 32.4996 4.66059 32.878C9.88745 34.1816 15.8333 34.073 22.338 32.5558C25.1582 31.8966 28.0455 30.975 30.9178 29.8138C33.5667 28.7424 36.2714 27.5887 38.8867 26.4724C44.2439 24.1873 49.7837 21.8236 55.3831 19.9357C60.4424 18.2312 65.6394 17.0475 70.8216 16.4219C79.6435 15.3581 88.6927 15.8825 97.7233 17.984C102.004 18.9804 106.415 20.3964 110.837 22.1945C111.835 22.6028 112.819 23.0223 113.791 23.4419C118.217 25.3448 122.423 27.1429 127.285 27.068C130.031 27.0268 132.724 26.3787 135.34 25.1613C135.395 25.1163 135.455 25.0789 135.518 25.0452C139.311 23.1385 141.315 16.6842 140.976 13.2529C140.734 10.788 140.097 8.62658 139.08 6.83226C136.528 2.31837 131.107 -0.468636 125.914 0.0595455C121.25 0.531538 117.092 4.7982 116.835 9.37952C116.686 12.0092 117.476 14.5115 118.947 16.0736C120.181 17.3847 121.868 18.0514 123.969 18.0514C124.107 18.0514 124.238 18.0814 124.357 18.1264C126.257 17.5308 127.904 16.4519 128.459 14.8112C128.868 13.6125 128.459 11.8519 127.553 10.8854C127.225 10.5333 126.153 10.1212 125.337 10.2673C124.871 10.3535 124.774 10.5782 124.733 10.6719C124.506 11.215 123.884 11.466 123.347 11.2375C122.811 11.009 122.557 10.3834 122.785 9.84402C123.161 8.95248 123.932 8.36062 124.96 8.17332C126.376 7.91859 128.19 8.4655 129.088 9.42447C130.53 10.9566 131.119 13.5675 130.459 15.5042C128.917 20.0443 122.502 21.2917 118.649 20.6998C115.565 20.2278 112.804 18.7931 110.133 17.4071C109.056 16.849 108.043 16.3208 107.007 15.8526C101.978 13.5788 98.0512 12.1066 94.2773 11.0727C84.1551 8.30443 74.1112 7.90361 63.5718 9.85526C55.5992 11.3274 48.8784 15.3843 41.7627 19.6772C35.5076 23.4569 29.0365 27.3602 21.6973 29.2781Z" fill="#E23B3B"/>
</g>
<defs>
<clipPath id="clip0_14_1154">
<rect width="209" height="43" fill="white"/>
</clipPath>
</defs>
</svg>
