<svg width="23" height="24" viewBox="0 0 23 24" fill="none" xmlns="http://www.w3.org/2000/svg">
<g clip-path="url(#clip0_14_1144)">
<path d="M15.266 12.001L19.466 4.752L21.496 12.005L19.466 19.255L15.266 12.005V12.001ZM13.219 13.178L17.42 20.432L10.104 18.556L4.819 13.178H13.219ZM17.419 3.57L13.219 10.823H4.819L10.104 5.445L17.418 3.57H17.419ZM23.419 9.533L20.853 0L11.289 2.555L9.873 5.044L7 5.023L0 12.001L7 18.978L9.871 18.956L11.289 21.445L20.853 23.999L23.413 14.468L21.96 12L23.419 9.533Z" fill="black"/>
</g>
<defs>
<clipPath id="clip0_14_1144">
<rect width="23" height="24" fill="white"/>
</clipPath>
</defs>
</svg>
